<svg xmlns="http://www.w3.org/2000/svg" width="256" height="256" shape-rendering="geometricPrecision" image-rendering="optimizeQuality" fill-rule="evenodd" xmlns:v="https://vecta.io/nano"><path fill="#1c242a" d="M-.5-.5h13v53a333.35 333.35 0 0 0-1.5 26l-1-72c-.442 2.179-1.442 2.845-3 2-1.049 1.607-2.549 2.273-4.5 2a8.8 8.8 0 0 0-1.5-5l-.5 95c.325 7.187-.009 14.187-1 21V-.5z"/><path fill="#222b32" d="M19.5-.5h61c-1.544 1.414-3.211 1.747-5 1-.7 2.515-2.033 3.182-4 2a40.28 40.28 0 0 1-4.5 4c-.414-.457-.914-.791-1.5-1-2.055 2.055-4.388 3.721-7 5-1.701 1.302-2.868 2.969-3.5 5-3.055-2.982-5.055-2.316-6 2-.414-.457-.914-.791-1.5-1a25.97 25.97 0 0 1-5 5c-1.601-.665-3.101-.999-4.5-1-2.175 3.674-3.508 7.674-4 12-1.388-1.054-2.888-1.22-4.5-.5l1 1a9.25 9.25 0 0 0-4.5 5.5c-1.791-2.013-3.125-2.013-4 0-.671-.752-1.504-1.086-2.5-1v-38z"/><path fill="#202c34" d="M114.5-.5h55c.626 7.084-.041 13.75-2 20-6.246-3.639-12.913-6.306-20-8-.111-.617-.444-1.117-1-1.5a65.82 65.82 0 0 0-17-2.5c-1.792-.809-3.792-1.309-6-1.5l5-1a319.01 319.01 0 0 1-14-5.5z"/><path fill="#131a21" d="M169.5-.5h4c-.326 8.184.008 16.184 1 24v1c-2.87-.933-5.204-2.6-7-5 1.959-6.25 2.626-12.916 2-20z"/><path fill="#1d2c36" d="M173.5-.5h45c-1.942 10.745-2.609 21.745-2 33a77.1 77.1 0 0 0 1 13 274.31 274.31 0 0 0-17-7c1.294-1.548 1.961-3.548 2-6-.474-2.843-.474-5.509 0-8-1.924-1.509-3.091-3.509-3.5-6-2.09 1.291-3.424.624-4-2-.667 1.333-1.333 1.333-2 0-.617-.949-.451-1.783.5-2.5-2.034-1.205-4.034-1.372-6-.5 1.09 1.109 1.09 2.109 0 3a9.9 9.9 0 0 0-5-2.5 6.54 6.54 0 0 0 3-3c-2.28-.703-4.28-1.869-6-3.5-1.634.468-2.8 1.468-3.5 3-.684-1.284-.517-2.451.5-3.5L175 5.5c-.499 5.991-.666 11.991-.5 18-.992-7.816-1.326-15.816-1-24z"/><path fill="#1d2c37" d="M218.5-.5h37v37c-.768-.763-1.268-1.763-1.5-3-1.353 1.185-2.52 2.519-3.5 4l-2-2c-1.196.346-1.196.846 0 1.5l-4 1c2.401.805 2.234 1.638-.5 2.5l-3-3 1 6c-1.754-1.75-3.921-2.417-6.5-2a8.43 8.43 0 0 0 .5 4c.654-1.196 1.154-1.196 1.5 0-.825.886-1.825 1.219-3 1 .381-2.442-.286-3.108-2-2 .391-1.391-.442-2.391-2.5-3-.492-1.049-.326-2.049.5-3-2.478-1.222-3.478-3.222-3-6-3.218.151-3.551.984-1 2.5-1.702 1.583-3.036 1.083-4-1.5 2.274-2.535 1.607-4.535-2-6-2.17 2.206-2.17 4.206 0 6l-1 1-3-2c-.609-11.255.058-22.255 2-33z"/><path fill="#2e3438" d="M107.5 7.5c-5.193 1.444-10.527 2.777-16 4-.651-.591-1.318-1.257-2-2-2.736.917-5.736 1.251-9 1-1.529-.029-2.696-.696-3.5-2-9.632 4.289-18.799 9.456-27.5 15.5-8.926 8.527-15.593 18.527-20 30a309.88 309.88 0 0 1 1 10.5c-2.184.766-4.518 1.433-7 2a17.22 17.22 0 0 0-.5 10c1.302.585 2.469 1.251 3.5 2l-7 20v-32c.823-3.477 1.323-7.144 1.5-11 .423-1.456 1.256-1.956 2.5-1.5-1.231 1.183-1.231 2.349 0 3.5a4.85 4.85 0 0 0 1-4c2.776.411 3.443-.422 2-2.5 4.39-3.647 5.056-7.647 2-12 1.17-1.755 2.837-2.755 5-3 .667-2 2-3.333 4-4l-2-1c1.167-.5 2-1.333 2.5-2.5.718.951 1.551 1.117 2.5.5l9-9c5.186-2.139 9.853-5.139 14-9 3.321-1.91 6.821-3.41 10.5-4.5.561.522 1.228.855 2 1 8.031-4.603 16.197-5.27 24.5-2 2.567-1.322 5.4-1.988 8.5-2 .692.525 1.192 1.192 1.5 2a44.09 44.09 0 0 0-3 2z"/><path fill="#1f2f39" d="M200.5 38.5a39.38 39.38 0 0 1-16-5l-10-9v-1c-.166-6.009.001-12.009.5-18l1.5 1.5c-1.017 1.049-1.184 2.216-.5 3.5.7-1.532 1.866-2.532 3.5-3 1.72 1.631 3.72 2.797 6 3.5a6.54 6.54 0 0 1-3 3 9.9 9.9 0 0 1 5 2.5c1.09-.891 1.09-1.891 0-3 1.966-.872 3.966-.705 6 .5-.951.717-1.117 1.551-.5 2.5.667 1.333 1.333 1.333 2 0 .576 2.624 1.91 3.291 4 2 .409 2.491 1.576 4.491 3.5 6-.474 2.491-.474 5.157 0 8-.039 2.452-.706 4.452-2 6z"/><path fill="#af6168" d="M114.5 7.5h15a65.82 65.82 0 0 1 17 2.5c.556.383.889.883 1 1.5a543.66 543.66 0 0 1 15 7.5 4.45 4.45 0 0 0-2 1.5l5 6c-.762.411-1.762.577-3 .5.556.383.889.883 1 1.5-7.315-4.995-14.982-9.495-23-13.5-2.765-1.476-5.432-1.643-8-.5-3.491-1.607-7.158-2.607-11-3-.709-.904-1.709-1.237-3-1-1.792-.809-3.792-1.309-6-1.5.916-.278 1.582-.778 2-1.5z"/><path fill="#fbc5b9" d="M118.5 10.5c1.291-.237 2.291.096 3 1l-7 6h-1-6c-.548-2.584-2.215-3.584-5-3 4.694-3.425 10.027-4.758 16-4z"/><path fill="#f0a8a3" d="M107.5 7.5h7c-.418.722-1.084 1.222-2 1.5 2.208.191 4.208.691 6 1.5-5.973-.758-11.306.575-16 4l-6 4c-.667 0-1-.333-1-1 1.3-1.101 1.8-2.434 1.5-4-2.627 2.488-5.46 2.655-8.5.5 1.237-.232 2.237-.732 3-1.5v-1c5.473-1.223 10.807-2.556 16-4z"/><path fill="#fbe3cd" d="M102.5 14.5c2.785-.584 4.452.416 5 3-3.507-.193-6.84.473-10 2-.607-.124-.94-.457-1-1l6-4z"/><path fill="#f4b2af" d="M121.5 11.5c3.842.393 7.509 1.393 11 3 2.635 1.311 4.969 2.978 7 5 1.208 2.572.875 4.906-1 7-7.722-3.795-15.722-6.795-24-9l7-6z"/><path fill="#f5cfb8" d="M83.5 14.5a4.93 4.93 0 0 1 3 .5 20.18 20.18 0 0 0-6 4c1.473.71 2.14 1.876 2 3.5h-5c-.548-2.032-1.881-3.032-4-3v-1c3.103-1.884 6.437-3.218 10-4z"/><path fill="#f1b7aa" d="M95.5 17.5c0 .667.333 1 1 1 .06.543.393.876 1 1 3.16-1.527 6.493-2.193 10-2h6c0 1.333.667 2 2 2-2.868 2.413-6.201 4.079-10 5h-4c1.109-.79 2.442-1.29 4-1.5.837-1.011 1.17-2.178 1-3.5a18.98 18.98 0 0 0-8 1.5 25.18 25.18 0 0 1-9 5.5l6-9z"/><path fill="#504541" d="M73.5 18.5v1c-16.83 9.83-29.497 23.496-38 41-.077-1.25-.744-2.083-2-2.5 5.073-7.31 9.239-15.143 12.5-23.5 5.745-6.417 12.578-11.251 20.5-14.5l-2-1c2.916-1.817 5.916-1.984 9-.5z"/><path fill="#e38a8a" d="M91.5 12.5c-.763.768-1.763 1.268-3 1.5 3.04 2.155 5.873 1.988 8.5-.5.3 1.566-.2 2.899-1.5 4l-6 9v1l-2 2a21.01 21.01 0 0 1-6-2.5c-3.197-.805-6.196-.638-9 .5-1.347.528-2.681.695-4 .5l9-5.5h5c.14-1.624-.527-2.79-2-3.5a20.18 20.18 0 0 1 6-4 4.93 4.93 0 0 0-3-.5c2.405-1.268 5.072-1.935 8-2z"/><path fill="#fcdcca" d="M101.5 24.5c-2.862.747-4.862 2.414-6 5 .383 1.909 1.383 3.408 3 4.5-1.707.195-3.374.195-5 0 .873 1.045 1.873 1.878 3 2.5v1c-1.821 5.695-5.487 7.361-11 5 .246-2.97 1.912-4.303 5-4a19.24 19.24 0 0 1 1-6c-1.468-1.279-2.135-2.946-2-5v-1a25.18 25.18 0 0 0 9-5.5 18.98 18.98 0 0 1 8-1.5c.17 1.322-.163 2.489-1 3.5-1.558.21-2.891.71-4 1.5z"/><path fill="#383a3b" d="M91.5 11.5v1c-2.928.065-5.595.732-8 2-3.563.782-6.897 2.116-10 4-3.084-1.484-6.084-1.317-9 .5l2 1c-7.922 3.249-14.755 8.083-20.5 14.5-3.261 8.357-7.427 16.19-12.5 23.5 1.256.417 1.923 1.25 2 2.5-.61 1.934-1.61 3.601-3 5-.342-.838-1.008-1.172-2-1a309.88 309.88 0 0 0-1-10.5c4.407-11.473 11.074-21.473 20-30C58.201 17.956 67.368 12.789 77 8.5c.804 1.304 1.971 1.971 3.5 2 3.264.251 6.264-.083 9-1 .682.743 1.349 1.409 2 2z"/><path fill="#a84a46" d="M101.5 24.5h4a65.5 65.5 0 0 1 18 12h-2c-7.891-5.14-16.558-7.473-26-7 1.138-2.586 3.138-4.253 6-5z"/><path fill="#f29f98" d="M139.5 19.5c7.761 3.26 13.427 8.76 17 16.5a.91.91 0 0 1-1 .5c-5.57-3.614-11.237-6.947-17-10 1.875-2.094 2.208-4.428 1-7z"/><path fill="#182026" d="M15.5-.5h4v38 29 32 4c-1.436 6.447-2.103 13.114-2 20-.508 3.697-1.174 7.364-2 11-.986-4.47-1.319-9.137-1-14l1-120z"/><path fill="#fab9ac" d="M72.5 27.5c2.803-1.138 5.804-1.305 9-.5a21.01 21.01 0 0 0 6 2.5l2-2c-.135 2.054.532 3.721 2 5l-4.5 1a31.5 31.5 0 0 1-4.5-2l-4-1 2-2c-2.587-.98-5.253-1.313-8-1z"/><path fill="#a3575e" d="M147.5 11.5c7.087 1.694 13.754 4.361 20 8 1.796 2.4 4.13 4.067 7 5l10 9a200.85 200.85 0 0 1 19 27c.163 2.357-.003 4.69-.5 7-1.804-5.08-3.804-10.08-6-15-.654-1.196-1.154-1.196-1.5 0 3.565 6.594 5.398 13.594 5.5 21-3.123-7.277-6.123-14.611-9-22 1.17 6.025 2.67 12.025 4.5 18l-6-2c-.617-.111-1.117-.444-1.5-1-.278.916-.778 1.582-1.5 2-1.66-4.994-4.994-8.327-10-10-1.429-2.178-2.263-4.511-2.5-7 1.574 1.484 2.907 3.151 4 5-1.9-5.133-4.4-10.133-7.5-15 .855-.793 1.689-.46 2.5 1 1.497 3.665 3.497 6.998 6 10-.743-6.489-3.409-12.156-8-17a87.04 87.04 0 0 1-8.5-7c-.111-.617-.444-1.117-1-1.5 1.238.077 2.238-.089 3-.5l-5-6a4.45 4.45 0 0 1 2-1.5 543.66 543.66 0 0 0-15-7.5z"/><path fill="#e99fa3" d="M115.5 19.5c8.042 1.453 15.375 4.453 22 9-1.213.997-1.046 1.997.5 3a20.49 20.49 0 0 1 0 9c-1.694 1.199-3.194 2.532-4.5 4a56.71 56.71 0 0 0-10-8 65.5 65.5 0 0 0-18-12c3.799-.921 7.132-2.587 10-5z"/><path fill="#db8589" d="M113.5 17.5h1c8.278 2.205 16.278 5.205 24 9 5.763 3.053 11.43 6.386 17 10 5.634 3.932 11.134 8.266 16.5 13a6.41 6.41 0 0 0 .5 4.5 4.93 4.93 0 0 1-3 .5c-4.142-1.62-7.642-4.286-10.5-8a.91.91 0 0 0-.5 1 28.06 28.06 0 0 0-5-5 45.42 45.42 0 0 0-8-8c-1.912-2.961-4.579-4.961-8-6-6.625-4.547-13.958-7.547-22-9-1.333 0-2-.667-2-2z"/><path fill="#2a3135" d="M80.5-.5h34a319.01 319.01 0 0 0 14 5.5l-5 1c2.208.191 4.208.691 6 1.5h-15-7a44.09 44.09 0 0 1 3-2c-.308-.808-.808-1.475-1.5-2-3.1.012-5.933.678-8.5 2-8.303-3.27-16.469-2.603-24.5 2-.772-.145-1.439-.478-2-1-3.679 1.09-7.179 2.59-10.5 4.5-4.147 3.861-8.814 6.861-14 9l-9 9c-.949.617-1.782.451-2.5-.5-.5 1.167-1.333 2-2.5 2.5l2 1c-2 .667-3.333 2-4 4-2.163.245-3.83 1.245-5 3 3.056 4.353 2.39 8.353-2 12 1.443 2.078.776 2.911-2 2.5a4.85 4.85 0 0 1-1 4c-1.231-1.151-1.231-2.317 0-3.5-1.244-.456-2.077.044-2.5 1.5-.177 3.856-.677 7.523-1.5 11v-29c.996-.086 1.829.248 2.5 1 .875-2.013 2.209-2.013 4 0a9.25 9.25 0 0 1 4.5-5.5l-1-1c1.612-.72 3.112-.554 4.5.5.492-4.326 1.825-8.326 4-12 1.399.001 2.899.335 4.5 1a25.97 25.97 0 0 0 5-5c.586.209 1.086.543 1.5 1 .945-4.316 2.945-4.982 6-2 .632-2.031 1.799-3.698 3.5-5 2.612-1.279 4.945-2.945 7-5 .586.209 1.086.543 1.5 1a40.28 40.28 0 0 0 4.5-4c1.967 1.182 3.3.515 4-2 1.789.747 3.456.414 5-1z"/><path fill="#ef9b99" d="M82.5 31.5a31.5 31.5 0 0 0 4.5 2l4.5-1a19.24 19.24 0 0 0-1 6c-3.088-.303-4.754 1.03-5 4-1.591 3.461-2.258 7.128-2 11a60.94 60.94 0 0 1-.5 11l-1-20-1 2c-.173 5.848-.673 11.515-1.5 17-1.3-7.427-1.133-14.761.5-22-2.413 2.562-4.08 5.562-5 9a387.68 387.68 0 0 0-4 17 20.5 20.5 0 0 1 0-9c1.635-7.249 4.468-13.915 8.5-20a4.85 4.85 0 0 0-4-1c1.721-2.194 4.055-3.361 7-3.5 1.098-.77 1.098-1.603 0-2.5z"/><path fill="#cd7777" d="M132.5 14.5c2.568-1.143 5.235-.976 8 .5 8.018 4.005 15.685 8.505 23 13.5a87.04 87.04 0 0 0 8.5 7c4.591 4.844 7.257 10.511 8 17-2.503-3.002-4.503-6.335-6-10-.811-1.46-1.645-1.793-2.5-1 3.1 4.867 5.6 9.867 7.5 15-1.093-1.849-2.426-3.516-4-5 .237 2.489 1.071 4.822 2.5 7-2.808-1.429-5.808-2.096-9-2a.91.91 0 0 1-1-.5c.916-.278 1.582-.778 2-1.5a4.93 4.93 0 0 0 3-.5 6.41 6.41 0 0 1-.5-4.5c-5.366-4.734-10.866-9.068-16.5-13a.91.91 0 0 0 1-.5c-3.573-7.74-9.239-13.24-17-16.5-2.031-2.022-4.365-3.689-7-5z"/><path fill="#c95d5c" d="M78.5 30.5l4 1c1.098.897 1.098 1.73 0 2.5-2.945.139-5.279 1.306-7 3.5-7.171 4.172-12.171 10.173-15 18-2.092 2.588-3.425 5.588-4 9-.667 0-1-.333-1-1 2.596-10.763 7.596-20.263 15-28.5 2.317-2.157 4.984-3.657 8-4.5z"/><path fill="#f7bbb8" d="M137.5 28.5c3.421 1.039 6.088 3.039 8 6 2.903 4.313 2.07 4.98-2.5 2l-.5 1c1.922 3.799 2.422 7.799 1.5 12a20.84 20.84 0 0 1-2.5 1c4.086 6.504 7.919 13.17 11.5 20 .74 1.249.573 2.249-.5 3-4.582-10.835-10.915-20.502-19-29 1.306-1.468 2.806-2.801 4.5-4a20.49 20.49 0 0 0 0-9c-1.546-1.003-1.713-2.003-.5-3z"/><path fill="#141c24" d="M184.5 33.5a39.38 39.38 0 0 0 16 5 274.31 274.31 0 0 1 17 7l10 13c4.283.992 8.616 1.326 13 1-1.399 1.39-3.066 2.39-5 3-1.238-.31-1.238-.81 0-1.5l-3.5-.5a214.91 214.91 0 0 0-16.5 4c-2.524-1.3-5.191-1.3-8 0 .769 3.124 2.436 3.791 5 2-1.442 1.32-2.108 2.986-2 5h-1c-1.638-3.96-3.638-7.626-6-11a200.85 200.85 0 0 0-19-27z"/><path fill="#f5b0b3" d="M123.5 38.5c4.626 2.958 8.626 6.624 12 11-1.745 3.386-2.245 7.052-1.5 11 1.145 1.184 2.312 1.184 3.5 0 .131.876-.202 1.543-1 2-2.28.636-4.28 1.636-6 3-.658-.898-1.324-1.898-2-3-.927 1.613-1.761 3.279-2.5 5-1.011.837-2.178 1.17-3.5 1v3c-.768-.763-1.268-1.763-1.5-3-.278.916-.778 1.582-1.5 2a303.68 303.68 0 0 0-10-21c1.89-5.209 5.057-6.209 9.5-3 1.982-2.498 3.482-5.164 4.5-8z"/><path fill="#d57e85" d="M109.5 49.5a303.68 303.68 0 0 1 10 21l1 4h-1-1a20.69 20.69 0 0 0-1-5c-2.57-6.811-5.904-13.144-10-19a105.59 105.59 0 0 0-11-13v-1c.06-.543.393-.876 1-1a40.43 40.43 0 0 1 12 14z"/><path fill="#eda4a6" d="M95.5 29.5c9.442-.473 18.109 1.86 26 7l2 2c-1.018 2.836-2.518 5.502-4.5 8-4.443-3.209-7.61-2.209-9.5 3a40.43 40.43 0 0 0-12-14c-.607.124-.94.457-1 1-1.127-.622-2.127-1.455-3-2.5 1.626.195 3.293.195 5 0-1.617-1.092-2.617-2.591-3-4.5z"/><path fill="#1f2e38" d="M255.5 36.5v21c-4.865 1.962-9.865 2.629-15 2-4.384.326-8.717-.008-13-1l-10-13a77.1 77.1 0 0 1-1-13l3 2 1-1c-2.17-1.794-2.17-3.794 0-6 3.607 1.465 4.274 3.465 2 6 .964 2.583 2.298 3.083 4 1.5-2.551-1.516-2.218-2.349 1-2.5-.478 2.778.522 4.778 3 6-.826.951-.992 1.951-.5 3 2.058.609 2.891 1.609 2.5 3 1.714-1.108 2.381-.442 2 2 1.175.219 2.175-.114 3-1-.346-1.196-.846-1.196-1.5 0a8.43 8.43 0 0 1-.5-4c2.579-.417 4.746.25 6.5 2l-1-6 3 3c2.734-.862 2.901-1.695.5-2.5l4-1c-1.196-.654-1.196-1.154 0-1.5l2 2c.98-1.481 2.147-2.815 3.5-4 .232 1.237.732 2.237 1.5 3z"/><path fill="#efa2a6" d="M96.5 37.5a105.59 105.59 0 0 1 11 13c-1.56 1.656-2.56 3.656-3 6a95.57 95.57 0 0 0-3.5-7c-3.012 3.763-6.845 6.43-11.5 8-2.266-.932-4.266-2.265-6-4-.258-3.872.409-7.539 2-11 5.513 2.361 9.179.695 11-5z"/><path fill="#eb969c" d="M153.5 42.5a28.06 28.06 0 0 1 5 5l4 6c6.285 11.474 9.285 23.807 9 37l-5.5-17c-1.413-3.161-3.08-6.161-5-9-.464.594-.631 1.261-.5 2-1.536-4.921-3.536-9.754-6-14.5l2-3a11.74 11.74 0 0 1-3-6.5z"/><path fill="#fdd6c2" d="M135.5 49.5l3 4a51.56 51.56 0 0 1-1 7c-1.188 1.184-2.355 1.184-3.5 0-.745-3.948-.245-7.614 1.5-11z"/><path fill="#f8b8b8" d="M83.5 53.5c1.734 1.735 3.734 3.068 6 4 4.655-1.57 8.488-4.237 11.5-8a95.57 95.57 0 0 1 3.5 7 141.67 141.67 0 0 1 0 8.5 40.79 40.79 0 0 0 2.5 5.5c.924 7.062 2.09 14.062 3.5 21v7c-2.403.107-4.236-.893-5.5-3a60.88 60.88 0 0 0-3.5 10c-4.954-1.457-8.12-4.791-9.5-10-1.016-1.134-1.683-.801-2 1a18.94 18.94 0 0 0-3-5c.596 3.937 2.096 7.604 4.5 11-.855.793-1.689.46-2.5-1-2.833 2.327-5.833 2.327-9 0 .053 3.148-1.114 5.648-3.5 7.5.489 1.138.823 2.305 1 3.5h-3c-.039-4.233-.705-8.233-2-12-.204-3.018-.537-6.018-1-9-.86-3.934-1.193-7.934-1-12 .783 3.276 1.783 6.609 3 10 .974-2.243 1.308-4.576 1-7-.165-3.018.002-6.018.5-9 .179 3.525.679 6.859 1.5 10 .166 4.029 1.999 5.362 5.5 4l2 2c-.375-4.495-1.541-8.828-3.5-13 .206-4.398-.127-8.731-1-13 .827-5.485 1.327-11.152 1.5-17l1-2 1 20a60.94 60.94 0 0 0 .5-11z"/><path fill="#fde6d7" d="M73.5 19.5c2.119-.032 3.452.968 4 3l-9 5.5c1.319.195 2.653.028 4-.5 2.747-.313 5.413.02 8 1l-2 2c-3.016.843-5.683 2.343-8 4.5-7.404 8.237-12.404 17.737-15 28.5-4.473 11.488-6.806 23.488-7 36-.698 5.967-1.198 11.967-1.5 18l-2-2a8.8 8.8 0 0 0-1.5 5c-.282 5.521-.949 10.854-2 16v-3c-5.119-32.614.547-63.281 17-92-.855-.793-1.689-.46-2.5 1-9.407 17.222-15.407 35.555-18 55l-2.5 50c-.809-1.528-1.476-3.194-2-5-1.498-11.929-2.331-23.929-2.5-36v54l-2 8c-.383.556-.883.889-1.5 1 .321-5.526-.012-10.86-1-16 .166-5.676-.001-11.343-.5-17-1.524 3.11-2.358 6.444-2.5 10-1.174 1.014-1.84 2.347-2 4a44.83 44.83 0 0 0-1 10l-2 6c.753-15.765 2.42-31.431 5-47 2.154-6.786 2.487-13.786 1-21 .843-5.036 1.843-10.036 3-15 1.97-5.204 3.636-10.537 5-16v-2c1.39-1.399 2.39-3.066 3-5 8.503-17.504 21.17-31.17 38-41z"/><path fill="#fbcdc5" d="M69.5 72.5c-1.525.674-2.858 1.674-4 3-3.36-3.385-5.693-7.385-7-12-.684.363-1.35.696-2 1 .575-3.412 1.908-6.412 4-9 2.141 2.673 4.974 5.673 8.5 9 .497 2.646.664 5.313.5 8z"/><path fill="#253035" d="M12.5 52.5l-1 74a24.94 24.94 0 0 1-.5 7c-2.124-.383-3.957-1.883-5.5-4.5-.443-1.518.224-2.685 2-3.5-1.523-2.086-1.19-3.752 1-5a242.5 242.5 0 0 0 0-44c-1.001 2.494-1.001 5.161 0 8-3.861 1.098-3.861 1.931 0 2.5-1.333 1-1.333 2 0 3-3.946 1.96-3.946 3.96 0 6l-2 4c-.169 2.323.497 4.656 2 7-1.625.853-1.958 1.853-1 3-2.094.445-3.594-.388-4.5-2.5l-1-11c-.21 1.558-.71 2.891-1.5 4l.5-95a8.8 8.8 0 0 1 1.5 5c1.951.273 3.451-.393 4.5-2 1.558.845 2.558.179 3-2l1 72a333.35 333.35 0 0 1 1.5-26z"/><path fill="#aa5a5b" d="M255.5 57.5v3a8.8 8.8 0 0 0-5 1.5c-3.245 3.733-6.245 7.566-9 11.5.795-2.923 2.128-5.59 4-8-.502-1.021-1.168-1.188-2-.5-4.963 5.924-8.63 12.591-11 20 .184 1.376.851 2.209 2 2.5-1.08 2.496-2.414 4.829-4 7 0 .667-.333 1-1 1-1.312-.645-2.312-1.645-3-3 1.893-2.452 3.226-5.119 4-8 .057-1.109.39-2.109 1-3 2.847-5.186 5.847-10.352 9-15.5-2.072-.036-4.072.464-6 1.5.091-2.198-.575-2.531-2-1h-3c1.864-1.514 3.864-2.847 6-4 1.934-.61 3.601-1.61 5-3 5.135.629 10.135-.038 15-2z"/><path fill="#dea683" d="M255.5 60.5v55c-3.591-4.768-7.425-9.435-11.5-14-.483-.948-.649-1.948-.5-3-.149-6.218 1.518-11.885 5-17l-1-1c-4.481 7.063-6.814 6.396-7-2a20.69 20.69 0 0 0 1-5c2.755-3.934 5.755-7.767 9-11.5a8.8 8.8 0 0 1 5-1.5z"/><path fill="#fde8dc" d="M69.5 72.5c-.86 3.934-1.193 7.934-1 12a51.64 51.64 0 0 0-1 7c-.973-2.448-1.306-5.115-1-8-1.726.315-3.392.481-5 .5a163.87 163.87 0 0 0-4.5-8.5l-5 19c-.498-2.982-.665-5.982-.5-9a73.87 73.87 0 0 1 5-21c.65-.304 1.316-.637 2-1 1.306 4.615 3.64 8.615 7 12 1.142-1.326 2.475-2.326 4-3z"/><path fill="#695150" d="M215.5 64.5c-.473 1.406-1.473 2.073-3 2-2.564 1.791-4.231 1.124-5-2 2.809-1.3 5.476-1.3 8 0z"/><path fill="#f8bcb7" d="M75.5 37.5a4.85 4.85 0 0 1 4 1c-4.032 6.085-6.865 12.751-8.5 20a20.5 20.5 0 0 0 0 9 387.68 387.68 0 0 1 4-17c.92-3.438 2.587-6.438 5-9-1.633 7.239-1.8 14.573-.5 22 .873 4.269 1.206 8.602 1 13l-3-2a21.12 21.12 0 0 0-1 9c-.821-3.141-1.321-6.475-1.5-10-.498 2.982-.665 5.982-.5 9a261.05 261.05 0 0 0-2.5-14 52.08 52.08 0 0 0-1.5 10l-2 6c-.193-4.066.14-8.066 1-12 .164-2.687-.003-5.354-.5-8-3.526-3.327-6.359-6.327-8.5-9 2.829-7.828 7.829-13.827 15-18z"/><path fill="#fdddd0" d="M130.5 65.5c.824 3.264 1.158 6.598 1 10-2.012.514-4.012.68-6 .5-.899-1.652-1.899-3.152-3-4.5v-3c1.322.17 2.489-.163 3.5-1 .739-1.721 1.573-3.387 2.5-5 .676 1.102 1.342 2.102 2 3z"/><path fill="#f3a6a8" d="M138.5 53.5c5.482 6.945 9.982 14.612 13.5 23 .667 1.667.667 3.333 0 5-5.073-5.817-9.907-11.817-14.5-18-1.083.865-1.249 1.865-.5 3 2.325 2.001 4.158 4.334 5.5 7-.936 1.474-2.27 2.474-4 3-2.766-4.141-3.433-3.808-2 1-.927 2.076-2.593 3.243-5 3.5a26.6 26.6 0 0 1-2 3.5c-.917-.627-1.917-.961-3-1-2.731-2.446-4.731-5.446-6-9l-1-4c.722-.418 1.222-1.084 1.5-2 .232 1.237.732 2.237 1.5 3 1.101 1.348 2.101 2.848 3 4.5 1.988.18 3.988.014 6-.5.158-3.402-.176-6.736-1-10 1.72-1.364 3.72-2.364 6-3 .798-.457 1.131-1.124 1-2a51.56 51.56 0 0 0 1-7z"/><path fill="#4e4e52" d="M30.5 64.5c.992-.172 1.658.162 2 1v2c-2.613 3.145-4.279 6.811-5 11h-1c-1.031-.749-2.198-1.415-3.5-2a17.22 17.22 0 0 1 .5-10c2.482-.567 4.816-1.234 7-2z"/><path fill="#e18587" d="M168.5 56.5c3.192-.096 6.192.571 9 2 5.006 1.673 8.34 5.006 10 10 .049 2.599 1.049 4.766 3 6.5-5.333.667-5.333 1.333 0 2l-5 2.5c-8.83-2.601-8.83-4.101 0-4.5-3.403-.578-6.57-1.745-9.5-3.5l-7.5-15z"/><path fill="#c09376" d="M32.5 67.5c-1.364 5.463-3.03 10.796-5 16v-2-3c.721-4.189 2.387-7.855 5-11z"/><path fill="#d0907c" d="M231.5 81.5c.012-2.642-1.321-3.975-4-4 1.529-3.868 3.863-7.201 7-10 1.928-1.036 3.928-1.536 6-1.5-3.153 5.148-6.153 10.314-9 15.5z"/><path fill="#d88b83" d="M241.5 73.5c-3.168 4.191-5.502 8.858-7 14-1.149-.291-1.816-1.124-2-2.5 2.37-7.409 6.037-14.076 11-20 .832-.688 1.498-.521 2 .5-1.872 2.41-3.205 5.077-4 8z"/><path fill="#e89ea1" d="M145.5 34.5a45.42 45.42 0 0 1 8 8 11.74 11.74 0 0 0 3 6.5l-2 3c2.464 4.746 4.464 9.579 6 14.5 1.23 3.753 2.23 7.586 3 11.5a22.19 22.19 0 0 1-2 6c2.846 10.042 4.846 20.208 6 30.5h-2c-.768-2.215-1.435-4.548-2-7 .162-2.027-.005-4.027-.5-6-2.38-7.866-5.213-15.532-8.5-23-.393-1.784-1.059-3.451-2-5 1.073-.751 1.24-1.751.5-3-3.581-6.83-7.414-13.496-11.5-20a20.84 20.84 0 0 0 2.5-1c.922-4.201.422-8.201-1.5-12l.5-1c4.57 2.98 5.403 2.313 2.5-2z"/><path fill="#f8cbc1" d="M41.5 133.5l-2.5 4-1-17c-.169 11.507-.669 22.841-1.5 34a51.65 51.65 0 0 1-1-7l2.5-50c2.593-19.445 8.593-37.778 18-55 .811-1.46 1.645-1.793 2.5-1-16.452 28.719-22.119 59.386-17 92z"/><path fill="#9a4d52" d="M235.5 62.5c-2.136 1.153-4.136 2.486-6 4-2.91 2.81-4.41 6.144-4.5 10 2.717-3.21 5.217-6.544 7.5-10 1.425-1.531 2.091-1.198 2 1-3.137 2.799-5.471 6.132-7 10 .507 1.359 1.507 2.359 3 3-.505 1.418-1.505 2.085-3 2-1.617.538-3.284.871-5 1-1.132-1.775-2.298-3.442-3.5-5l-3 4c-.577-5.121-1.577-5.121-3 0-.21-1.558-.71-2.891-1.5-4 .202-2.45-.131-4.783-1-7-.108-2.014.558-3.68 2-5 1.527.073 2.527-.594 3-2a214.91 214.91 0 0 1 16.5-4l3.5.5c-1.238.69-1.238 1.19 0 1.5z"/><path fill="#ddab87" d="M229.5 66.5h3c-2.283 3.456-4.783 6.79-7.5 10 .09-3.856 1.59-7.19 4.5-10z"/><path fill="#fdf0e6" d="M80.5 76.5c1.959 4.172 3.125 8.505 3.5 13l-2-2c-3.501 1.362-5.334.029-5.5-4a21.12 21.12 0 0 1 1-9l3 2z"/><path fill="#863a3e" d="M203.5 60.5c2.362 3.374 4.362 7.04 6 11 .935 2.613 1.102 5.279.5 8-.66-1.824-1.827-3.157-3.5-4-.614-1.782-1.78-3.116-3.5-4-.127 1.277.373 2.443 1.5 3.5a14.1 14.1 0 0 0-1 3.5v3c-1.291-.237-2.291.096-3 1h-1c-.709-.904-1.709-1.237-3-1 .237-1.291-.096-2.291-1-3-3.912.124-7.579 1.124-11 3a.91.91 0 0 1-1-.5c.916-.278 1.582-.778 2-1.5l5-2.5c-5.333-.667-5.333-1.333 0-2-1.951-1.734-2.951-3.901-3-6.5.722-.418 1.222-1.084 1.5-2 .383.556.883.889 1.5 1 .805 3.317 2.639 5.983 5.5 8 .317-1.801.984-2.134 2-1 1.932 7.848 2.598 7.848 2 0-.997-1.823-2.164-3.49-3.5-5-1.83-5.975-3.33-11.975-4.5-18 2.877 7.389 5.877 14.723 9 22-.102-7.406-1.935-14.406-5.5-21 .346-1.196.846-1.196 1.5 0 2.196 4.92 4.196 9.92 6 15 .497-2.31.663-4.643.5-7z"/><path fill="#231412" d="M206.5 75.5v2c-1.109.057-2.109.39-3 1a14.1 14.1 0 0 1 1-3.5c-1.127-1.057-1.627-2.223-1.5-3.5 1.72.884 2.886 2.218 3.5 4z"/><path fill="#d47371" d="M190.5 67.5l6 2c1.336 1.51 2.503 3.177 3.5 5 .598 7.848-.068 7.848-2 0-1.016-1.134-1.683-.801-2 1-2.861-2.017-4.695-4.683-5.5-8z"/><path fill="#fdece7" d="M102.5 74.5c1.29.558 2.123 1.558 2.5 3a20.49 20.49 0 0 1 0 9c-.923-1.259-1.757-2.592-2.5-4-1.646 6.683-5.646 9.016-12 7-1.395-3.12-2.728-6.287-4-9.5 6.4 1.301 11.733-.532 16-5.5z"/><path fill="#e89097" d="M142.5 73.5a482.33 482.33 0 0 1 11 18.5c-1.634.493-3.301.66-5 .5a97.49 97.49 0 0 1-10-16c1.73-.526 3.064-1.526 4-3z"/><path fill="#ce7179" d="M121.5 36.5h2a56.71 56.71 0 0 1 10 8c8.085 8.498 14.418 18.165 19 29 .941 1.549 1.607 3.216 2 5-.543.06-.876.393-1 1 .902 2.54 1.902 5.04 3 7.5-1.149 1.73-1.149 3.396 0 5a4.45 4.45 0 0 0-2 1.5c2.732 2.798 4.399 6.131 5 10a35.07 35.07 0 0 1-8-6 11.74 11.74 0 0 0-3-5c1.699.16 3.366-.007 5-.5a482.33 482.33 0 0 0-11-18.5c-1.342-2.666-3.175-4.999-5.5-7-.749-1.135-.583-2.135.5-3 4.593 6.183 9.427 12.183 14.5 18 .667-1.667.667-3.333 0-5-3.518-8.388-8.018-16.055-13.5-23l-3-4c-3.374-4.376-7.374-8.042-12-11l-2-2z"/><path fill="#cf5a32" d="M206.5 78.5c.876-.131 1.543.203 2 1 1.05.929 1.05 1.595 0 2-2.324-.377-2.991-1.377-2-3z"/><path fill="#fccbc3" d="M67.5 91.5v3c-.617.111-1.117.444-1.5 1l-1-6-1 4a7.29 7.29 0 0 0-2-3c-.236 1.619-1.069 2.619-2.5 3a4.93 4.93 0 0 0-.5-3c-3.401 8.614-5.401 17.614-6 27-2.487-10.728-2.987-21.394-1.5-32-.165 3.018.002 6.018.5 9l5-19a163.87 163.87 0 0 1 4.5 8.5c1.608-.019 3.274-.185 5-.5-.306 2.885.027 5.552 1 8z"/><path fill="#fcd4d3" d="M117.5 69.5a20.69 20.69 0 0 1 1 5c-.173 2.68-1.173 5.013-3 7-1.383-2.576-2.217-2.242-2.5 1-1.982-1.858-3.148-4.191-3.5-7 1.825-1.071 2.992-.404 3.5 2 .29-2.452.956-4.785 2-7 .671-.752 1.504-1.086 2.5-1z"/><path fill="#683330" d="M119.5 74.5h1c1.269 3.554 3.269 6.554 6 9l3 6c-2.05-1.737-3.883-3.737-5.5-6-.191 2.208-.691 4.208-1.5 6-.427-2.51-1.093-4.843-2-7a41.54 41.54 0 0 0-1-8z"/><path fill="#fddcd3" d="M74.5 82.5c.308 2.424-.026 4.757-1 7-1.217-3.391-2.217-6.724-3-10v-1a52.08 52.08 0 0 1 1.5-10 261.05 261.05 0 0 1 2.5 14z"/><path fill="#f4aeb2" d="M107.5 50.5c4.096 5.856 7.43 12.189 10 19-.996-.086-1.829.248-2.5 1-1.044 2.215-1.71 4.548-2 7-.508-2.404-1.675-3.071-3.5-2 .352 2.809 1.518 5.142 3.5 7 .283-3.242 1.117-3.576 2.5-1 1.827-1.987 2.827-4.32 3-7h1a41.54 41.54 0 0 1 1 8 8.43 8.43 0 0 1-.5 4c-1.395-1.315-2.395-.981-3 1-1.085 4.937-1.752 9.937-2 15l-3-10c-.383-.556-.883-.889-1.5-1-1.41-6.938-2.576-13.938-3.5-21a40.79 40.79 0 0 1-2.5-5.5 141.67 141.67 0 0 0 0-8.5c.44-2.344 1.44-4.344 3-6z"/><path fill="#9f5754" d="M138.5 76.5a97.49 97.49 0 0 0 10 16 11.74 11.74 0 0 1 3 5l-6-4c-.607.124-.94.457-1 1h-1-1v-1c-.918-5.819-2.918-11.153-6-16-1.433-4.808-.766-5.141 2-1z"/><path fill="#98454b" d="M169.5 54.5c-.418.722-1.084 1.222-2 1.5a.91.91 0 0 0 1 .5l7.5 15c2.93 1.755 6.097 2.922 9.5 3.5-8.83.399-8.83 1.899 0 4.5-.418.722-1.084 1.222-2 1.5a.91.91 0 0 0 1 .5c-1.098.897-1.098 1.73 0 2.5 4.717.308 8.384-1.525 11-5.5.904.709 1.237 1.709 1 3 1.291-.237 2.291.096 3 1v1c-.802 1.452-1.302 3.118-1.5 5l-5-3c-4.394 2.977-8.394 2.644-12-1-.456-1.244.044-2.077 1.5-2.5-1.466-.635-2.8-1.469-4-2.5-.607.124-.94.457-1 1l-9.5-21c-1.331-2.496-3.164-4.496-5.5-6l-4-6a.91.91 0 0 1 .5-1c2.858 3.714 6.358 6.38 10.5 8z"/><path fill="#cf7679" d="M195.5 78.5c-2.616 3.975-6.283 5.808-11 5.5-1.098-.77-1.098-1.603 0-2.5 3.421-1.876 7.088-2.876 11-3z"/><path fill="#aa6f4d" d="M227.5 77.5c2.679.025 4.012 1.358 4 4-.61.891-.943 1.891-1 3-.667 0-1 .333-1 1-2.396 1.712-5.062 2.212-8 1.5 2.729-.566 4.729-2.066 6-4.5 1.495.085 2.495-.582 3-2-1.493-.641-2.493-1.641-3-3z"/><path fill="#8d4d57" d="M241.5 73.5a20.69 20.69 0 0 1-1 5c-2.335 4.841-4.002 10.008-5 15.5.556 1.011 1.222 1.844 2 2.5-1.086.12-1.753.787-2 2a64.38 64.38 0 0 1-7.5 25c-2.064 1.091-4.231 1.258-6.5.5-.752-.671-1.086-1.504-1-2.5 0-.667.333-1 1-1 3.047 1.613 5.547.946 7.5-2 2.618-6.461 3.951-13.128 4-20-1.419 4.256-3.585 8.089-6.5 11.5-4.195.987-7.195-.513-9-4.5l-2-3c2.386.873 4.386 2.373 6 4.5 1.667.667 3.333.667 5 0 2.639-3.48 4.639-7.313 6-11.5-.457-.797-1.124-1.131-2-1 1.586-2.171 2.92-4.504 4-7 1.498-5.142 3.832-9.809 7-14z"/><path fill="#c3a34d" d="M203.5 81.5c.432 1.21 1.099 2.21 2 3-.275 2.342-1.108 2.342-2.5 0v4c-2.039-1.478-2.872-3.478-2.5-6 .709-.904 1.709-1.237 3-1z"/><path fill="#48251a" d="M206.5 77.5v1c-.991 1.623-.324 2.623 2 3 .841 1.879 1.175 3.879 1 6-.645 1.312-1.645 2.312-3 3a18.45 18.45 0 0 0-1-6c-.901-.79-1.568-1.79-2-3v-3c.891-.61 1.891-.943 3-1z"/><path fill="#e28d95" d="M136.5 77.5c3.082 4.847 5.082 10.181 6 16h-9c-.973-1.639-2.306-2.973-4-4l-3-6c1.083.039 2.083.373 3 1a26.6 26.6 0 0 0 2-3.5c2.407-.257 4.073-1.424 5-3.5z"/><path fill="#824f2b" d="M199.5 82.5h1c-.372 2.522.461 4.522 2.5 6v-4c1.392 2.342 2.225 2.342 2.5 0a18.45 18.45 0 0 1 1 6c1.355-.688 2.355-1.688 3-3 .543.06.876.393 1 1l-2 3c-3.185 1.537-5.852.87-8-2-.841-1.879-1.175-3.879-1-6v-1z"/><path fill="#cd7983" d="M162.5 53.5c2.336 1.504 4.169 3.504 5.5 6l9.5 21a79.07 79.07 0 0 1 3 12c-.623 14.22-1.623 28.554-3 43-1.516 7.399-3.35 14.732-5.5 22-.671.752-1.504 1.086-2.5 1 .322-5.858-.011-11.525-1-17l4.5-9c1.993-10.592 2.659-21.258 2-32 .033 9.302-1.3 18.302-4 27 .053-3.175-.78-5.842-2.5-8 1.188-.864 2.355-1.864 3.5-3 .692-.937.525-1.603-.5-2 1.078-8.159 1.078-16.159 0-24 .285-13.193-2.715-25.526-9-37z"/><path fill="#7b393f" d="M211.5 78.5c.79 1.109 1.29 2.442 1.5 4 1.423-5.121 2.423-5.121 3 0l3-4 3.5 5c1.716-.129 3.383-.462 5-1-1.271 2.434-3.271 3.934-6 4.5 2.938.712 5.604.212 8-1.5-1.667 2.333-3.667 4.333-6 6l-9-.5a4.45 4.45 0 0 0-2-1.5c-.989-3.607-1.323-7.274-1-11z"/><path fill="#3a1d1f" d="M213.5 86.5c.06-.543.393-.876 1-1a49.16 49.16 0 0 0 9 3.5c-3.743.695-7.076-.138-10-2.5z"/><path fill="#672934" d="M199.5 83.5c-.175 2.121.159 4.121 1 6-.992-.172-1.658.162-2 1-2.298-1.961-4.965-2.961-8-3-.284 1.915.049 3.581 1 5v4c.165 3.018-.002 6.018-.5 9l-1.5-17h-4c-.079 1.43.254 2.764 1 4-.308.808-.808 1.475-1.5 2l-3-7c-.654-1.196-1.154-1.196-1.5 0a259.86 259.86 0 0 0 7.5 25c1.045.873 1.878 1.873 2.5 3-2.953-.35-5.287.65-7 3 .05-8.84-.95-17.506-3-26a79.07 79.07 0 0 0-3-12c.06-.543.393-.876 1-1 1.2 1.031 2.534 1.865 4 2.5-1.456.423-1.956 1.256-1.5 2.5 3.606 3.644 7.606 3.977 12 1l5 3c.198-1.882.698-3.548 1.5-5z"/><path fill="#381920" d="M200.5 89.5c2.148 2.87 4.815 3.537 8 2v1c-.342.838-1.008 1.172-2 1-1.894-.482-3.561.185-5 2-.25-2.174-1.25-3.841-3-5 .342-.838 1.008-1.172 2-1z"/><path fill="#612c31" d="M209.5 71.5h1c.869 2.217 1.202 4.55 1 7-.323 3.726.011 7.393 1 11a4.45 4.45 0 0 1 2 1.5 149.15 149.15 0 0 1 9 .5c-3.178 2.72-6.845 3.554-11 2.5a11.34 11.34 0 0 1-1.5-3.5 7.06 7.06 0 0 1-2.5 2v-1l2-3c-.124-.607-.457-.94-1-1 .175-2.121-.159-4.121-1-6 1.05-.405 1.05-1.071 0-2-.457-.797-1.124-1.131-2-1v-1-2c1.673.843 2.84 2.176 3.5 4 .602-2.721.435-5.387-.5-8z"/><path fill="#8e4d37" d="M240.5 78.5c.186 8.396 2.519 9.063 7 2l1 1c-3.482 5.115-5.149 10.782-5 17h-1c-1.528-.809-3.194-1.476-5-2-.778-.656-1.444-1.489-2-2.5.998-5.492 2.665-10.659 5-15.5z"/><path fill="#87523c" d="M129.5 89.5c1.694 1.027 3.027 2.361 4 4a118.63 118.63 0 0 1 10 18c.342.838 1.008 1.172 2 1 .709.904 1.709 1.237 3 1-.708 3.19-2.708 4.69-6 4.5l3-3c-6.749 2.067-11.749 6.401-15 13 .07.765.403 1.265 1 1.5-.283.789-.783 1.456-1.5 2l-1-5c-1.615 2.405-2.281 2.405-2 0 4.612-5.232 9.779-9.899 15.5-14-2.66-5.99-5.826-11.656-9.5-17-1.145-1.184-2.312-1.184-3.5 0-1.542.801-3.208 1.134-5 1 .957-2.668 2.957-4.168 6-4.5-.752-.671-1.086-1.504-1-2.5z"/><path fill="#a85554" d="M154.5 78.5c3.287 7.468 6.12 15.134 8.5 23 .495 1.973.662 3.973.5 6-1.667-1-3-2.333-4-4-.601-3.869-2.268-7.202-5-10a4.45 4.45 0 0 1 2-1.5c-1.149-1.604-1.149-3.27 0-5-1.098-2.46-2.098-4.96-3-7.5.124-.607.457-.94 1-1z"/><path fill="#9a4750" d="M230.5 84.5c-.774 2.881-2.107 5.548-4 8 .688 1.355 1.688 2.355 3 3-3.155 4.409-7.488 6.409-13 6-.709-.904-1.709-1.237-3-1-1.249-1.636-2.916-2.803-5-3.5-1.323-.816-1.989-1.983-2-3.5.992.172 1.658-.162 2-1a7.06 7.06 0 0 0 2.5-2 11.34 11.34 0 0 0 1.5 3.5c4.155 1.054 7.822.22 11-2.5 2.333-1.667 4.333-3.667 6-6 0-.667.333-1 1-1z"/><path fill="#273439" d="M11.5 126.5c.768.763 1.268 1.763 1.5 3 .179-3.525.679-6.859 1.5-10-.319 4.863.014 9.53 1 14a29.22 29.22 0 0 0-1 9c-1.572 10.456-.906 20.79 2 31v3a103.09 103.09 0 0 0-.5 23l1.5-19a26.49 26.49 0 0 1 5 7c-2.153 7.651-5.82 14.484-11 20.5-4.082 1.293-7.249.126-9.5-3.5-.464.594-.631 1.261-.5 2-.605 16.143-.938 32.476-1 49h-1v-134c.991-6.813 1.325-13.813 1-21 .79-1.109 1.29-2.442 1.5-4l1 11c.906 2.112 2.406 2.945 4.5 2.5-.958-1.147-.625-2.147 1-3-1.503-2.344-2.169-4.677-2-7l2-4c-3.946-2.04-3.946-4.04 0-6-1.333-1-1.333-2 0-3-3.861-.569-3.861-1.402 0-2.5-1.001-2.839-1.001-5.506 0-8a242.5 242.5 0 0 1 0 44c-2.19 1.248-2.523 2.914-1 5-1.776.815-2.443 1.982-2 3.5 1.543 2.617 3.376 4.117 5.5 4.5a24.94 24.94 0 0 0 .5-7z"/><path fill="#c0745a" d="M129.5 95.5c.477 6.011 1.144 12.011 2 18 4.842-1.392 5.175-.725 1 2-.06-.543-.393-.876-1-1-1.238 2.137-3.071 3.471-5.5 4l-1.5-22c1.792.134 3.458-.199 5-1z"/><path fill="#c57666" d="M151.5 97.5c.233 1.562.9 2.895 2 4-1.977-1.372-3.644-1.038-5 1-2.271-2.112-3.604-4.779-4-8 .06-.543.393-.876 1-1l6 4z"/><path fill="#697472" d="M26.5 78.5h1v3c-3.873 7.803-6.373 16.136-7.5 25-.49-1.293-.657-2.627-.5-4v-4l7-20z"/><path fill="#db8c8f" d="M171.5 90.5c1.078 7.841 1.078 15.841 0 24h-4c-1.154-10.292-3.154-20.458-6-30.5a22.19 22.19 0 0 0 2-6c-.77-3.914-1.77-7.747-3-11.5-.131-.739.036-1.406.5-2 1.92 2.839 3.587 5.839 5 9l5.5 17z"/><path fill="#8b3c47" d="M198.5 90.5c1.75 1.159 2.75 2.826 3 5 .447 3.024 1.28 3.357 2.5 1 4.198 5.24 6.865 11.24 8 18 .976-4.418.476-8.585-1.5-12.5.183-1.684.85-1.85 2-.5.515 2.394 1.181 4.728 2 7-.824 3.812-1.324 7.812-1.5 12-2.484-2.759-3.65-2.426-3.5 1l-5-16c.131-.876-.202-1.543-1-2l-2 8a57.14 57.14 0 0 0-3.5-18l-6-4c-.483.948-.649 1.948-.5 3-.951-1.419-1.284-3.085-1-5 3.035.039 5.702 1.039 8 3z"/><path fill="#171a22" d="M230.5 94.5c.876-.131 1.543.203 2 1-1.361 4.187-3.361 8.02-6 11.5-1.667.667-3.333.667-5 0-1.614-2.127-3.614-3.627-6-4.5 0-.667.333-1 1-1 5.512.409 9.845-1.591 13-6 .667 0 1-.333 1-1z"/><path fill="#ec9d97" d="M133.5 93.5h9v1a335.78 335.78 0 0 1 2 12.5c-.008 1.707-.342 3.207-1 4.5a118.63 118.63 0 0 0-10-18z"/><path fill="#c87865" d="M142.5 94.5h1c1.957 5.832 2.957 11.832 3 18h-1c-.992.172-1.658-.162-2-1 .658-1.293.992-2.793 1-4.5a335.78 335.78 0 0 0-2-12.5z"/><path fill="#813749" d="M191.5 96.5c.452 9.136 2.118 18.136 5 27a35.06 35.06 0 0 0-6-8c-.622-1.127-1.455-2.127-2.5-3a259.86 259.86 0 0 1-7.5-25c.346-1.196.846-1.196 1.5 0l3 7c.692-.525 1.192-1.192 1.5-2-.746-1.236-1.079-2.57-1-4h4l1.5 17c.498-2.982.665-5.982.5-9z"/><path fill="#2d3c41" d="M12.5-.5h3l-1 120c-.821 3.141-1.321 6.475-1.5 10-.232-1.237-.732-2.237-1.5-3l1-74v-53z"/><path fill="#dfa082" d="M153.5 101.5a110.36 110.36 0 0 1 8 9.5.91.91 0 0 1-1 .5h-3c-3.915-1.915-6.915-4.915-9-9 1.356-2.038 3.023-2.372 5-1z"/><path fill="#514947" d="M27.5 81.5v2c-1.157 4.964-2.157 9.964-3 15a534.6 534.6 0 0 1-4.5 19c-.757 1.815-1.59 3.481-2.5 5-.103-6.886.564-13.553 2-20-.157 1.373.01 2.707.5 4 1.127-8.864 3.627-17.197 7.5-25z"/><path fill="#f3b0ad" d="M67.5 94.5a100.24 100.24 0 0 0-2.5 19c-.417 1.256-1.25 1.923-2.5 2a4.93 4.93 0 0 0-.5-3l-1 7c-.953-2.932-1.453-5.932-1.5-9v-17c1.431-.381 2.264-1.381 2.5-3a7.29 7.29 0 0 1 2 3l1-4 1 6c.383-.556.883-.889 1.5-1z"/><path fill="#672a33" d="M206.5 93.5c.011 1.517.677 2.684 2 3.5 2.084.697 3.751 1.864 5 3.5-.667 0-1 .333-1 1-1.15-1.35-1.817-1.184-2 .5 1.976 3.915 2.476 8.082 1.5 12.5-1.135-6.76-3.802-12.76-8-18-1.22 2.357-2.053 2.024-2.5-1 1.439-1.815 3.106-2.482 5-2z"/><path fill="#a96e53" d="M242.5 98.5h1c-.149 1.052.017 2.052.5 3 4.075 4.565 7.909 9.232 11.5 14v50c-4.396 7.11-9.063 14.11-14 21a232.45 232.45 0 0 0-13 12.5c-1.269-.109-2.269.058-3 .5-2.042 2.213-4.375 2.88-7 2 3.3-3.135 6.467-6.469 9.5-10 .422-2.736.422-5.402 0-8 2.292 1.101 3.792.268 4.5-2.5l-1-1a10.26 10.26 0 0 0 4-1.5c-2.576-1.383-2.242-2.217 1-2.5a20.5 20.5 0 0 1 2.5-3.5l1 1c.687-2.068.52-4.068-.5-6 2.267-2.61 4.267-5.444 6-8.5-.845-1.558-.179-2.558 2-3-.666-2.293-1.999-4.626-4-7a18.45 18.45 0 0 1 5-6l-3-1c1.921-1.241 2.254-2.741 1-4.5-.951.826-1.951.992-3 .5 2.237-3.114 4.903-5.781 8-8-1.581-.707-3.081-1.54-4.5-2.5l-1 2c-1.204-.971-1.704-1.971-1.5-3a7.49 7.49 0 0 0-.5 5c-2.113-3.202-4.613-3.202-7.5 0-2.283 4.897-4.283 9.897-6 15-.825.886-1.825 1.219-3 1v-2c8.376-14.465 13.376-30.132 15-47z"/><path fill="#e3d3c5" d="M24.5 98.5c1.487 7.214 1.154 14.214-1 21 .16-1.699-.006-3.366-.5-5a103.31 103.31 0 0 0-7.5 29c-.667 0-1-.333-1-1a29.22 29.22 0 0 1 1-9c.826-3.636 1.492-7.303 2-11 .91-1.519 1.743-3.185 2.5-5a534.6 534.6 0 0 0 4.5-19z"/><path fill="#e6979c" d="M70.5 78.5v1c-.193 4.066.14 8.066 1 12-1.617 1.089-2.45 2.756-2.5 5-.172 6.846-.672 13.513-1.5 20-1.294.79-2.461 1.79-3.5 3-.41-1.401-.91-2.734-1.5-4 1.25-.077 2.083-.744 2.5-2a100.24 100.24 0 0 1 2.5-19v-3a51.64 51.64 0 0 1 1-7l2-6z"/><path fill="#935842" d="M143.5 94.5h1c.396 3.221 1.729 5.888 4 8 2.085 4.085 5.085 7.085 9 9h-5c-2.609-6.059-3.942-6.059-4 0l-2 1c-.043-6.168-1.043-12.168-3-18z"/><path fill="#d1816c" d="M152.5 111.5h-4c.058-6.059 1.391-6.059 4 0z"/><path fill="#8d5443" d="M151.5 97.5a35.07 35.07 0 0 0 8 6c1 1.667 2.333 3 4 4 .565 2.452 1.232 4.785 2 7 1.12 3.816 1.12 7.483 0 11l-2 1v-2-5c-.011-1.517-.677-2.684-2-3.5 2.638-2.093 2.304-3.593-1-4.5a.91.91 0 0 0 1-.5 110.36 110.36 0 0 0-8-9.5c-1.1-1.105-1.767-2.438-2-4z"/><path fill="#181d29" d="M221.5 120.5c-1.672-2.522-3.172-5.188-4.5-8-.796-2.539-.629-4.872.5-7 1.805 3.987 4.805 5.487 9 4.5 2.915-3.411 5.081-7.244 6.5-11.5-.049 6.872-1.382 13.539-4 20-1.953 2.946-4.453 3.613-7.5 2z"/><path fill="#e39292" d="M120.5 82.5c.907 2.157 1.573 4.49 2 7 .823 1.955.99 3.955.5 6-1.635 1.226-3.135 2.559-4.5 4 1.829.782 3.329.116 4.5-2 .5 7.993.666 15.993.5 24v5a63.31 63.31 0 0 1-4-8c-3.318-12.892-4.985-12.892-5 0-.722.418-1.222 1.084-1.5 2-2.573-1.306-4.906-2.973-7-5-1.202 2.053-1.536 4.053-1 6-3.241-2.859-6.741-5.359-10.5-7.5a8.43 8.43 0 0 0-4-.5c.231 3.793 1.564 7.126 4 10-.597.235-.93.735-1 1.5a55.71 55.71 0 0 1 4 9.5c-.838.342-1.172 1.008-1 2a28.07 28.07 0 0 1-5-5c-3.079-5.827-5.912-11.827-8.5-18-1.861-1.373-3.695-1.706-5.5-1-.177-1.195-.511-2.362-1-3.5 2.386-1.852 3.553-4.352 3.5-7.5 3.167 2.327 6.167 2.327 9 0 .811 1.46 1.645 1.793 2.5 1-2.404-3.396-3.904-7.063-4.5-11a18.94 18.94 0 0 1 3 5c.317-1.801.984-2.134 2-1 1.38 5.209 4.546 8.543 9.5 10a60.88 60.88 0 0 1 3.5-10c1.264 2.107 3.097 3.107 5.5 3v-7c.617.111 1.117.444 1.5 1l3 10c.248-5.063.915-10.063 2-15 .605-1.981 1.605-2.315 3-1a8.43 8.43 0 0 0 .5-4z"/><path fill="#874035" d="M119.5 118.5c.131.739-.036 1.406-.5 2l-2-6c-.057 3.351-.891 6.351-2.5 9v-5c.015-12.892 1.682-12.892 5 0z"/><path fill="#e79697" d="M55.5 63.5c0 .667.333 1 1 1a73.87 73.87 0 0 0-5 21c-1.487 10.606-.987 21.272 1.5 32 .599-9.386 2.599-18.386 6-27a4.93 4.93 0 0 1 .5 3v17c-1.268 4.022-1.268 8.189 0 12.5-.501 3.048-1.834 5.548-4 7.5-.701-3.801-1.868-7.468-3.5-11a24.94 24.94 0 0 0-.5 7c-1.676-3.19-2.676-6.69-3-10.5 1.178-5.66 1.178-11.16 0-16.5.194-12.512 2.527-24.512 7-36z"/><path fill="#2c1915" d="M148.5 111.5h4 5 3c3.304.907 3.638 2.407 1 4.5 1.323.816 1.989 1.983 2 3.5-2.426-1.718-5.093-2.218-8-1.5 2.788 2.523 4.121 5.69 4 9.5.284 1.915-.049 3.581-1 5-.667 0-1-.333-1-1 .268-1.599-.066-2.932-1-4-.751-4.825-3.585-7.825-8.5-9-1.459.308-2.626.975-3.5 2-3.321.598-4.321 2.265-3 5 0 2-1 3-3 3 .172-.992-.162-1.658-1-2-.17-1.322.163-2.489 1-3.5-3.343.835-5.677 3.001-7 6.5-.597-.235-.93-.735-1-1.5 3.251-6.599 8.251-10.933 15-13l-3 3c3.292.19 5.292-1.31 6-4.5-1.291.237-2.291-.096-3-1h1l2-1z"/><path fill="#fbd4ca" d="M48.5 99.5c1.178 5.34 1.178 10.84 0 16.5.324 3.81 1.324 7.31 3 10.5-.052 2.403.281 4.736 1 7a4.93 4.93 0 0 1-.5 3c-3.57-5.036-6.404-10.369-8.5-16a8.8 8.8 0 0 1 1.5-5l2 2c.302-6.033.802-12.033 1.5-18z"/><path fill="#7b3d33" d="M71.5 91.5l1 9c.157 1.373-.01 2.707-.5 4l-1-6c-1.517 5.58-1.851 11.247-1 17a8.01 8.01 0 0 1 5.5-2v1c-.667 0-1 .333-1 1-4.148.334-5.815 2.667-5 7l-2-5v-1c.828-6.487 1.328-13.154 1.5-20 .05-2.244.883-3.911 2.5-5z"/><path fill="#eca6a2" d="M75.5 113.5c2.235-.295 4.235.039 6 1l3 18c-1.175.219-2.175-.114-3-1a176.18 176.18 0 0 1-6-17v-1z"/><path fill="#c97475" d="M201.5 111.5v27c-.722 1.051-1.722 1.718-3 2a98.43 98.43 0 0 0-.5-14c-.278-.916-.778-1.582-1.5-2v-1c-2.882-8.864-4.548-17.864-5-27v-4c-.149-1.052.017-2.052.5-3l6 4a57.14 57.14 0 0 1 3.5 18z"/><path fill="#a25e48" d="M129.5 89.5c-.086.996.248 1.829 1 2.5-3.043.332-5.043 1.832-6 4.5l1.5 22c2.429-.529 4.262-1.863 5.5-4 .607.124.94.457 1 1-2.393 2.236-4.227 4.903-5.5 8-.335-2.69-1.501-3.357-3.5-2 .166-8.007 0-16.007-.5-24-1.171 2.116-2.671 2.782-4.5 2 1.365-1.441 2.865-2.774 4.5-4 .49-2.045.323-4.045-.5-6 .809-1.792 1.309-3.792 1.5-6 1.617 2.263 3.45 4.263 5.5 6z"/><path fill="#b46a5d" d="M165.5 114.5h2 4c1.025.397 1.192 1.063.5 2-1.145 1.136-2.312 2.136-3.5 3a273.02 273.02 0 0 1-4 23c.532-5.652.865-11.319 1-17 1.12-3.517 1.12-7.184 0-11z"/><path fill="#bf723e" d="M190.5 115.5a35.06 35.06 0 0 1 6 8v1a12.99 12.99 0 0 0 1 5.5c-.308 1.459-.975 2.626-2 3.5a32.46 32.46 0 0 0-.5-8c-.278-.916-.778-1.582-1.5-2-2.406-6.139-5.406-6.473-9-1h-1v-4c1.713-2.35 4.047-3.35 7-3z"/><path fill="#4b2531" d="M213.5 100.5c1.291-.237 2.291.096 3 1-.667 0-1 .333-1 1l2 3c-1.129 2.128-1.296 4.461-.5 7 1.328 2.812 2.828 5.478 4.5 8-.667 0-1 .333-1 1h-1c-3.025-3.761-4.691-8.095-5-13-.819-2.272-1.485-4.606-2-7 0-.667.333-1 1-1z"/><path fill="#a2624e" d="M75.5 114.5a176.18 176.18 0 0 0 6 17c.825.886 1.825 1.219 3 1 3.078.73 6.078 1.897 9 3.5l-7-.5c-1.765-.961-3.765-1.295-6-1-1.234-5.383-3.234-10.383-6-15v-4c0-.667.333-1 1-1z"/><path fill="#c88b61" d="M144.5 120.5c.543.06.876.393 1 1-1.13 1.122-1.797 2.456-2 4h-1-1c-1.321-2.735-.321-4.402 3-5z"/><path fill="#9f5748" d="M72.5 100.5c1.295 3.767 1.961 7.767 2 12h3c1.805-.706 3.639-.373 5.5 1 2.588 6.173 5.421 12.173 8.5 18-2.296-1.901-4.129-4.234-5.5-7-1.275-3.542-2.775-6.875-4.5-10-1.765-.961-3.765-1.295-6-1a8.01 8.01 0 0 0-5.5 2c-.851-5.753-.517-11.42 1-17l1 6c.49-1.293.657-2.627.5-4z"/><path fill="#91522a" d="M156.5 127.5c-1.052.149-2.052-.017-3-.5a22.73 22.73 0 0 0-4.5-6.5c-1.93 1.577-1.763 2.91.5 4-1.333 0-2 .667-2 2-1.599.268-2.932-.066-4-1 .203-1.544.87-2.878 2-4-.124-.607-.457-.94-1-1 .874-1.025 2.041-1.692 3.5-2 4.915 1.175 7.749 4.175 8.5 9z"/><path fill="#b39e98" d="M163.5 119.5v5h-3c.237 1.291-.096 2.291-1 3 .121-3.81-1.212-6.977-4-9.5 2.907-.718 5.574-.218 8 1.5z"/><path fill="#da8b8b" d="M180.5 92.5c2.05 8.494 3.05 17.16 3 26v4c.302 2.559-.032 4.893-1 7 .163-2.357-.003-4.69-.5-7-.416 4.806-1.916 9.139-4.5 13 1.377-14.446 2.377-28.78 3-43z"/><path fill="#954a56" d="M214.5 108.5c.309 4.905 1.975 9.239 5 13l4 15c.141 3.593.808 7.093 2 10.5-.273 1.533-.606 3.033-1 4.5-.997.03-1.664-.47-2-1.5a172.21 172.21 0 0 1-7.5-27.5c-.534 4.359-.368 8.692.5 13-.648 7.961-1.815 15.961-3.5 24l-1-26c-.181 3.195-.681 6.195-1.5 9v-21c-.15-3.426 1.016-3.759 3.5-1 .176-4.188.676-8.188 1.5-12z"/><path fill="#6d3125" d="M193.5 123.5c-1.294-.79-2.461-1.79-3.5-3-3.174 2.915-2.674 5.415 1.5 7.5-1.917-.027-3.584-.861-5-2.5a4.85 4.85 0 0 0-1 4c.854 1.535.854 2.868 0 4 0-.667-.333-1-1-1v-10c3.594-5.473 6.594-5.139 9 1z"/><path fill="#c27077" d="M204.5 105.5l5 16v21c-.362 5.807-1.362 11.474-3 17-.646-15.041-1.646-30.208-3-45.5.002-3.021.336-5.854 1-8.5z"/><path fill="#eba097" d="M114.5 118.5v5c.256 2.292-.077 4.459-1 6.5-1.887.163-3.387-.671-4.5-2.5.316 2.954.816 5.954 1.5 9h-2c-6.545-2.208-11.211-6.541-14-13-2.436-2.874-3.769-6.207-4-10a8.43 8.43 0 0 1 4 .5c3.759 2.141 7.259 4.641 10.5 7.5-.536-1.947-.202-3.947 1-6 2.094 2.027 4.427 3.694 7 5 .278-.916.778-1.582 1.5-2z"/><path fill="#18202c" d="M237.5 96.5c1.806.524 3.472 1.191 5 2-1.624 16.868-6.624 32.535-15 47-.542-3.412-1.875-6.412-4-9l-4-15h1c-.086.996.248 1.829 1 2.5 2.269.758 4.436.591 6.5-.5a64.38 64.38 0 0 0 7.5-25c.247-1.213.914-1.88 2-2z"/><path fill="#3e2b20" d="M149.5 124.5c1.466 2.135 1.3 4.135-.5 6-.791-1.245-1.291-2.578-1.5-4 0-1.333.667-2 2-2z"/><path fill="#b4684a" d="M74.5 115.5v4c-.99 5.81-1.323 11.81-1 18h-2a69.93 69.93 0 0 1-2-15c-.815-4.333.852-6.666 5-7z"/><path fill="#e19645" d="M156.5 127.5c.934 1.068 1.268 2.401 1 4-.628 2.162-1.961 3.828-4 5 .086-.996-.248-1.829-1-2.5-2.5-.885-4.833-2.052-7-3.5-.527 2.293-.194 4.627 1 7-.31 1.238-.81 1.238-1.5 0-.21-1.558-.71-2.891-1.5-4-.888-2.554-1.221-5.221-1-8h1c1.068.934 2.401 1.268 4 1 .209 1.422.709 2.755 1.5 4 1.8-1.865 1.966-3.865.5-6-2.263-1.09-2.43-2.423-.5-4a22.73 22.73 0 0 1 4.5 6.5c.948.483 1.948.649 3 .5z"/><path fill="#ded0c3" d="M163.5 124.5v2l-2 8c-1.291.237-2.291-.096-3-1v-1c.951-1.419 1.284-3.085 1-5 .904-.709 1.237-1.709 1-3h3z"/><path fill="#f6adab" d="M43.5 120.5c2.096 5.631 4.93 10.964 8.5 16a4.93 4.93 0 0 0 .5-3c.951 1.419 1.285 3.085 1 5a14.74 14.74 0 0 1-2 1 238.79 238.79 0 0 0 7 18c-.667 1.333-1.333 1.333-2 0-1.306-3.946-3.139-7.612-5.5-11 .532 2.614.865 5.28 1 8-1.713-1.378-3.047-3.045-4-5-.87 4.139-.037 7.806 2.5 11-.172.992.162 1.658 1 2 1.179 4.384 2.513 8.717 4 13h-2c-3.002-1.792-4.835-4.459-5.5-8-2.154-7.274-3.987-14.607-5.5-22a41.74 41.74 0 0 0-1-9c1.051-5.146 1.718-10.479 2-16z"/><path fill="#e29591" d="M67.5 117.5l2 5a69.93 69.93 0 0 0 2 15c-.17 1.322.163 2.489 1 3.5-1.077.47-2.077.303-3-.5a72.21 72.21 0 0 1-7-15 4.93 4.93 0 0 1 .5-3c1.707-1.537 3.207-3.204 4.5-5z"/><path fill="#e5a391" d="M74.5 119.5c2.766 4.617 4.766 9.617 6 15 2.235-.295 4.235.039 6 1l-11 2h-2c-.323-6.19.01-12.19 1-18z"/><path fill="#823b29" d="M141.5 125.5h1c-.221 2.779.112 5.446 1 8l-1 2c-2.169-1.84-3.502-4.174-4-7 2 0 3-1 3-3z"/><path fill="#d47f80" d="M59.5 110.5c.047 3.068.547 6.068 1.5 9l1-7a4.93 4.93 0 0 1 .5 3c.59 1.266 1.09 2.599 1.5 4 1.039-1.21 2.206-2.21 3.5-3v1c-1.293 1.796-2.793 3.463-4.5 5a4.93 4.93 0 0 0-.5 3c-1.395 7.458-2.229 15.125-2.5 23l-1.5-3c-.678-5.072-1.678-10.072-3-15 2.166-1.952 3.499-4.452 4-7.5-1.268-4.311-1.268-8.478 0-12.5z"/><path fill="#bf6b5b" d="M119.5 118.5a63.31 63.31 0 0 0 4 8c.42 2.174.42 4.174 0 6-3.232-10.798-4.732-10.465-4.5 1 1.205.571 2.372 1.238 3.5 2-1.924.067-3.924.4-6 1a7.25 7.25 0 0 0 2 2.5c-2.458-1.038-5.125-1.871-8-2.5-.684-3.046-1.184-6.046-1.5-9 1.113 1.829 2.613 2.663 4.5 2.5.923-2.041 1.256-4.208 1-6.5 1.609-2.649 2.443-5.649 2.5-9l2 6c.464-.594.631-1.261.5-2z"/><path fill="#964d2c" d="M157.5 131.5c0 .667.333 1 1 1v1c-1.274.689-1.274 1.523 0 2.5-1.525 1.009-3.192 1.509-5 1.5v-1c2.039-1.172 3.372-2.838 4-5z"/><path fill="#e8a5a2" d="M168.5 141.5l-5 10c-.667 1.333-1.667 2.333-3 3v-2c2.681-2.692 4.014-6.025 4-10a273.02 273.02 0 0 0 4-23c1.72 2.158 2.553 4.825 2.5 8 2.7-8.698 4.033-17.698 4-27 .659 10.742-.007 21.408-2 32l-4.5 9z"/><path fill="#dea582" d="M131.5 129.5c1.323-3.499 3.657-5.665 7-6.5-.837 1.011-1.17 2.178-1 3.5-5.995 6.356-4.662 10.69 4 13a3 3 0 0 1-2 2c-2.422-.971-4.756-1.805-7-2.5l4 4c-.626.75-1.126 1.584-1.5 2.5-1.566-.561-2.899.106-4 2l-1-1c-.265 1.663.235 3.163 1.5 4.5-.775 1.23-1.775 1.563-3 1 .241-1.562-.259-3.062-1.5-4.5l-1 4c-.29-1.544-.956-2.877-2-4 .427 2.593.594 5.093.5 7.5-2.497 3-5.164 3.167-8 .5-2.693-5.001-6.026-9.335-10-13 1.238-.31 1.238-.81 0-1.5a20.64 20.64 0 0 1 6-2c-1.82-.2-3.153-1.034-4-2.5h2c2.875.629 5.542 1.462 8 2.5a7.25 7.25 0 0 1-2-2.5c2.076-.6 4.076-.933 6-1-1.128-.762-2.295-1.429-3.5-2-.232-11.465 1.268-11.798 4.5-1 .42-1.826.42-3.826 0-6v-5c1.999-1.357 3.165-.69 3.5 2 1.273-3.097 3.107-5.764 5.5-8 4.175-2.725 3.842-3.392-1-2-.856-5.989-1.523-11.989-2-18 1.188-1.184 2.355-1.184 3.5 0 3.674 5.344 6.84 11.01 9.5 17-5.721 4.101-10.888 8.768-15.5 14-.281 2.405.385 2.405 2 0l1 5c.717-.544 1.217-1.211 1.5-2z"/><path fill="#edd9c8" d="M137.5 126.5c.838.342 1.172 1.008 1 2 .498 2.826 1.831 5.16 4 7 .854 1.535.854 2.868 0 4h-1c-8.662-2.31-9.995-6.644-4-13z"/><path fill="#743943" d="M224.5 151.5v1c-.882 4.093-2.549 7.76-5 11-.562-3.568-1.895-3.902-4-1 1.95-8.211 2.45-16.545 1.5-25-.278-.916-.778-1.582-1.5-2-.868-4.308-1.034-8.641-.5-13a172.21 172.21 0 0 0 7.5 27.5c.336 1.03 1.003 1.53 2 1.5z"/><path fill="#f8d66b" d="M153.5 136.5v1h-7c-1.194-2.373-1.527-4.707-1-7 2.167 1.448 4.5 2.615 7 3.5.752.671 1.086 1.504 1 2.5z"/><path fill="#db9374" d="M165.5 125.5c-.135 5.681-.468 11.348-1 17 .014 3.975-1.319 7.308-4 10 .528-1.347.695-2.681.5-4h-6l-5.5-5.5c.667-1.333 1.667-2.333 3-3-3.026-1.732-6.026-1.566-9 .5-.607-.124-.94-.457-1-1 .854-1.132.854-2.465 0-4l1-2c.79 1.109 1.29 2.442 1.5 4 .69 1.238 1.19 1.238 1.5 0h7c1.808.009 3.475-.491 5-1.5-1.274-.977-1.274-1.811 0-2.5.709.904 1.709 1.237 3 1l2-8 2-1z"/><path fill="#bd6469" d="M55.5 130.5c1.322 4.928 2.322 9.928 3 15-.722-.418-1.222-1.084-1.5-2a.91.91 0 0 0-.5 1c-.703-2.129-1.703-4.129-3-6 .285-1.915-.049-3.581-1-5-.719-2.264-1.052-4.597-1-7a24.94 24.94 0 0 1 .5-7c1.632 3.532 2.799 7.199 3.5 11z"/><path fill="#b7714e" d="M81.5 114.5c1.725 3.125 3.225 6.458 4.5 10 1.371 2.766 3.204 5.099 5.5 7a28.07 28.07 0 0 0 5 5c.561 2.775 2.227 4.608 5 5.5-3.861.569-3.861 1.402 0 2.5l-.5 1c-.977-1.274-1.811-1.274-2.5 0-5.982-6.796-13.649-9.462-23-8l11-2c2.415.127 4.749.293 7 .5-2.922-1.603-5.922-2.77-9-3.5l-3-18z"/><path fill="#b26148" d="M94.5 123.5c2.789 6.459 7.455 10.792 14 13 .847 1.466 2.18 2.3 4 2.5a20.64 20.64 0 0 0-6 2c1.238.69 1.238 1.19 0 1.5-3.426-2.18-6.426-4.847-9-8a55.71 55.71 0 0 0-4-9.5c.07-.765.403-1.265 1-1.5z"/><path fill="#c27656" d="M193.5 123.5c.722.418 1.222 1.084 1.5 2a32.46 32.46 0 0 1 .5 8c.067 1.459-.266 2.792-1 4a45.41 45.41 0 0 1-8 8 8.43 8.43 0 0 1 .5-4c6.287-4.853 5.787-8.853-1.5-12a4.85 4.85 0 0 1 1-4c1.416 1.639 3.083 2.473 5 2.5-4.174-2.085-4.674-4.585-1.5-7.5 1.039 1.21 2.206 2.21 3.5 3z"/><path fill="#8a4f43" d="M62.5 125.5a72.21 72.21 0 0 0 7 15c-.891.61-1.891.943-3 1l1-2c-1.419-1.836-2.586-3.836-3.5-6-1.666 6.438-2.166 12.771-1.5 19-.342.838-1.008 1.172-2 1-2.125-2.588-3.458-5.588-4-9a.91.91 0 0 1 .5-1c.278.916.778 1.582 1.5 2l1.5 3c.271-7.875 1.105-15.542 2.5-23z"/><path fill="#e28b7b" d="M66.5 141.5c-.876-.131-1.543.202-2 1 1.153 1.187 1.153 2.187 0 3-.907 2.157-1.573 4.49-2 7-.666-6.229-.166-12.562 1.5-19 .914 2.164 2.081 4.164 3.5 6-.363.683-.696 1.35-1 2z"/><path fill="#944934" d="M185.5 129.5c7.287 3.147 7.787 7.147 1.5 12a8.43 8.43 0 0 0-.5 4c0 .667-.333 1-1 1v-13c.854-1.132.854-2.465 0-4z"/><path fill="#e9a0a0" d="M182.5 129.5c.292 10.546-.375 20.879-2 31a.91.91 0 0 0-.5-1c-.915.828-1.581 1.828-2 3-.419-1.172-1.085-2.172-2-3l-3 7c-.276-3.83-1.442-4.496-3.5-2v-6c.996.086 1.829-.248 2.5-1 2.15-7.268 3.984-14.601 5.5-22 2.584-3.861 4.084-8.194 4.5-13 .497 2.31.663 4.643.5 7z"/><path fill="#291712" d="M71.5 137.5h2 2c9.351-1.462 17.018 1.204 23 8 .841 1.879 1.175 3.879 1 6-.667 0-1-.333-1-1s-.333-1-1-1c.153-3.035-1.18-5.035-4-6-1.765-.961-3.765-1.295-6-1h-2c-1.984-.016-2.984.984-3 3 .404 2.2.57 4.534.5 7a10.76 10.76 0 0 0 2.5 3c-.457.798-1.124 1.131-2 1a37.16 37.16 0 0 1-4-7c.308-2.424-.026-4.757-1-7-.683.363-1.35.696-2 1-3.715-.287-6.049 1.38-7 5-1.457-2.252-2.957-1.919-4.5 1-.49-1.293-.657-2.627-.5-4 1.153-.813 1.153-1.813 0-3 .457-.798 1.124-1.131 2-1 1.109-.057 2.109-.39 3-1 .923.803 1.923.97 3 .5-.837-1.011-1.17-2.178-1-3.5z"/><path fill="#ae7156" d="M218.5 201.5c-.689 1.274-1.523 1.274-2.5 0-.308.808-.808 1.475-1.5 2-1.821-1.743-3.821-3.243-6-4.5-.366-4.804.301-9.804 2-15-.752-.671-1.086-1.504-1-2.5.057-1.109.39-2.109 1-3a166.43 166.43 0 0 0 9-15c2.451-3.24 4.118-6.907 5-11 1.237-1.465 2.237-3.132 3-5 1.175.219 2.175-.114 3-1 1.717-5.103 3.717-10.103 6-15 2.887-3.202 5.387-3.202 7.5 0a7.49 7.49 0 0 1 .5-5c-.204 1.029.296 2.029 1.5 3l1-2c1.419.96 2.919 1.793 4.5 2.5-3.097 2.219-5.763 4.886-8 8 1.049.492 2.049.326 3-.5 1.254 1.759.921 3.259-1 4.5l3 1a18.45 18.45 0 0 0-5 6c2.001 2.374 3.334 4.707 4 7-2.179.442-2.845 1.442-2 3-1.733 3.056-3.733 5.89-6 8.5 1.02 1.932 1.187 3.932.5 6l-1-1a20.5 20.5 0 0 0-2.5 3.5c-3.242.283-3.576 1.117-1 2.5a10.26 10.26 0 0 1-4 1.5l1 1c-.708 2.768-2.208 3.601-4.5 2.5.422 2.598.422 5.264 0 8-3.033 3.531-6.2 6.865-9.5 10z"/><path fill="#dda484" d="M160.5 152.5v2c-2.112 2.563-4.779 4.396-8 5.5 2.009-.594 4.009-.427 6 .5 1.649-1.148 3.149-2.481 4.5-4-.486 5.44-3.32 9.273-8.5 11.5 2.288.418 4.288-.249 6-2a109.44 109.44 0 0 1 6.5-7.5 8.43 8.43 0 0 1 .5 4v1c-1.926 4.582-4.26 8.916-7 13-1.333.667-2.333 1.667-3 3-3.284 1.617-5.951 3.95-8 7-4.791 4.235-10.125 7.735-16 10.5-5.323.499-10.656.666-16 .5h-6c-4.213-.582-8.213-1.582-12-3 3.949-.193 3.949-.693 0-1.5.457-.414.791-.914 1-1.5-2.124-.649-4.124-1.483-6-2.5 1.431-.465 2.597-1.299 3.5-2.5 1.751 1.309 3.251.975 4.5-1 1.032 1.54 2.365 2.04 4 1.5l-1-1c1.049-.492 2.049-.326 3 .5l2-2c1.236.746 2.57 1.079 4 1 .117-1.984-.55-3.65-2-5 .928-1.268 1.095-2.601.5-4-.654 1.196-1.154 1.196-1.5 0 1.284-2.512 2.284-2.512 3 0-.271 1.88.396 3.213 2 4 .79.901 1.79 1.568 3 2 9.132 4.273 15.466 1.606 19-8v-1h1c1.926-.298 3.759-.298 5.5 0 .617-.949.451-1.782-.5-2.5.808-.308 1.475-.808 2-1.5-.763-1.219-1.763-2.219-3-3l3-4-4-3c.525-.692 1.192-1.192 2-1.5-2.025-1.677-4.359-2.677-7-3 3.446-1.963 3.446-3.296 0-4 .845-1.558.179-2.558-2-3 2.404-.508 3.071-1.675 2-3.5l2-3a3 3 0 0 0 2-2h1c.06.543.393.876 1 1 2.974-2.066 5.974-2.232 9-.5-1.333.667-2.333 1.667-3 3l5.5 5.5h6c.195 1.319.028 2.653-.5 4z"/><path fill="#914545" d="M196.5 124.5c.722.418 1.222 1.084 1.5 2a98.43 98.43 0 0 1 .5 14c.166 5.344-.001 10.677-.5 16-1.692 3.24-2.859 6.573-3.5 10 1.136-9.824 1.136-19.491 0-29 .734-1.208 1.067-2.541 1-4 1.025-.874 1.692-2.041 2-3.5a12.99 12.99 0 0 1-1-5.5z"/><path fill="#47292f" d="M223.5 136.5c2.125 2.588 3.458 5.588 4 9v2c-.763 1.868-1.763 3.535-3 5v-1l1-4.5c-1.192-3.407-1.859-6.907-2-10.5z"/><path fill="#efa19d" d="M41.5 133.5v3a41.74 41.74 0 0 1 1 9c-1.459 9.602-1.126 19.269 1 29-.768-.763-1.268-1.763-1.5-3a4.93 4.93 0 0 0-.5 3c-1.446-2.754-2.446-5.754-3-9-.538-1.617-.871-3.284-1-5a19.24 19.24 0 0 0-1-6c.831-11.159 1.331-22.493 1.5-34l1 17a51.19 51.19 0 0 0 2.5-4z"/><path fill="#ddae89" d="M85.5 142.5h2c1.125 1.152 1.125 2.152 0 3-1.548-.321-2.215-1.321-2-3z"/><path fill="#55301e" d="M87.5 142.5c2.235-.295 4.235.039 6 1-3.098-.087-3.432.413-1 1.5-2.354 1.378-2.354 2.878 0 4.5-.247 1.213-.914 1.88-2 2l-2-4-1-2c1.125-.848 1.125-1.848 0-3z"/><path fill="#7d3f50" d="M184.5 132.5c.667 0 1 .333 1 1v13c-.149 1.052.017 2.052.5 3 2.295-3.297 4.962-6.297 8-9a329.74 329.74 0 0 1-1.5 27c.011 1.545.344 2.878 1 4a111.58 111.58 0 0 1-5 13c-.667 0-1 .333-1 1-.951-1.419-1.284-3.085-1-5a168.48 168.48 0 0 0 .5-28l-1-1c-.186 2.536-.686 4.869-1.5 7v-10-16z"/><path fill="#643334" d="M194.5 137.5c1.136 9.509 1.136 19.176 0 29 .134 1.792-.199 3.458-1 5-.656-1.122-.989-2.455-1-4a329.74 329.74 0 0 0 1.5-27c-3.038 2.703-5.705 5.703-8 9-.483-.948-.649-1.948-.5-3 .667 0 1-.333 1-1a45.41 45.41 0 0 0 8-8z"/><path fill="#a1525f" d="M204.5 105.5c-.664 2.646-.998 5.479-1 8.5 1.354 15.292 2.354 30.459 3 45.5-.296 1.903-.963 3.57-2 5a112.97 112.97 0 0 0-.5-15 111.6 111.6 0 0 1-1.5 11c-.247 1.213-.914 1.88-2 2 1.074-2.893 1.74-5.893 2-9a89.25 89.25 0 0 1-1-15v-27l2-8c.798.457 1.131 1.124 1 2z"/><path fill="#3c3838" d="M23.5 119.5c-2.58 15.569-4.247 31.235-5 47a31.94 31.94 0 0 1 1.5 6c2.802 2.218 3.636 4.885 2.5 8-2.944-2.216-4.611-5.216-5-9-1.729-9.228-2.395-18.561-2-28a103.31 103.31 0 0 1 7.5-29c.494 1.634.66 3.301.5 5z"/><path fill="#904f25" d="M93.5 143.5c2.82.965 4.153 2.965 4 6-3.177-2.669-4.51-1.669-4 3-1.291.237-2.291-.096-3-1 1.086-.12 1.753-.787 2-2-2.354-1.622-2.354-3.122 0-4.5-2.432-1.087-2.098-1.587 1-1.5z"/><path fill="#c8aa9a" d="M79.5 149.5c-4.416 1.369-6.083 4.369-5 9h-1c-4.691-6.196-3.691-11.196 3-15 .65-.304 1.317-.637 2-1 .974 2.243 1.308 4.576 1 7z"/><path fill="#e0a987" d="M97.5 134.5c2.574 3.153 5.574 5.82 9 8 3.974 3.665 7.307 7.999 10 13 2.836 2.667 5.503 2.5 8-.5.094-2.407-.073-4.907-.5-7.5 1.044 1.123 1.71 2.456 2 4l1-4c1.241 1.438 1.741 2.938 1.5 4.5 1.225.563 2.225.23 3-1-1.265-1.337-1.765-2.837-1.5-4.5l1 1c1.101-1.894 2.434-2.561 4-2 .374-.916.874-1.75 1.5-2.5l-4-4c2.244.695 4.578 1.529 7 2.5l-2 3c1.071 1.825.404 2.992-2 3.5 2.179.442 2.845 1.442 2 3 3.446.704 3.446 2.037 0 4 2.641.323 4.975 1.323 7 3-.808.308-1.475.808-2 1.5l4 3-3 4c1.237.781 2.237 1.781 3 3-.525.692-1.192 1.192-2 1.5.951.718 1.117 1.551.5 2.5-1.741-.298-3.574-.298-5.5 0v-5c-2.885-.306-5.552.027-8 1-4.234 1.117-8.234 2.784-12 5a16.34 16.34 0 0 0-5 2c-.716-2.512-1.716-2.512-3 0 .346 1.196.846 1.196 1.5 0 .595 1.399.428 2.732-.5 4 1.45 1.35 2.117 3.016 2 5-1.43.079-2.764-.254-4-1l-2 2c-.951-.826-1.951-.992-3-.5l1 1c-1.635.54-2.968.04-4-1.5-1.249 1.975-2.749 2.309-4.5 1-.903 1.201-2.069 2.035-3.5 2.5 1.876 1.017 3.876 1.851 6 2.5-.209.586-.543 1.086-1 1.5 3.949.807 3.949 1.307 0 1.5-6.715-1.525-12.381-4.858-17-10-.057-1.109-.39-2.109-1-3 .17-1.322-.163-2.489-1-3.5 2.619-.151 4.953-.985 7-2.5 6.427.67 10.427-2.663 12-10-.166-3.107-.499-6.107-1-9 .951-1.419 1.284-3.085 1-5 .175-2.121-.159-4.121-1-6 .689-1.274 1.523-1.274 2.5 0l.5-1c-3.861-1.098-3.861-1.931 0-2.5-2.773-.892-4.439-2.725-5-5.5-.172-.992.162-1.658 1-2z"/><path fill="#de8286" d="M33.5 142.5c.524 1.806 1.191 3.472 2 5a51.65 51.65 0 0 0 1 7 19.24 19.24 0 0 1 1 6h-1c-1.121-2.454-1.954-5.121-2.5-8l-1 6c-.817-5.516-.651-10.85.5-16z"/><path fill="#5c362b" d="M76.5 143.5c-6.691 3.804-7.691 8.804-3 15-2.48-.742-4.813-1.742-7-3 2.35-1.713 3.35-4.047 3-7 .951-3.62 3.285-5.287 7-5z"/><path fill="#e49131" d="M97.5 149.5c.667 0 1 .333 1 1-.838.342-1.172 1.008-1 2-1.333-1.333-2.667-1.333-4 0-.51-4.669.823-5.669 4-3z"/><path fill="#c46c7b" d="M183.5 122.5h1v10 16a71.92 71.92 0 0 0-1 26l3 6c-.284 1.915.049 3.581 1 5 .742 2.48 1.742 4.813 3 7h-2c-1.187-1.572-2.187-3.239-3-5-2.1-14.459-3.434-14.126-4 1l-2-8c.58-4.31.914-8.643 1-13v-7c1.625-10.121 2.292-20.454 2-31 .968-2.107 1.302-4.441 1-7z"/><path fill="#f3e8dc" d="M79.5 149.5a37.16 37.16 0 0 0 4 7c.762 1.762 2.096 2.762 4 3v1c-.311.978-.978 1.645-2 2-3.866-.954-7.532-2.287-11-4-1.083-4.631.584-7.631 5-9z"/><path fill="#e2933b" d="M88.5 147.5l2 4c.709.904 1.709 1.237 3 1-2.243.632-3.909 1.966-5 4-1.333-3-1.333-6 0-9z"/><path fill="#555254" d="M21.5 150.5c1.144 3.852 1.144 7.852 0 12-.838-.342-1.172-1.008-1-2a44.83 44.83 0 0 1 1-10z"/><path fill="#9d7766" d="M23.5 146.5v17l-2-1c1.144-4.148 1.144-8.148 0-12 .16-1.653.826-2.986 2-4z"/><path fill="#413b3c" d="M26.5 153.5a98.43 98.43 0 0 1-.5 14c-1.095-1.193-1.928-2.527-2.5-4v-17c.142-3.556.976-6.89 2.5-10 .499 5.657.666 11.324.5 17z"/><path fill="#511b12" d="M64.5 145.5c-.157 1.373.01 2.707.5 4 1.543-2.919 3.043-3.252 4.5-1 .35 2.953-.65 5.287-3 7-3.067-.379-4.067.621-3 3h-1c-.667 0-1 .333-1 1-.961-1.765-1.295-3.765-1-6 .992.172 1.658-.162 2-1 .427-2.51 1.093-4.843 2-7z"/><path fill="#ad582c" d="M85.5 142.5c-.215 1.679.452 2.679 2 3l1 2c-1.333 3-1.333 6 0 9 1.315 1.395.981 2.395-1 3-1.904-.238-3.238-1.238-4-3 .876.131 1.543-.202 2-1a10.76 10.76 0 0 1-2.5-3c.07-2.466-.096-4.8-.5-7 .016-2.016 1.016-3.016 3-3z"/><path fill="#b25e74" d="M201.5 138.5a89.25 89.25 0 0 0 1 15c-.26 3.107-.926 6.107-2 9l-2 7c-2.107 5.898-5.44 10.898-10 15a111.58 111.58 0 0 0 5-13c.801-1.542 1.134-3.208 1-5 .641-3.427 1.808-6.76 3.5-10 .499-5.323.666-10.656.5-16 1.278-.282 2.278-.949 3-2z"/><path fill="#f9d56a" d="M97.5 152.5c-.863 2.616-2.53 4.616-5 6-1.28 1.431-2.947 2.098-5 2v-1c1.981-.605 2.315-1.605 1-3 1.091-2.034 2.757-3.368 5-4 1.333-1.333 2.667-1.333 4 0z"/><path fill="#7b413e" d="M168.5 141.5c.989 5.475 1.322 11.142 1 17v6 5l-2 10c0-.667-.333-1-1-1 1.181-3.138 1.181-6.138 0-9 1.688-1.977 2.021-3.977 1-6v-1c1.318-4.241 1.152-8.574-.5-13-.816 1.323-1.983 1.989-3.5 2l5-10z"/><path fill="#be736e" d="M219.5 147.5c3.331 4.181 3.498 8.514.5 13a84.9 84.9 0 0 1-.5-13z"/><path fill="#bd6f41" d="M98.5 150.5c0 .667.333 1 1 1 .284 1.915-.049 3.581-1 5-1.797 1.23-3.797 1.896-6 2 2.47-1.384 4.137-3.384 5-6-.172-.992.162-1.658 1-2z"/><path fill="#984454" d="M186.5 180.5l-3-6c-.028-5.362.306-10.695 1-16 .814-2.131 1.314-4.464 1.5-7l1 1a168.48 168.48 0 0 1-.5 28z"/><path fill="#d37867" d="M66.5 155.5c2.187 1.258 4.52 2.258 7 3-2.055 1.059-3.389 2.725-4 5l-6-5c-1.067-2.379-.067-3.379 3-3z"/><path fill="#a35c49" d="M167.5 162.5a8.43 8.43 0 0 0-.5-4l-6.5 7.5c-1.712 1.751-3.712 2.418-6 2 5.18-2.227 8.014-6.06 8.5-11.5-1.351 1.519-2.851 2.852-4.5 4-1.991-.927-3.991-1.094-6-.5 3.221-1.104 5.888-2.937 8-5.5 1.333-.667 2.333-1.667 3-3 1.517-.011 2.684-.677 3.5-2 1.652 4.426 1.818 8.759.5 13z"/><path fill="#e7918f" d="M53.5 138.5c1.297 1.871 2.297 3.871 3 6 .542 3.412 1.875 6.412 4 9-.295 2.235.039 4.235 1 6l3 8v3c-4.456-2.622-8.123-6.122-11-10.5-1.249-.74-2.249-.573-3 .5-2.537-3.194-3.37-6.861-2.5-11 .953 1.955 2.287 3.622 4 5-.135-2.72-.468-5.386-1-8 2.361 3.388 4.194 7.054 5.5 11 .667 1.333 1.333 1.333 2 0a238.79 238.79 0 0 1-7-18 14.74 14.74 0 0 0 2-1z"/><path fill="#e0a49b" d="M184.5 148.5v10c-.694 5.305-1.028 10.638-1 16a71.92 71.92 0 0 1 1-26z"/><path fill="#8f4354" d="M215.5 135.5c.722.418 1.222 1.084 1.5 2 .95 8.455.45 16.789-1.5 25-.039 1.083-.373 2.083-1 3l2 1c-2.787 3.241-4.787 6.907-6 11l-2 1c1.964-5.19 3.298-10.524 4-16 1.568-2.311 2.402-4.978 2.5-8a180.87 180.87 0 0 0 .5-19z"/><path fill="#c46664" d="M64.5 170.5c.61.891.943 1.891 1 3 .131.739-.036 1.406-.5 2-5.029-3.864-9.529-8.197-13.5-13-.838-.342-1.172-1.008-1-2 .751-1.073 1.751-1.24 3-.5 2.877 4.378 6.544 7.878 11 10.5z"/><path fill="#8f908b" d="M14.5 142.5c0 .667.333 1 1 1-.395 9.439.271 18.772 2 28-.838.342-1.172 1.008-1 2-2.906-10.21-3.572-20.544-2-31z"/><path fill="#ed9c9a" d="M33.5 142.5c-1.151 5.15-1.317 10.484-.5 16l1-6c.546 2.879 1.379 5.546 2.5 8a126.72 126.72 0 0 1-4.5 25c-.377 1.442-1.21 2.442-2.5 3-.639-.597-.972-1.43-1-2.5 1.958-5.078 2.292-10.245 1-15.5-.676 1.102-1.342 2.102-2 3v-4c.617-.111 1.117-.444 1.5-1l2-8v-54c.169 12.071 1.002 24.071 2.5 36z"/><path fill="#301615" d="M219.5 163.5a166.43 166.43 0 0 1-9 15v-1c1.213-4.093 3.213-7.759 6-11l-2-1c.627-.917.961-1.917 1-3 2.105-2.902 3.438-2.568 4 1z"/><path fill="#2b140e" d="M62.5 158.5c1.944 5.698 5.277 10.531 10 14.5a.91.91 0 0 1-1 .5l-7-6-3-8c0-.667.333-1 1-1z"/><path fill="#9e654d" d="M255.5 165.5v11c-2.174 3.015-3.841 6.349-5 10-.667 0-1 .333-1 1-5.15.827-7.15 3.827-6 9-1.322-.17-2.489.163-3.5 1-3.787 5.456-7.954 10.623-12.5 15.5a17.34 17.34 0 0 1-7 3.5c.622-1.835 1.956-3.002 4-3.5-1.941-.743-3.774-.576-5.5.5a3.43 3.43 0 0 1-1.5-2.5l5-4.5c.886-.825 1.219-1.825 1-3a8.43 8.43 0 0 0 4-.5l-2-1c1.098-.77 1.098-1.603 0-2.5.731-.442 1.731-.609 3-.5a232.45 232.45 0 0 1 13-12.5c4.937-6.89 9.604-13.89 14-21z"/><path fill="#e09f7b" d="M98.5 156.5c.501 2.893.834 5.893 1 9-1.573 7.337-5.573 10.67-12 10-2.047 1.515-4.381 2.349-7 2.5.837 1.011 1.17 2.178 1 3.5h-1c-.057-1.109-.39-2.109-1-3-1.431-1.689-2.264-3.689-2.5-6-3.088-2.581-5.588-5.581-7.5-9 .611-2.275 1.945-3.941 4-5h1c3.468 1.713 7.134 3.046 11 4 1.022-.355 1.689-1.022 2-2 2.053.098 3.72-.569 5-2 2.203-.104 4.203-.77 6-2z"/><path fill="#80454f" d="M215.5 135.5a180.87 180.87 0 0 1-.5 19c-.098 3.022-.932 5.689-2.5 8-1.943.578-2.277 1.578-1 3-.883 2.825-2.05 5.492-3.5 8-.05-2.244-.883-3.911-2.5-5-.934-1.068-1.268-2.401-1-4 1.037-1.43 1.704-3.097 2-5 1.638-5.526 2.638-11.193 3-17 .819-2.805 1.319-5.805 1.5-9l1 26c1.685-8.039 2.852-16.039 3.5-24z"/><path fill="#c97b73" d="M26.5 153.5c.988 5.14 1.321 10.474 1 16v4a329.1 329.1 0 0 1-2.5 11c-1.095-1.193-1.928-2.527-2.5-4 1.136-3.115.302-5.782-2.5-8a31.94 31.94 0 0 0-1.5-6l2-6c-.172.992.162 1.658 1 2l2 1c.572 1.473 1.405 2.807 2.5 4a98.43 98.43 0 0 0 .5-14z"/><path fill="#863b29" d="M62.5 158.5h1l6 5c1.912 3.419 4.412 6.419 7.5 9 .236 2.311 1.069 4.311 2.5 6-1.915.284-3.581-.049-5-1 .739.131 1.406-.036 2-.5-1.846-1.03-3.513-2.196-5-3.5a.91.91 0 0 0 1-.5c-4.723-3.969-8.056-8.802-10-14.5z"/><path fill="#995267" d="M204.5 164.5c-.268 1.599.066 2.932 1 4l-1 4-4.5 11c-1.758 2.265-3.925 3.932-6.5 5a186.87 186.87 0 0 1 6-18c-.124-.607-.457-.94-1-1l2-7c1.086-.12 1.753-.787 2-2a111.6 111.6 0 0 0 1.5-11 112.97 112.97 0 0 1 .5 15z"/><path fill="#583027" d="M131.5 169.5c2.448-.973 5.115-1.306 8-1v5h-1c-.548-2.584-2.215-3.584-5-3-.342-.838-1.008-1.172-2-1z"/><path fill="#d4c5c0" d="M131.5 169.5c.992-.172 1.658.162 2 1-4.274 1.065-8.274 2.732-12 5h-2v-1c3.766-2.216 7.766-3.883 12-5z"/><path fill="#642b2c" d="M51.5 162.5c3.971 4.803 8.471 9.136 13.5 13 .464-.594.631-1.261.5-2 2.622 2.144 5.622 3.477 9 4 1.419.951 3.085 1.284 5 1 .61.891.943 1.891 1 3a83 83 0 0 1-12.5-5c-.493 1.634-.66 3.301-.5 5-.942-.46-1.609-1.793-2-4-3.779-2.645-7.279-5.645-10.5-9 1.166 4.021 2.666 8.021 4.5 12-1.563-1.445-2.896-3.111-4-5-1.487-4.283-2.821-8.616-4-13z"/><path fill="#a94f58" d="M42.5 145.5c1.513 7.393 3.346 14.726 5.5 22 .665 3.541 2.498 6.208 5.5 8l1 2c-.399 5.474-.399 11.14 0 17-6.255-5.172-9.922-11.839-11-20-2.126-9.731-2.459-19.398-1-29z"/><path fill="#f9bfba" d="M180.5 160.5v7c-2.155 3.662-3.822 7.662-5 12-2.302-1.577-3.802-.911-4.5 2l-1.5-1.5c.368-3.378.368-6.878 0-10.5v-5c2.058-2.496 3.224-1.83 3.5 2l3-7c.915.828 1.581 1.828 2 3 .419-1.172 1.085-2.172 2-3a.91.91 0 0 1 .5 1z"/><path fill="#c96d4c" d="M64.5 167.5l7 6c1.487 1.304 3.154 2.47 5 3.5-.594.464-1.261.631-2 .5-3.378-.523-6.378-1.856-9-4-.057-1.109-.39-2.109-1-3v-3z"/><path fill="#c66155" d="M133.5 170.5c2.785-.584 4.452.416 5 3v1a105.28 105.28 0 0 0-17 1c3.726-2.268 7.726-3.935 12-5z"/><path fill="#6a424d" d="M212.5 162.5c-.702 5.476-2.036 10.81-4 16 .085 1.495-.581 2.495-2 3l-2-9 1-4c1.617 1.089 2.45 2.756 2.5 5 1.45-2.508 2.617-5.175 3.5-8-1.277-1.422-.943-2.422 1-3z"/><path fill="#e18774" d="M138.5 174.5c-3.534 9.606-9.868 12.273-19 8-.485-2.369.181-4.703 2-7a105.28 105.28 0 0 1 17-1z"/><path fill="#291411" d="M119.5 174.5v1c-1.37.356-2.37 1.19-3 2.5.835 1.131.835 1.964 0 2.5-1.604-.787-2.271-2.12-2-4a16.34 16.34 0 0 1 5-2z"/><path fill="#90424e" d="M67.5 181.5c.961 1.765 1.295 3.765 1 6-3.863-1.194-6.863-3.527-9-7-1.834-3.979-3.334-7.979-4.5-12 3.221 3.355 6.721 6.355 10.5 9 .391 2.207 1.058 3.54 2 4z"/><path fill="#66271f" d="M119.5 175.5h2c-1.819 2.297-2.485 4.631-2 7-1.21-.432-2.21-1.099-3-2 .835-.536.835-1.369 0-2.5.63-1.31 1.63-2.144 3-2.5z"/><path fill="#563640" d="M167.5 163.5c1.021 2.023.688 4.023-1 6-2.367 6.431-3.2 13.098-2.5 20 1.562-3.514 2.395-7.181 2.5-11 .667 0 1 .333 1 1 .162 2.027-.005 4.027-.5 6a320.45 320.45 0 0 1-5.5 14c-.667 0-1-.333-1-1 2.006-3.698 2.506-7.698 1.5-12-.186 2.4-.686 4.734-1.5 7-1.242-5.688-1.242-11.355 0-17 2.74-4.084 5.074-8.418 7-13z"/><path fill="#e9ad87" d="M53.5 175.5h2c1.104 1.889 2.437 3.555 4 5 2.137 3.473 5.137 5.806 9 7v2h-1c0-.667-.333-1-1-1-4.626-2.958-8.626-6.624-12-11l-1-2z"/><path fill="#1d1b20" d="M204.5 172.5l2 9c1.419-.505 2.085-1.505 2-3l2-1v1c-.61.891-.943 1.891-1 3-.667 0-1 .333-1 1-5.639 2.153-10.972 4.819-16 8l1-2c2.575-1.068 4.742-2.735 6.5-5l4.5-11z"/><path fill="#523440" d="M198.5 169.5c.543.06.876.393 1 1a186.87 186.87 0 0 0-6 18l-1 2c-.111.617-.444 1.117-1 1.5 1.21 1.039 2.21 2.206 3 3.5-1.904-.238-3.238-1.238-4-3-1.258-2.187-2.258-4.52-3-7 0-.667.333-1 1-1 4.56-4.102 7.893-9.102 10-15z"/><path fill="#a45264" d="M166.5 169.5c1.181 2.862 1.181 5.862 0 9-.105 3.819-.938 7.486-2.5 11-.7-6.902.133-13.569 2.5-20z"/><path fill="#45313b" d="M185.5 187.5c-.904.709-1.237 1.709-1 3h-3v-2c.566-15.126 1.9-15.459 4-1z"/><path fill="#f6d8c7" d="M29.5 188.5l-1 4a41.35 41.35 0 0 1-7 10c-.901.79-1.568 1.79-2 3-1.209.432-2.209 1.099-3 2-.667 0-1 .333-1 1-1.653.16-2.986.826-4 2-4.695 1.984-8.028.651-10-4-.131-.739.036-1.406.5-2 2.251 3.626 5.418 4.793 9.5 3.5 5.18-6.016 8.847-12.849 11-20.5a26.49 26.49 0 0 0-5-7c.268-1.599-.066-2.932-1-4v-3c-.172-.992.162-1.658 1-2 .389 3.784 2.056 6.784 5 9 .572 1.473 1.405 2.807 2.5 4a329.1 329.1 0 0 0 2.5-11c.658-.898 1.324-1.898 2-3 1.292 5.255.958 10.422-1 15.5.028 1.07.361 1.903 1 2.5z"/><path fill="#b46164" d="M36.5 160.5h1c.129 1.716.462 3.383 1 5-.26 7.887-.26 15.887 0 24-1.086.12-1.753.787-2 2 1.465 5.992 2.798 11.992 4 18-1.722-1.753-3.222-3.753-4.5-6-.173 5.516-.673 10.849-1.5 16-1.585-3.4-2.752-7.067-3.5-11-.15-5.581-.983-10.914-2.5-16l1-4c1.29-.558 2.123-1.558 2.5-3a126.72 126.72 0 0 0 4.5-25z"/><path fill="#e8a7a8" d="M169.5 169.5c.368 3.622.368 7.122 0 10.5l1.5 1.5c.698-2.911 2.198-3.577 4.5-2-6.127 9.921-11.461 20.254-16 31-3.614 4.108-7.947 7.275-13 9.5-1.903.774-3.57.44-5-1 6.107-.638 10.94-3.471 14.5-8.5 1.686-3.763 3.52-7.429 5.5-11a320.45 320.45 0 0 0 5.5-14c.495-1.973.662-3.973.5-6l2-10z"/><path fill="#f0c9b2" d="M43.5 174.5c1.078 8.161 4.745 14.828 11 20 1.531 1.425 1.198 2.091-1 2-6.086-6.171-10.086-13.504-12-22a4.93 4.93 0 0 1 .5-3c.232 1.237.732 2.237 1.5 3z"/><path fill="#834866" d="M255.5 176.5v34c-1.525 3.865-3.858 7.198-7 10a49.37 49.37 0 0 0 1-11c-2.726.236-5.059-.597-7-2.5a179.42 179.42 0 0 0 7 .5 133.08 133.08 0 0 1 1-21c1.159-3.651 2.826-6.985 5-10z"/><path fill="#ac5964" d="M38.5 165.5c.554 3.246 1.554 6.246 3 9 1.914 8.496 5.914 15.829 12 22-.131.739.036 1.406.5 2 .741-1.141 1.575-1.141 2.5 0 1.147 2.265 1.314 4.598.5 7a41.04 41.04 0 0 1-6-9c-.409 2.195.091 4.195 1.5 6v5c-1.37-3.929-2.87-7.929-4.5-12a174.28 174.28 0 0 1-3.5 18c-1.022-5.827-1.855-11.827-2.5-18l-1 9a88.07 88.07 0 0 1-2.5-15c-.26-8.113-.26-16.113 0-24z"/><path fill="#a05e46" d="M157.5 181.5c.525 4.64-.142 8.973-2 13-2.831.579-5.164 1.912-7 4-3.148 1.076-6.148 2.409-9 4a.91.91 0 0 1-1-.5c.691-1.067 1.191-2.234 1.5-3.5 6.397-5.233 12.231-10.899 17.5-17z"/><path fill="#a25e6b" d="M80.5 181.5h1c.61.891.943 1.891 1 3 1.978 3.978 4.978 6.978 9 9 .795 4.285 1.128 8.619 1 13a51.65 51.65 0 0 1-1 7c-.958.453-1.792 1.119-2.5 2-.18-3.195-.68-6.195-1.5-9-.517-3.722-1.35-7.388-2.5-11-.897 8.12-3.731 15.454-8.5 22-.731-1.901-.731-3.901 0-6 1.025-.874 1.692-2.041 2-3.5a29.71 29.71 0 0 1-5-10.5c-.34-2.179-1.34-4.012-3-5.5 1.626.195 3.293.195 5 0-2.223-.652-3.39-2.152-3.5-4.5-.71 1.473-1.876 2.14-3.5 2v-2c.295-2.235-.039-4.235-1-6-.16-1.699.007-3.366.5-5a83 83 0 0 0 12.5 5z"/><path fill="#4b6264" d="M16.5 176.5c.934 1.068 1.268 2.401 1 4l-1.5 19a103.09 103.09 0 0 1 .5-23z"/><path fill="#6c383b" d="M82.5 184.5c4.619 5.142 10.285 8.475 17 10 3.787 1.418 7.787 2.418 12 3v1a8.43 8.43 0 0 0-4 .5c1.082 1.33 1.749 2.83 2 4.5-1-1.333-2-1.333-3 0v-6a47.93 47.93 0 0 1-15-4c-4.022-2.022-7.022-5.022-9-9z"/><path fill="#5d2f24" d="M149.5 186.5a.91.91 0 0 1 1 .5 63.97 63.97 0 0 1-15 11c-5.572 1.351-11.238 1.851-17 1.5-.838-.342-1.172-1.008-1-2 5.344.166 10.677-.001 16-.5 5.875-2.765 11.209-6.265 16-10.5z"/><path fill="#844332" d="M157.5 179.5v2c-5.269 6.101-11.103 11.767-17.5 17-.309 1.266-.809 2.433-1.5 3.5a.91.91 0 0 0 1 .5l-1 2c-2.333.333-3.667 1.667-4 4-1.636 1.249-2.803 2.916-3.5 5-1.5-5.5-5-9-10.5-10.5-.805-1.113-1.472-2.279-2-3.5 5.762.351 11.428-.149 17-1.5a63.97 63.97 0 0 0 15-11 .91.91 0 0 0-1-.5c2.049-3.05 4.716-5.383 8-7z"/><path fill="#a6664c" d="M209.5 181.5c-.086.996.248 1.829 1 2.5-1.699 5.196-2.366 10.196-2 15 2.179 1.257 4.179 2.757 6 4.5.692-.525 1.192-1.192 1.5-2 .977 1.274 1.811 1.274 2.5 0 2.625.88 4.958.213 7-2 1.098.897 1.098 1.73 0 2.5l2 1a8.43 8.43 0 0 1-4 .5c.219 1.175-.114 2.175-1 3l-5 4.5a3.43 3.43 0 0 0 1.5 2.5c1.726-1.076 3.559-1.243 5.5-.5-2.044.498-3.378 1.665-4 3.5a8.94 8.94 0 0 1-4 3c-1.948-.631-3.781-1.631-5.5-3l-1 1c-2.911-2.853-5.578-5.853-8-9-.43-9.363 1.737-18.029 6.5-26 0-.667.333-1 1-1z"/><path fill="#a5585f" d="M179.5 180.5l2 8v2c-.51 3.039-1.177 6.039-2 9 .131.739-.036 1.406-.5 2-2.015 1.197-3.849 2.53-5.5 4-2.358-.247-4.358.419-6 2a171.71 171.71 0 0 0 12-27z"/><path fill="#1e1c2e" d="M185.5 187.5c.813 1.761 1.813 3.428 3 5-1.333 2-3 3.667-5 5l-4 2c.823-2.961 1.49-5.961 2-9h3c-.237-1.291.096-2.291 1-3z"/><path fill="#6a454f" d="M73.5 197.5l-2 3a103.65 103.65 0 0 0-3-11c1.624.14 2.79-.527 3.5-2 .11 2.348 1.277 3.848 3.5 4.5-1.707.195-3.374.195-5 0 1.66 1.488 2.66 3.321 3 5.5z"/><path fill="#281d1b" d="M160.5 176.5c-1.242 5.645-1.242 11.312 0 17 .814-2.266 1.314-4.6 1.5-7 1.006 4.302.506 8.302-1.5 12-.768-.763-1.268-1.763-1.5-3-.383.556-.883.889-1.5 1 0-1.333-.667-2-2-2 1.858-4.027 2.525-8.36 2-13v-2c.667-1.333 1.667-2.333 3-3z"/><path fill="#252532" d="M178.5 192.5c.942 4.787-.892 8.454-5.5 11 1.465-3.694 3.298-7.361 5.5-11z"/><path fill="#ae6c51" d="M188.5 192.5h2c.762 1.762 2.096 2.762 4 3 2.06 1.311 4.226 1.311 6.5 0l.5 2-6.5 18c-7.677 8.709-10.343 18.709-8 30 .912 2.739 2.412 5.072 4.5 7 2.119-5.823 3.119-11.823 3-18 2.124.531 3.624 1.865 4.5 4 .369-3.377.369-6.71 0-10a111.49 111.49 0 0 1 7.5 12c1.919-1.112 3.586-2.446 5-4l6-5c2.086.648 3.086 2.148 3 4.5a102.83 102.83 0 0 1-3 16.5c-2.119-.032-3.452.968-4 3h-28a93.92 93.92 0 0 1-2.5-21c-2.056-3.048-4.889-4.714-8.5-5-2.571-5.037-4.571-10.371-6-16 1.758-.377 3.425-1.044 5-2a6.8 6.8 0 0 1 1.5 3 17.34 17.34 0 0 0 3.5-7l5-10c2-1.333 3.667-3 5-5z"/><path fill="#312318" d="M155.5 194.5c-1.836 2.088-4.169 3.421-7 4 1.836-2.088 4.169-3.421 7-4z"/><path fill="#9d5f73" d="M91.5 193.5a47.93 47.93 0 0 0 15 4v6c-.672 3.688-1.505 7.355-2.5 11-.414.457-.914.791-1.5 1a53.58 53.58 0 0 1-8.5-11c-.278.916-.778 1.582-1.5 2 .128-4.381-.205-8.715-1-13z"/><path fill="#da7d88" d="M180.5 167.5c-.086 4.357-.42 8.69-1 13a171.71 171.71 0 0 1-12 27c-3.862 8.185-9.195 15.185-16 21-1.517.011-2.684.677-3.5 2-.483-.948-.649-1.948-.5-3 7.002-3.366 11.002-9.033 12-17 4.539-10.746 9.873-21.079 16-31 1.178-4.338 2.845-8.338 5-12z"/><path fill="#954f58" d="M54.5 177.5c3.374 4.376 7.374 8.042 12 11-.689 1.274-1.523 1.274-2.5 0a100.2 100.2 0 0 1-1.5 14c-2.214-2.424-3.214-1.757-3 2-.809 1.528-1.476 3.194-2 5-1.421-2.509-3.088-4.843-5-7-1.409-1.805-1.909-3.805-1.5-6a41.04 41.04 0 0 0 6 9c.814-2.402.647-4.735-.5-7-.925-1.141-1.759-1.141-2.5 0-.464-.594-.631-1.261-.5-2 2.198.091 2.531-.575 1-2-.399-5.86-.399-11.526 0-17z"/><path fill="#241b13" d="M148.5 198.5c-2.994 2.5-6.327 4.5-10 6l1-2c2.852-1.591 5.852-2.924 9-4z"/><path fill="#8d4e56" d="M38.5 189.5a88.07 88.07 0 0 0 2.5 15l1-9c.645 6.173 1.478 12.173 2.5 18 0 .667-.333 1-1 1-.722-1.051-1.722-1.718-3-2v-3c-1.202-6.008-2.535-12.008-4-18 .247-1.213.914-1.88 2-2z"/><path fill="#6a4927" d="M155.5 194.5c1.333 0 2 .667 2 2-6.49 2.41-12.156 6.077-17 11-.617-.111-1.117-.444-1.5-1a25.14 25.14 0 0 1-4.5 4v-2c1.667-1 3-2.333 4-4 3.673-1.5 7.006-3.5 10-6 2.831-.579 5.164-1.912 7-4z"/><path fill="#945866" d="M111.5 198.5c2.788-.423 4.788.577 6 3l-4 2c.89 2.282 1.056 4.615.5 7-.671.752-1.504 1.086-2.5 1 .213-2.951-.454-5.618-2-8-.251-1.67-.918-3.17-2-4.5a8.43 8.43 0 0 1 4-.5z"/><path fill="#47221b" d="M183.5 197.5l-5 10c-4.895 2.7-5.228 2.033-1-2-1.057-.406-2.391-.406-4 0 1.651-1.47 3.485-2.803 5.5-4 .464-.594.631-1.261.5-2l4-2z"/><path fill="#b1686b" d="M66.5 188.5c.667 0 1 .333 1 1a94.01 94.01 0 0 0 7 29v2h-7c-3.194-5.054-5.861-10.388-8-16-.214-3.757.786-4.424 3-2a100.2 100.2 0 0 0 1.5-14c.977 1.274 1.811 1.274 2.5 0z"/><path fill="#1a1612" d="M138.5 204.5c-1 1.667-2.333 3-4 4 .333-2.333 1.667-3.667 4-4z"/><path fill="#4b3720" d="M140.5 207.5c-3.053 2.783-5.053 6.117-6 10-.342-.838-1.008-1.172-2-1 .095-2.286.762-4.286 2-6a25.14 25.14 0 0 0 4.5-4c.383.556.883.889 1.5 1z"/><path fill="#29303e" d="M67.5 189.5h1a103.65 103.65 0 0 1 3 11c1.788 3.699 3.455 7.366 5 11-.731 2.099-.731 4.099 0 6 4.769-6.546 7.603-13.88 8.5-22 1.15 3.612 1.983 7.278 2.5 11v12c-3.125.979-6.458 1.313-10 1-1.109-.057-2.109-.39-3-1a94.01 94.01 0 0 1-7-29z"/><path fill="#4e4656" d="M73.5 197.5a29.71 29.71 0 0 0 5 10.5c-.308 1.459-.975 2.626-2 3.5-1.545-3.634-3.212-7.301-5-11l2-3z"/><path fill="#90503b" d="M178.5 207.5a17.34 17.34 0 0 1-3.5 7 6.8 6.8 0 0 0-1.5-3c-1.575.956-3.242 1.623-5 2-1.098-1.101-1.265-2.434-.5-4a59.93 59.93 0 0 1 5.5-4c1.609-.406 2.943-.406 4 0-4.228 4.033-3.895 4.7 1 2z"/><path fill="#1d2a33" d="M250.5 186.5a133.08 133.08 0 0 0-1 21 179.42 179.42 0 0 1-7-.5c1.941 1.903 4.274 2.736 7 2.5a49.37 49.37 0 0 1-1 11c-.932 6.791-4.598 9.291-11 7.5 4.317 4.718 8.484 4.551 12.5-.5 2.13-3.267 3.963-6.6 5.5-10v27c-1.965 1.988-4.298 3.488-7 4.5 1.941 1.903 4.274 2.736 7 2.5v4h-38c6.271-9.726 10.104-20.392 11.5-32 7.604-11.54 14.438-23.54 20.5-36 0-.667.333-1 1-1z"/><path fill="#9d5f5e" d="M21.5 202.5a87.82 87.82 0 0 0 2 9c-.904.709-1.237 1.709-1 3a31.59 31.59 0 0 0-3-9c.432-1.21 1.099-2.21 2-3z"/><path fill="#28383d" d="M1.5 206.5c1.972 4.651 5.305 5.984 10 4 1.984 14.629 2.65 29.629 2 45H.5c.062-16.524.395-32.857 1-49z"/><path fill="#745263" d="M87.5 206.5c.82 2.805 1.32 5.805 1.5 9 .708-.881 1.542-1.547 2.5-2 .134 1.792-.199 3.458-1 5h-3v-12z"/><path fill="#68472d" d="M117.5 204.5c7.593.455 11.593 4.455 12 12-.6 1.4-1.6 2.4-3 3v-1c.931-6.552-2.069-10.719-9-12.5-1.238-.69-1.238-1.19 0-1.5z"/><path fill="#202538" d="M109.5 203.5c1.546 2.382 2.213 5.049 2 8l-2 2c-2.488 1.628-5.155 2.962-8 4a128.71 128.71 0 0 0-11 2v-1c.801-1.542 1.134-3.208 1-5a51.65 51.65 0 0 0 1-7c.722-.418 1.222-1.084 1.5-2a53.58 53.58 0 0 0 8.5 11c.586-.209 1.086-.543 1.5-1 .995-3.645 1.828-7.312 2.5-11 1-1.333 2-1.333 3 0z"/><path fill="#564656" d="M59.5 204.5c2.139 5.612 4.806 10.946 8 16h-2c-3.408-3.083-6.075-6.749-8-11 .524-1.806 1.191-3.472 2-5z"/><path fill="#32231b" d="M111.5 198.5v-1h6c-.172.992.162 1.658 1 2 .528 1.221 1.195 2.387 2 3.5 5.5 1.5 9 5 10.5 10.5.697-2.084 1.864-3.751 3.5-5v2c-1.238 1.714-1.905 3.714-2 6-1.041 3.861-2.041 3.861-3 0-.407-7.545-4.407-11.545-12-12-1.068-.934-2.401-1.268-4-1 1.218-.661 2.551-1.328 4-2-1.212-2.423-3.212-3.423-6-3z"/><path fill="#191214" d="M160.5 198.5c0 .667.333 1 1 1-1.98 3.571-3.814 7.237-5.5 11-3.56 5.029-8.393 7.862-14.5 8.5 1.43 1.44 3.097 1.774 5 1 5.053-2.225 9.386-5.392 13-9.5-.998 7.967-4.998 13.634-12 17a388.88 388.88 0 0 0-11-6c3.457-.167 3.79-1.167 1-3-2.625 1.604-3.625 1.27-3-1 .947-3.883 2.947-7.217 6-10 4.844-4.923 10.51-8.59 17-11 .617-.111 1.117-.444 1.5-1 .232 1.237.732 2.237 1.5 3z"/><path fill="#463643" d="M141.5 209.5h4c-.244 4.289-1.911 4.956-5 2l1-2z"/><path fill="#513d22" d="M156.5 198.5c1.548.321 2.215 1.321 2 3-2.998.842-5.998 1.342-9 1.5l7-4.5z"/><path fill="#c7767f" d="M52.5 202.5c1.912 2.157 3.579 4.491 5 7 1.925 4.251 4.592 7.917 8 11h-4c-4.232-3.458-7.232-7.792-9-13v-5z"/><path fill="#343a40" d="M52.5 207.5c1.768 5.208 4.768 9.542 9 13l-1 2c-1.501 1.252-3.167 2.252-5 3 .172-.992-.162-1.658-1-2-5.163-1.162-8.829-4.162-11-9 .667 0 1-.333 1-1a174.28 174.28 0 0 0 3.5-18c1.63 4.071 3.13 8.071 4.5 12z"/><path fill="#6f7a6c" d="M50.5 208.5c1.917 3.217 3.751 6.551 5.5 10 3.936 1.798 4.103 2.631.5 2.5-3.485-3.469-5.485-7.636-6-12.5z"/><path fill="#30211c" d="M126.5 218.5v1c-.838.342-1.172 1.008-1 2v1c-1.33-1.332-2.997-2.165-5-2.5-.837-1.011-1.17-2.178-1-3.5a12.93 12.93 0 0 0 5-.5l-5-3c.194-1.57.194-3.07 0-4.5 3.95 2.271 6.284 5.604 7 10z"/><path fill="#f1cbb8" d="M40.5 209.5v3c-.295 2.235.039 4.235 1 6-.755 7.246 2.245 12.246 9 15-.124.607-.457.94-1 1h-5c-2.352-.84-4.352-2.174-6-4l-3-3a24.93 24.93 0 0 1-1-8c.827-5.151 1.327-10.484 1.5-16 1.278 2.247 2.778 4.247 4.5 6z"/><path fill="#89786d" d="M40.5 212.5c1.278.282 2.278.949 3 2 2.171 4.838 5.837 7.838 11 9-1.935 1.209-3.935 1.042-6-.5l-6.5-6.5c-.464.594-.631 1.261-.5 2-.961-1.765-1.295-3.765-1-6z"/><path fill="#121011" d="M113.5 203.5c1.599-.268 2.932.066 4 1-1.238.31-1.238.81 0 1.5 6.931 1.781 9.931 5.948 9 12.5-.716-4.396-3.05-7.729-7-10 .194 1.43.194 2.93 0 4.5l5 3a12.93 12.93 0 0 1-5 .5c-.17 1.322.163 2.489 1 3.5 2.003.335 3.67 1.168 5 2.5 3.931 2.141 3.598 3.808-1 5-1.153-.813-1.153-1.813 0-3-2.593-2.708-3.926-2.041-4 2-5.268-.471-10.434-1.471-15.5-3-2.317 1.485-4.484 3.152-6.5 5 3.769-5.604 8.436-10.438 14-14.5-.948-.483-1.948-.649-3-.5l2-2c.996.086 1.829-.248 2.5-1 .556-2.385.39-4.718-.5-7z"/><path fill="#8b5a32" d="M129.5 216.5c.959 3.861 1.959 3.861 3 0 .992-.172 1.658.162 2 1-.625 2.27.375 2.604 3 1 2.79 1.833 2.457 2.833-1 3h-9-2c-.172-.992.162-1.658 1-2 1.4-.6 2.4-1.6 3-3z"/><path fill="#95513a" d="M208.5 182.5c-4.763 7.971-6.93 16.637-6.5 26 2.422 3.147 5.089 6.147 8 9l1-1c1.719 1.369 3.552 2.369 5.5 3-1.175-.219-2.175.114-3 1a20.2 20.2 0 0 0 6 1.5 6.8 6.8 0 0 0-3 1.5l.5 1c1.699-.906 3.533-1.239 5.5-1 .149 1.052-.017 2.052-.5 3-1.707 1.537-3.207 3.204-4.5 5l-6 5c-.722-.418-1.222-1.084-1.5-2-1.018 1.206-1.518.873-1.5-1 1.26-2.923 1.76-5.923 1.5-9-9.704-11.105-10.871-10.105-3.5 3l-.5 1c-1.673-2.501-3.507-4.834-5.5-7-1.422 3.658-2.589 7.325-3.5 11-.995.566-1.828 1.233-2.5 2 .119 6.177-.881 12.177-3 18-2.088-1.928-3.588-4.261-4.5-7-2.343-11.291.323-21.291 8-30l6.5-18-.5-2c-2.274 1.311-4.44 1.311-6.5 0-.79-1.294-1.79-2.461-3-3.5.556-.383.889-.883 1-1.5 5.028-3.181 10.361-5.847 16-8z"/><path fill="#926b7f" d="M255.5 210.5v7c-1.537 3.4-3.37 6.733-5.5 10-4.016 5.051-8.183 5.218-12.5.5 6.402 1.791 10.068-.709 11-7.5 3.142-2.802 5.475-6.135 7-10z"/><path fill="#633a2c" d="M109.5 213.5c1.052-.149 2.052.017 3 .5-5.564 4.062-10.231 8.896-14 14.5a27.68 27.68 0 0 0-6 8h-1c-.438-1.006-1.104-1.006-2 0 1.413-3.161 3.08-6.161 5-9a40.67 40.67 0 0 0 9-9.5c-.594-.464-1.261-.631-2-.5 2.845-1.038 5.512-2.372 8-4z"/><path fill="#a8634d" d="M101.5 217.5c.739-.131 1.406.036 2 .5a40.67 40.67 0 0 1-9 9.5c-4.413-.187-8.746-.854-13-2-.617.111-1.117.444-1.5 1-2.04-1.87-3.873-3.87-5.5-6v-2c.891.61 1.891.943 3 1 4.201 1.236 8.534 1.236 13 0a128.71 128.71 0 0 1 11-2z"/><path fill="#4d302e" d="M87.5 218.5h3v1c-4.466 1.236-8.799 1.236-13 0 3.542.313 6.875-.021 10-1z"/><path fill="#945842" d="M249.5 187.5c-6.062 12.46-12.896 24.46-20.5 36-1.396 11.608-5.229 22.274-11.5 32h-4c.548-2.032 1.881-3.032 4-3a102.83 102.83 0 0 0 3-16.5c.086-2.352-.914-3.852-3-4.5 1.293-1.796 2.793-3.463 4.5-5 .483-.948.649-1.948.5-3-1.967-.239-3.801.094-5.5 1l-.5-1a6.8 6.8 0 0 1 3-1.5 20.2 20.2 0 0 1-6-1.5c.825-.886 1.825-1.219 3-1a8.94 8.94 0 0 0 4-3 17.34 17.34 0 0 0 7-3.5c4.546-4.877 8.713-10.044 12.5-15.5 1.011-.837 2.178-1.17 3.5-1-1.15-5.173.85-8.173 6-9z"/><path fill="#201b1b" d="M124.5 227.5l-6 4-8 5c-1.322-.17-2.489.163-3.5 1-.374-.916-.874-1.75-1.5-2.5-4.562-.878-8.896-.378-13 1.5a27.68 27.68 0 0 1 6-8c2.016-1.848 4.183-3.515 6.5-5 5.066 1.529 10.232 2.529 15.5 3 .074-4.041 1.407-4.708 4-2-1.153 1.187-1.153 2.187 0 3z"/><path fill="#110e0d" d="M131.5 222.5a59.08 59.08 0 0 1 14 5.5c.684 1.693 1.684 3.193 3 4.5-.124.607-.457.94-1 1a16.34 16.34 0 0 0-5-2c-3.85-2.761-7.517-5.761-11-9z"/><path fill="#bd735a" d="M61.5 220.5h4 2 7c1.627 2.13 3.46 4.13 5.5 6 .383-.556.883-.889 1.5-1 1.601 2.353 3.601 4.52 6 6.5-1.838 2.303-4.171 2.969-7 2-2.766-1.371-5.099-3.204-7-5.5-1.846-3.339-4.679-5.339-8.5-6-.165 2.178.668 4.011 2.5 5.5l-1 .5c-1.646-1.279-2.813-2.945-3.5-5-.671-.752-1.504-1.086-2.5-1l1-2z"/><path fill="#211b1b" d="M173.5 205.5a59.93 59.93 0 0 0-5.5 4c-.765 1.566-.598 2.899.5 4 1.429 5.629 3.429 10.963 6 16 .378 2.421 1.045 4.754 2 7-.734 1.208-1.067 2.541-1 4-4.75.211-9.416-1.122-14-4-.683.363-1.35.696-2 1l-2-1c0-.667-.333-1-1-1a26 26 0 0 1-5-7c6.805-5.815 12.138-12.815 16-21 1.642-1.581 3.642-2.247 6-2z"/><path fill="#304548" d="M15.5 208.5v47h-2c.65-15.371-.016-30.371-2-45 1.014-1.174 2.347-1.84 4-2z"/><path fill="#e7ac88" d="M60.5 222.5c.996-.086 1.829.248 2.5 1 .687 2.055 1.854 3.721 3.5 5l1-.5c-1.832-1.489-2.665-3.322-2.5-5.5 3.821.661 6.654 2.661 8.5 6 .087 2.608-.579 5.274-2 8 4.5-.336 6.333 1.664 5.5 6-1.992 1.165-3.825 2.498-5.5 4 1.358-6.498-.475-7.498-5.5-3l-1 10-1-6c-1.375 2.437-1.875 5.103-1.5 8h-18c2.881-10.311 6.547-20.311 11-30 1.833-.748 3.499-1.748 5-3z"/><path fill="#1c282c" d="M16.5 207.5c1.395 4.091 2.229 8.424 2.5 13a11.34 11.34 0 0 0 3.5 1.5c-1.964 10.912-2.631 22.078-2 33.5h-5v-47c0-.667.333-1 1-1z"/><path fill="#623d27" d="M125.5 222.5v-1h2c1.068.934 2.401 1.268 4 1 3.483 3.239 7.15 6.239 11 9-.667 0-1 .333-1 1-3.778-2.305-7.278-4.972-10.5-8-1.022.854-1.855 1.854-2.5 3 .774 1.211 1.607 1.211 2.5 0 3.743 2.924 7.243 5.924 10.5 9h-1c-1.494-.899-2.994-.565-4.5 1-1.129-1.641-2.629-2.641-4.5-3-.896-1.006-1.562-1.006-2 0-1.145 1.293-.811 2.459 1 3.5l-3 1.5c.284-1.915-.049-3.581-1-5v-2-2c.963-.863.963-1.53 0-2l-7 4c0-.667-.333-1-1-1l6-4c4.598-1.192 4.931-2.859 1-5z"/><path fill="#392a22" d="M127.5 221.5h9a388.88 388.88 0 0 1 11 6c-.149 1.052.017 2.052.5 3 .816-1.323 1.983-1.989 3.5-2a26 26 0 0 0 5 7c-.904.709-1.237 1.709-1 3l-8-5c.543-.06.876-.393 1-1-1.316-1.307-2.316-2.807-3-4.5a59.08 59.08 0 0 0-14-5.5c-1.599.268-2.932-.066-4-1z"/><path fill="#2c3d42" d="M28.5 192.5c1.517 5.086 2.35 10.419 2.5 16 .748 3.933 1.915 7.6 3.5 11a24.93 24.93 0 0 0 1 8c-9.523 9.288-8.523 10.288 3 3 1.648 1.826 3.648 3.16 6 4 1.785 2.422 3.452 2.422 5 0 .543-.06.876-.393 1-1-6.755-2.754-9.755-7.754-9-15-.131-.739.036-1.406.5-2l6.5 6.5c2.065 1.542 4.065 1.709 6 .5.838.342 1.172 1.008 1 2-4.453 9.689-8.119 19.689-11 30h-24c-.631-11.422.036-22.588 2-33.5a11.34 11.34 0 0 1-3.5-1.5c-.271-4.576-1.105-8.909-2.5-13 .791-.901 1.791-1.568 3-2a31.59 31.59 0 0 1 3 9c1.771 5.809 5.438 8.809 11 9-4.748-2.834-8.081-6.834-10-12a87.82 87.82 0 0 1-2-9 41.35 41.35 0 0 0 7-10z"/><path fill="#c58c7b" d="M35.5 227.5l3 3c-11.523 7.288-12.523 6.288-3-3z"/><path fill="#dd9282" d="M23.5 211.5c1.919 5.166 5.252 9.166 10 12-5.562-.191-9.229-3.191-11-9-.237-1.291.096-2.291 1-3z"/><path fill="#7d4b50" d="M44.5 234.5h5c-1.548 2.422-3.215 2.422-5 0z"/><path fill="#e6b390" d="M81.5 225.5c4.254 1.146 8.587 1.813 13 2-1.92 2.839-3.587 5.839-5 9-2.45 2.129-4.117 4.796-5 8-2.758 3.178-4.758 6.845-6 11h-12c1.237-3.238 2.904-6.238 5-9 1.675-1.502 3.508-2.835 5.5-4 .833-4.336-1-6.336-5.5-6 1.421-2.726 2.087-5.392 2-8 1.901 2.296 4.234 4.129 7 5.5 2.829.969 5.162.303 7-2-2.399-1.98-4.399-4.147-6-6.5z"/><path fill="#9e7659" d="M118.5 231.5c.667 0 1 .333 1 1a96 96 0 0 1-11 7h-2l4-3 8-5z"/><path fill="#aa7244" d="M126.5 230.5v2c-2.17 1.338-3.836 3.172-5 5.5-1.574.699-2.907.365-4-1a82.93 82.93 0 0 1 9-6.5z"/><path fill="#a65c45" d="M211.5 236.5c-1.414 1.554-3.081 2.888-5 4a111.49 111.49 0 0 0-7.5-12c.369 3.29.369 6.623 0 10-.876-2.135-2.376-3.469-4.5-4 .672-.767 1.505-1.434 2.5-2 .911-3.675 2.078-7.342 3.5-11 1.993 2.166 3.827 4.499 5.5 7l.5-1c-7.371-13.105-6.204-14.105 3.5-3 .26 3.077-.24 6.077-1.5 9-.018 1.873.482 2.206 1.5 1 .278.916.778 1.582 1.5 2z"/><path fill="#574742" d="M110.5 236.5l-4 3-3 2c-1.868-1.257-3.535-.924-5 1a17.55 17.55 0 0 0-6-3c-.886-.825-1.219-1.825-1-3h1c4.104-1.878 8.438-2.378 13-1.5.626.75 1.126 1.584 1.5 2.5 1.011-.837 2.178-1.17 3.5-1z"/><path fill="#c09257" d="M131.5 234.5c1.871.359 3.371 1.359 4.5 3 1.506-1.565 3.006-1.899 4.5-1-3.824 3.059-6.824 2.392-9-2z"/><path fill="#1f1918" d="M141.5 232.5c4.159 3.247 8.492 6.247 13 9-1.132.854-2.465.854-4 0-2.156-2.341-4.656-4.341-7.5-6-.383.556-.883.889-1.5 1-3.257-3.076-6.757-6.076-10.5-9-.893 1.211-1.726 1.211-2.5 0 .645-1.146 1.478-2.146 2.5-3 3.222 3.028 6.722 5.695 10.5 8z"/><path fill="#bf926e" d="M141.5 232.5c0-.667.333-1 1-1a16.34 16.34 0 0 1 5 2l8 5c5.973 5.306 11.64 10.973 17 17h-2c-4.089-5.425-9.089-9.758-15-13 0-.667-.333-1-1-1-4.508-2.753-8.841-5.753-13-9z"/><path fill="#2e231c" d="M126.5 230.5a82.93 82.93 0 0 0-9 6.5c1.093 1.365 2.426 1.699 4 1 1.164-2.328 2.83-4.162 5-5.5v2l-5 6c-2.672-1.544-5.005-1.211-7 1a34.48 34.48 0 0 0-11 3 28.07 28.07 0 0 0 5-5 96 96 0 0 0 11-7l7-4c.963.47.963 1.137 0 2z"/><path fill="#564441" d="M156.5 235.5c.667 0 1 .333 1 1-1.025.397-1.192 1.063-.5 2 5.635 4.633 10.968 9.633 16 15 .667-.667.667-1.333 0-2a265.63 265.63 0 0 1-13.5-14c.65-.304 1.317-.637 2-1 4.584 2.878 9.25 4.211 14 4 2.762 4.605 4.762 9.605 6 15h-9c-5.36-6.027-11.027-11.694-17-17-.237-1.291.096-2.291 1-3z"/><path fill="#cca181" d="M157.5 236.5l2 1a265.63 265.63 0 0 0 13.5 14c.667.667.667 1.333 0 2-5.032-5.367-10.365-10.367-16-15-.692-.937-.525-1.603.5-2z"/><path fill="#d29573" d="M174.5 229.5c3.611.286 6.444 1.952 8.5 5a93.92 93.92 0 0 0 2.5 21h-1c-2.295-6.568-4.961-12.901-8-19-.955-2.246-1.622-4.579-2-7z"/><path fill="#b07d53" d="M126.5 234.5c.271 2.321-.396 4.321-2 6 1.833 2.79 2.833 2.457 3-1l3-1.5c-1.811-1.041-2.145-2.207-1-3.5l3 4c-1.591 2.931-3.591 5.598-6 8-2-1.126-4-1.293-6-.5-1.333-1.84-1.166-2.34.5-1.5.464-.594.631-1.261.5-2v-2l5-6z"/><path fill="#f2d9c3" d="M126.5 234.5c.951 1.419 1.284 3.085 1 5-.167 3.457-1.167 3.79-3 1 1.604-1.679 2.271-3.679 2-6z"/><path fill="#ddb97f" d="M141.5 241.5c2.131.814 4.464 1.314 7 1.5-2.086.315-4.086.815-6 1.5l-5-3.5c1.319-.195 2.653-.028 4 .5z"/><path fill="#80645a" d="M91.5 236.5c-.219 1.175.114 2.175 1 3a17.55 17.55 0 0 1 6 3c1.465-1.924 3.132-2.257 5-1l-5 4c-1.196-.346-1.196-.846 0-1.5-.667-.667-1.333-.667-2 0l-8.5 8.5a6.54 6.54 0 0 0-3-3 32.29 32.29 0 0 0-4.5 6h-2c1.242-4.155 3.242-7.822 6-11 .883-3.204 2.55-5.871 5-8 .896-1.006 1.562-1.006 2 0z"/><path fill="#80654d" d="M141.5 241.5h9c1.535.854 2.868.854 4 0 .667 0 1 .333 1 1 .237 1.291-.096 2.291-1 3 .131-.739-.036-1.406-.5-2-3.367.633-6.534 1.633-9.5 3a3 3 0 0 1-2-2c1.914-.685 3.914-1.185 6-1.5-2.536-.186-4.869-.686-7-1.5z"/><path fill="#b79c88" d="M114.5 241.5c-1.694 2.361-3.694 4.361-6 6-2.534.241-4.2-.759-5-3a34.48 34.48 0 0 1 11-3z"/><path fill="#663923" d="M121.5 240.5v2c-.617-.111-1.117-.444-1.5-1-4.06 3.57-8.227 6.904-12.5 10-.067-1.459.266-2.792 1-4 2.306-1.639 4.306-3.639 6-6 1.995-2.211 4.328-2.544 7-1z"/><path fill="#d2936f" d="M121.5 242.5c.131.739-.036 1.406-.5 2-1.666-.84-1.833-.34-.5 1.5 2-.793 4-.626 6 .5 0 .667.333 1 1 1a.91.91 0 0 0 .5 1l6.5-6.5c.937-.692 1.603-.525 2 .5-1.937 1.431-3.77 3.098-5.5 5a32.46 32.46 0 0 0-.5 8h-26l2-3c.667 0 1-.333 1-1 4.273-3.096 8.44-6.43 12.5-10 .383.556.883.889 1.5 1z"/><path fill="#efc38c" d="M132.5 238.5c.789.283 1.456.783 2 1.5-2.539 2.37-4.872 4.87-7 7.5-.667 0-1-.333-1-1 2.409-2.402 4.409-5.069 6-8z"/><path fill="#c59c88" d="M84.5 244.5c1.969-2.147 3.803-4.48 5.5-7 .667 1 .667 2 0 3-1.912 2.157-3.579 4.491-5 7-.654 1.196-1.154 1.196-1.5 0 .627-.917.961-1.917 1-3z"/><path fill="#c6a381" d="M106.5 239.5h2a28.07 28.07 0 0 1-5 5c-5.219 2.546-9.552 6.213-13 11h-10a32.29 32.29 0 0 1 4.5-6 6.54 6.54 0 0 1 3 3l8.5-8.5c.667-.667 1.333-.667 2 0-1.196.654-1.196 1.154 0 1.5l5-4 3-2z"/><path fill="#dda480" d="M136.5 242.5l11 8c1.361 2.027 3.027 3.694 5 5h-22a32.46 32.46 0 0 1 .5-8c1.73-1.902 3.563-3.569 5.5-5z"/><path fill="#41312d" d="M131.5 234.5c2.176 4.392 5.176 5.059 9 2h1c.617-.111 1.117-.444 1.5-1 2.844 1.659 5.344 3.659 7.5 6h-9c-1.347-.528-2.681-.695-4-.5l5 3.5a3 3 0 0 0 2 2c.417.624 1.084.957 2 1 2.849-.464 5.516-1.131 8-2 .904-.709 1.237-1.709 1-3 5.911 3.242 10.911 7.575 15 13h-2c-3.332-4.164-7.165-7.831-11.5-11-.374.916-.874 1.75-1.5 2.5-3.101.638-5.768 1.805-8 3.5l-11-8c-.397-1.025-1.063-1.192-2-.5l-6.5 6.5a.91.91 0 0 1-.5-1c2.128-2.63 4.461-5.13 7-7.5-.544-.717-1.211-1.217-2-1.5l-3-4c.438-1.006 1.104-1.006 2 0z"/><path fill="#cca97b" d="M154.5 245.5c-2.484.869-5.151 1.536-8 2-.916-.043-1.583-.376-2-1 2.966-1.367 6.133-2.367 9.5-3 .464.594.631 1.261.5 2z"/><path fill="#5a4a47" d="M168.5 255.5h-16c-1.973-1.306-3.639-2.973-5-5 2.232-1.695 4.899-2.862 8-3.5.626-.75 1.126-1.584 1.5-2.5 4.335 3.169 8.168 6.836 11.5 11z"/><path fill="#6b514e" d="M106.5 252.5l-2 3h-12a22.19 22.19 0 0 1 9.5-8c.708 1.905 2.208 3.572 4.5 5z"/><path fill="#433742" d="M255.5 244.5v7c-2.726.236-5.059-.597-7-2.5 2.702-1.012 5.035-2.512 7-4.5z"/><path fill="#d59470" d="M71.5 246.5c-2.096 2.762-3.763 5.762-5 9h-4c-.375-2.897.125-5.563 1.5-8l1 6 1-10c5.025-4.498 6.858-3.498 5.5 3z"/><path fill="#46342e" d="M103.5 244.5c.8 2.241 2.466 3.241 5 3-.734 1.208-1.067 2.541-1 4 0 .667-.333 1-1 1-2.292-1.428-3.792-3.095-4.5-5a22.19 22.19 0 0 0-9.5 8h-2c3.448-4.787 7.781-8.454 13-11z"/><path fill="#7d5c4b" d="M176.5 236.5c3.039 6.099 5.705 12.432 8 19h-3c-1.238-5.395-3.238-10.395-6-15-.067-1.459.266-2.792 1-4z"/></svg>