<svg xmlns="http://www.w3.org/2000/svg" width="640" height="256" shape-rendering="geometricPrecision" image-rendering="optimizeQuality" fill-rule="evenodd" xmlns:v="https://vecta.io/nano"><path fill="#242e34" d="M81.5 31.5h112c.321 5.195-.013 10.195-1 15-8.639-4.99-17.973-7.99-28-9-3.812-.824-7.812-1.324-12-1.5l5-1c-4.292-.721-8.292-1.554-12-2.5-1.429 1.435-3.095 2.435-5 3-3.845-.078-7.678-.078-11.5 0a185.61 185.61 0 0 0-14.5 4.5c-1.918 2.928-4.585 4.594-8 5-7.284 6.084-13.284 12.584-18 19.5a4.45 4.45 0 0 0 2 1.5 11.49 11.49 0 0 1-4 4c.457.414.791.914 1 1.5-1.031 1.2-1.865 2.534-2.5 4-.252-1.878-.919-3.878-2-6-.176 4.188-.676 8.188-1.5 12v-50z" opacity=".999"/><path fill="#131a20" d="M193.5 31.5h4v19c-1.889-1.104-3.555-2.437-5-4 .987-4.805 1.321-9.805 1-15z" opacity=".995"/><path fill="#1e2d37" d="M197.5 31.5h61v44c-2.883.811-5.717.811-8.5 0-2.058.612-3.891 1.612-5.5 3-1.738-2.214-3.738-2.547-6-1-2.942-5.344-6.942-9.844-12-13.5l-20-5.5-9-8v-19z" opacity=".998"/><path fill="#f7c1b5" d="M151.5 37.5c-.111.617-.444 1.117-1 1.5 2.754.272 5.421.772 8 1.5-2.642 2.817-5.975 4.317-10 4.5-.585 1.302-1.251 2.469-2 3.5-2.784-2.495-5.451-1.995-8 1.5-1.293.49-2.627.657-4 .5 2.306-5.304 5.973-9.304 11-12a19.24 19.24 0 0 1 6-1z"/><path fill="#ea9592" d="M145.5 38.5c-5.027 2.696-8.694 6.696-11 12a314.48 314.48 0 0 1 0 10c-1.599-.268-2.932.066-4 1-1.237 1.465-2.237 3.132-3 5-.333 1.333-.667 1.333-1 0 .528-1.347.695-2.681.5-4-1.586 2.171-2.92 4.504-4 7 .007-3.363 1.173-6.363 3.5-9-.457-.797-1.124-1.131-2-1 1.474-1.175 3.14-2.175 5-3-.743-.682-1.409-1.349-2-2v-3c-2.714.25-5.381.417-8 .5 3.874-2.462 7.54-5.129 11-8 1.238-.69 1.238-1.19 0-1.5 4.845-1.575 9.845-2.908 15-4z"/><path fill="#212a30" d="M76.5 31.5c.119 18.35-.381 36.683-1.5 55l-1-16c-.192 2.077-.692 4.077-1.5 6-1.109-1.09-2.109-1.09-3 0a4.45 4.45 0 0 0 2 1.5c-1.293.49-2.627.657-4 .5.325 7.187-.009 14.187-1 21v-68h10z"/><path fill="#f4ada9" d="M158.5 40.5l8 2c5.549 3.375 10.716 7.375 15.5 12 1.241 1.377 1.408 2.71.5 4a148.33 148.33 0 0 0-27.5-13c-1.792-.019-2.292.314-1.5 1-1.233 2.296-3.233 3.63-6 4h-5l4-2c.749-1.031 1.415-2.198 2-3.5 4.025-.183 7.358-1.683 10-4.5z"/><path fill="#a95c63" d="M151.5 37.5h13c10.027 1.01 19.361 4.01 28 9 1.445 1.563 3.111 2.896 5 4l9 8c5.477 6.474 10.144 13.474 14 21 .219 1.175-.114 2.175-1 3l-3.5-8 1 11c-1.951-5.862-4.285-11.529-7-17l4 16c2.265 1.416 3.431 3.416 3.5 6v2c-.91-1.519-1.743-3.185-2.5-5l-1 1-4-4c-.456-1.244.044-2.077 1.5-2.5-.544-.717-1.211-1.217-2-1.5-4.23-5.445-7.73-11.445-10.5-18-7.945-7.597-16.778-14.097-26.5-19.5-1.973-.495-3.973-.662-6-.5l-8-2c-2.579-.728-5.246-1.228-8-1.5.556-.383.889-.883 1-1.5z"/><path fill="#fddfcd" d="M146.5 48.5l-4 2c-1.527-.073-2.527.594-3 2-.543.06-.876.393-1 1a16.08 16.08 0 0 1 2 5c-3.495-2.365-3.828-1.698-1 2-2.739 4.692-5.739 5.025-9 1 1.068-.934 2.401-1.268 4-1v-10c1.373.157 2.707-.01 4-.5 2.549-3.495 5.216-3.995 8-1.5z"/><path fill="#a94b46" d="M142.5 50.5h5c7.195 3.857 13.529 8.857 19 15-7.86-6.764-16.86-11.097-27-13 .473-1.406 1.473-2.073 3-2z"/><path fill="#e59a9e" d="M153.5 46.5c5.871 1.272 11.204 3.606 16 7 1.779 4.447 1.112 8.447-2 12 2.837 2.492 4.837 5.492 6 9l-2-1c-.624-2.254-1.957-3.921-4-5-.61-.891-.943-1.891-1-3-5.471-6.143-11.805-11.143-19-15 2.767-.37 4.767-1.704 6-4z"/><path fill="#c75857" d="M127.5 54.5l2 2c-1.86.825-3.526 1.825-5 3-7.048 4.072-11.715 10.072-14 18l-1.5 3c1.704-9.564 6.204-17.731 13.5-24.5a8.8 8.8 0 0 1 5-1.5z"/><path fill="#121b24" d="M206.5 58.5l20 5.5c5.058 3.656 9.058 8.156 12 13.5l-2 1c-4.777 1.467-9.444 2.133-14 2h-1c0-.667-.333-1-1-1-3.856-7.526-8.523-14.526-14-21z"/><path fill="#f7bcb8" d="M169.5 53.5c3.174.51 5.508 2.177 7 5-.275 2.342-1.108 2.342-2.5 0l-.5 1c2.619 4.48 2.619 8.147 0 11a117.97 117.97 0 0 1 10 18c-.124.607-.457.94-1 1-2.26-5.533-5.26-10.533-9-15-1.163-3.508-3.163-6.508-6-9 3.112-3.553 3.779-7.553 2-12z"/><path fill="#f3abad" d="M139.5 52.5c10.14 1.903 19.14 6.236 27 13 .057 1.109.39 2.109 1 3-1.811 3.767-1.311 7.1 1.5 10l2.5-5 2 1a139.14 139.14 0 0 1 8 17.5c-.111 1.722-.611 1.888-1.5.5a148.68 148.68 0 0 0-10-13c-.667 1-.667 2 0 3 2.077 1.576 3.577 3.576 4.5 6-1.282-.412-2.282.254-3 2-1.048-2.433-1.714-2.433-2 0-1.1 1.058-2.434 1.892-4 2.5-1.323.816-1.989 1.983-2 3.5l-2-1c-1.738-2.421-3.071-5.088-4-8-3.644-10.948-9.311-20.615-17-29a16.08 16.08 0 0 0-2-5c.124-.607.457-.94 1-1z"/><path fill="#d37d7e" d="M166.5 42.5c2.027-.162 4.027.005 6 .5 9.722 5.403 18.555 11.903 26.5 19.5 2.77 6.555 6.27 12.555 10.5 18-.06.543-.393.876-1 1-.98-1.481-2.147-2.815-3.5-4-3.165-6.334-6.831-12.334-11-18 .899 3.132 2.399 6.132 4.5 9-.346 1.196-.846 1.196-1.5 0-.691 3.091-2.524 4.257-5.5 3.5-2.203-2.372-4.537-4.539-7-6.5l-8-7c-1.492-2.823-3.826-4.49-7-5-4.796-3.394-10.129-5.728-16-7-.792-.686-.292-1.019 1.5-1a148.33 148.33 0 0 1 27.5 13c.908-1.29.741-2.623-.5-4-4.784-4.625-9.951-8.625-15.5-12z"/><path fill="#efa1a4" d="M139.5 60.5c1.517.011 2.684.677 3.5 2 1.012 2.702 2.512 5.035 4.5 7-.802 1.452-1.302 3.118-1.5 5l-3-4c-2.783 1.773-5.783 3.106-9 4-1.365-.344-2.532-1.011-3.5-2a26.72 26.72 0 0 0-1.5 7c-.175-4.519-.675-8.853-1.5-13 .763-1.868 1.763-3.535 3-5 3.261 4.025 6.261 3.692 9-1z"/><path fill="#e89ea1" d="M176.5 58.5l8 7c.057 1.109.39 2.109 1 3-.31 1.238-.81 1.238-1.5 0l-.5 2.5c2.155 6.621 4.155 13.287 6 20-.344 1.365-1.011 2.532-2 3.5a349.17 349.17 0 0 0 3 11.5c-.014 1.385-.348 2.551-1 3.5-1.069-4.979-2.735-9.646-5-14-.471-2.079-1.137-4.079-2-6 .543-.06.876-.393 1-1a117.97 117.97 0 0 0-10-18c2.619-2.853 2.619-6.52 0-11l.5-1c1.392 2.342 2.225 2.342 2.5 0z"/><path fill="#31373a" d="M164.5 37.5h-13a19.24 19.24 0 0 0-6 1c-5.155 1.092-10.155 2.425-15 4l-7 2c-9.026-.074-16.526 3.593-22.5 11-4.389 4.821-7.055 10.488-8 17-1.566 3.252-3.399 6.252-5.5 9-2.806 1.799-4.139 4.466-4 8h3c-.565 4.037-1.899 7.703-4 11-1.579-6.172-1.913-12.505-1-19 .824-3.812 1.324-7.812 1.5-12 1.081 2.122 1.748 4.122 2 6 .635-1.466 1.469-2.8 2.5-4-.209-.586-.543-1.086-1-1.5a11.49 11.49 0 0 0 4-4 4.45 4.45 0 0 1-2-1.5c4.716-6.916 10.716-13.416 18-19.5 3.415-.406 6.082-2.072 8-5a185.61 185.61 0 0 1 14.5-4.5c3.822-.078 7.655-.078 11.5 0 1.905-.565 3.571-1.565 5-3 3.708.946 7.708 1.779 12 2.5l-5 1c4.188.176 8.188.676 12 1.5z"/><path fill="#fcd7c2" d="M167.5 68.5c2.043 1.079 3.376 2.746 4 5l-2.5 5c-2.811-2.9-3.311-6.233-1.5-10z"/><path fill="#9f4a4f" d="M209.5 80.5c.789.283 1.456.783 2 1.5-1.456.423-1.956 1.256-1.5 2.5l4 4 1-1c.757 1.815 1.59 3.481 2.5 5-1.68 2.226-1.347 3.893 1 5l2 3-6-2a8.43 8.43 0 0 0-.5-4c-5.257 4.613-9.59 3.946-13-2a.91.91 0 0 0-.5 1c-2.539-6.744-5.872-13.078-10-19-1.201-2.409-2.867-4.409-5-6-.61-.891-.943-1.891-1-3 2.463 1.961 4.797 4.128 7 6.5 2.976.757 4.809-.409 5.5-3.5.654 1.196 1.154 1.196 1.5 0-2.101-2.868-3.601-5.868-4.5-9 4.169 5.666 7.835 11.666 11 18 1.353 1.185 2.52 2.519 3.5 4 .607-.124.94-.457 1-1z"/><path fill="#f8b7b8" d="M126.5 66.5c.333 1.333.667 1.333 1 0 .825 4.147 1.325 8.481 1.5 13a26.72 26.72 0 0 1 1.5-7c.968.989 2.135 1.656 3.5 2 3.217-.894 6.217-2.227 9-4l3 4c.198-1.882.698-3.548 1.5-5 5.126 8.056 8.46 16.722 10 26a8.43 8.43 0 0 1-.5 4c-.743-2.145-1.576-2.311-2.5-.5-.661 2.464-1.161 4.964-1.5 7.5-1.853-5.68-3.02-11.513-3.5-17.5.405-.945 1.072-1.612 2-2-2.406-1.622-4.239-3.789-5.5-6.5 2.07 8.444 3.237 17.111 3.5 26h-3a8.43 8.43 0 0 0-.5-4 74.12 74.12 0 0 1-4 9l-9-10 2 8-2-2c-2.041.923-4.208 1.256-6.5 1l-2 7c-.06.543-.393.876-1 1a52.51 52.51 0 0 1-2-12c.722-.418 1.222-1.084 1.5-2 .451 2.429 1.285 2.596 2.5.5-1.333-1-1.333-2 0-3 2.05-1.332 4.05-1.499 6-.5.397 1.025 1.063 1.192 2 .5-1.537-2.313-2.037-4.813-1.5-7.5 3.454 9.754 7.454 10.087 12 1a6.8 6.8 0 0 0 1.5 3c1.185-3.114.518-5.781-2-8-3.973 4.362-8.473 5.029-13.5 2-1.007 2.242-1.841 1.908-2.5-1-1.737-7.769-2.071-15.435-1-23z"/><path fill="#d57f86" d="M140.5 58.5c7.689 8.385 13.356 18.052 17 29-.486 2.452-.486 5.118 0 8-1.54-9.278-4.874-17.944-10-26-1.988-1.965-3.488-4.298-4.5-7-.816-1.323-1.983-1.989-3.5-2-2.828-3.698-2.495-4.365 1-2z"/><path fill="#dea683" d="M258.5 77.5v41c-2.532-3.711-5.532-7.044-9-10-.387-4.359.28-8.525 2-12.5l-.5-1.5c-.689.857-1.522 1.523-2.5 2a9.86 9.86 0 0 1-1-6c1.627-4.802 4.294-8.968 8-12.5a4.93 4.93 0 0 1 3-.5z" opacity=".989"/><path fill="#484240" d="M123.5 44.5c-14.228 9.23-24.894 21.563-32 37-.667 0-1 .333-1 1-.891-.61-1.891-.943-3-1 2.101-2.748 3.934-5.748 5.5-9 .945-6.512 3.611-12.179 8-17 5.974-7.407 13.474-11.074 22.5-11z"/><path fill="#f9bfba" d="M124.5 59.5c.876-.131 1.543.203 2 1-2.327 2.637-3.493 5.637-3.5 9 1.08-2.496 2.414-4.829 4-7 .195 1.319.028 2.653-.5 4-1.071 7.565-.737 15.231 1 23a7.06 7.06 0 0 1-2.5-2 60.93 60.93 0 0 0-.5 11c3.544.261 5.378-1.406 5.5-5l1.5 6c-1.95-.999-3.95-.832-6 .5-1.333 1-1.333 2 0 3-1.215 2.096-2.049 1.929-2.5-.5-.278.916-.778 1.582-1.5 2-.734-1.208-1.067-2.541-1-4 .249-3.958-.418-7.624-2-11 .171-3.297-.495-3.631-2-1-3.339-3.016-5.339-6.683-6-11 2.285-7.928 6.952-13.928 14-18z"/><path fill="#fdddd0" d="M162.5 79.5c2.906 2.415 3.573 5.415 2 9a11.47 11.47 0 0 1-2.5 1c-1.649-1.286-2.815-2.953-3.5-5 2.111-1.105 3.445-2.771 4-5z"/><path fill="#823b41" d="M220.5 79.5c.667 0 1 .333 1 1 .572 1.755 1.406 3.422 2.5 5 1.179 5.402.179 6.068-3 2-.422 1.926-1.589 2.926-3.5 3-.069-2.584-1.235-4.584-3.5-6l-4-16c2.715 5.471 5.049 11.138 7 17l-1-11 3.5 8c.886-.825 1.219-1.825 1-3z"/><path fill="#dc8083" d="M193.5 75.5c3.02-.972 6.02-.472 9 1.5 2.81 3.881 5.477 7.881 8 12-3.381 3.138-6.714 3.138-10 0l4-1a14.44 14.44 0 0 1-5.5-2.5 74.75 74.75 0 0 1-5.5-10z"/><path fill="#c98b73" d="M243.5 81.5a4.93 4.93 0 0 1 3 .5 71.74 71.74 0 0 0-6 12.5 3 3 0 0 0-2 2l-4 1 5-5c-1.54-1.032-2.04-2.365-1.5-4 1.666-2.496 3.5-4.829 5.5-7z"/><path fill="#93474e" d="M236.5 78.5l-10 7a3 3 0 0 0 2 2 24.23 24.23 0 0 0 5.5-1c.692.937.525 1.603-.5 2-1.951 1.216-3.451 2.882-4.5 5l-1-3c-.251 1.933-.751 3.766-1.5 5.5 1.766 1.698 3.766 3.031 6 4-1.941.743-3.774.576-5.5-.5-.483.948-.649 1.948-.5 3 5.111.111 9.111-1.889 12-6a3 3 0 0 1 2-2c-1.03 3.199-2.697 6.032-5 8.5.336 1.03 1.003 1.53 2 1.5-.453.958-1.119 1.792-2 2.5-2.31.497-4.643.663-7 .5-2.616-.98-4.949-2.48-7-4.5 1.256-.417 1.923-1.25 2-2.5 1.668-1.979 2.334-4.312 2-7-.293-3.937.04-7.77 1-11.5-1.866 1.008-3.199.508-4-1.5 4.556.133 9.223-.533 14-2z"/><path fill="#df9489" d="M244.5 93.5l-2 4c.166-6.365 2.666-12.031 7.5-17l-5.5 13z"/><path fill="#413f42" d="M308.5 88.5c5.011-.166 10.011.001 15 .5 10.455 1.011 12.955 6.178 7.5 15.5l-3.5 3.5c-4.191-1.277-8.524-1.944-13-2-6.092 2.329-9.092 6.829-9 13.5.349 7.4 4.015 12.067 11 14 3.203-.635 4.536-2.635 4-6h-5v-10c6.061-.29 12.061.043 18 1l1 14.5c-.03 5.25-.696 10.25-2 15-32.781 7.885-47.614-4.948-44.5-38.5 3.025-10.857 9.858-17.857 20.5-21z" opacity=".946"/><path fill="#413f41" d="M474.5 88.5c22.399-1.434 33.733 9.066 34 31.5-.887 22.552-12.553 32.552-35 30-10.5-2.5-17-9-19.5-19.5-2.143-9.525-1.476-18.859 2-28 4.344-7.19 10.511-11.857 18.5-14zm4 17c5.787.284 9.287 3.284 10.5 9 1.589 6.7.089 12.534-4.5 17.5-6.451 2.178-10.618.011-12.5-6.5-2.288-8.32-.122-14.987 6.5-20z" opacity=".955"/><path fill="#403f41" d="M403.5 89.5c37.919-5.469 51.752 10.197 41.5 47-3.065 6.727-8.231 10.894-15.5 12.5-8.667.667-17.333.667-26 0l-1.5-1.5a783.86 783.86 0 0 1 0-56c.717-.544 1.217-1.211 1.5-2zm15 17c5.982-.511 9.482 2.155 10.5 8 1.186 6.19.019 11.857-3.5 17-2.29 2.467-4.457 2.467-6.5 0-.5-8.327-.666-16.66-.5-25z" opacity=".955"/><path fill="#414042" d="M510.5 89.5c13.337-.167 26.671 0 40 .5 1.135 4.748 1.302 9.581.5 14.5-3.73.96-7.563 1.293-11.5 1v44c-5.985 1.651-11.819 1.317-17.5-1a924.22 924.22 0 0 1-.5-43c-3.726.323-7.393-.011-11-1a29.82 29.82 0 0 1 0-15z" opacity=".943"/><path fill="#bb9276" d="M91.5 81.5c-.756 4.267-2.089 8.267-4 12-.38-4.071.62-7.738 3-11 0-.667.333-1 1-1z"/><path fill="#ab5a5c" d="M258.5 75.5v2a4.93 4.93 0 0 0-3 .5c-3.706 3.532-6.373 7.698-8 12.5l-2 3h-1l5.5-13c-4.834 4.969-7.334 10.635-7.5 17l-2 4c-.667 1.333-1.667 2.333-3 3-.997.03-1.664-.47-2-1.5 2.303-2.468 3.97-5.301 5-8.5a71.74 71.74 0 0 1 6-12.5 4.93 4.93 0 0 0-3-.5c-.438-1.006-1.104-1.006-2 0-3.913 1.177-5.579 3.51-5 7-.742 1.85-1.742 2.516-3 2v-2c1.025-.397 1.192-1.063.5-2a24.23 24.23 0 0 1-5.5 1 3 3 0 0 1-2-2l10-7 2-1c2.262-1.547 4.262-1.214 6 1 1.609-1.388 3.442-2.388 5.5-3 2.783.811 5.617.811 8.5 0z"/><path fill="#e9bc91" d="M241.5 81.5c-1.912 2.157-3.579 4.491-5 7-.579-3.49 1.087-5.823 5-7z"/><path fill="#cb7881" d="M190.5 74.5c4.128 5.922 7.461 12.256 10 19 .057 1.109.39 2.109 1 3-.237 1.291.096 2.291 1 3l1 8a134.38 134.38 0 0 1-10 48v-1c.321-5.195-.013-10.195-1-15 5.162-9.966 6.995-20.633 5.5-32-.043 5.85-.876 10.183-2.5 13v-3a160.41 160.41 0 0 0 .5-24c-1.684-6.409-3.518-12.742-5.5-19z"/><path fill="#4d2620" d="M221.5 80.5h1c.801 2.008 2.134 2.508 4 1.5-.96 3.73-1.293 7.563-1 11.5-1.294-.79-2.461-1.79-3.5-3 .24 1.966 1.073 3.8 2.5 5.5-.734 2.84-2.068 3.506-4 2 .556-.383.889-.883 1-1.5-.902-1.841-2.236-3.174-4-4v-2c1.911-.074 3.078-1.074 3.5-3 3.179 4.068 4.179 3.402 3-2-1.094-1.578-1.928-3.245-2.5-5z"/><path fill="#642c2b" d="M157.5 87.5c.929 2.912 2.262 5.579 4 8-.617-.111-1.117-.444-1.5-1a12.93 12.93 0 0 0-.5 5l-2-4c-.486-2.882-.486-5.548 0-8z"/><path fill="#fdebe5" d="M127.5 89.5c.659 2.908 1.493 3.242 2.5 1 5.027 3.029 9.527 2.362 13.5-2 2.518 2.219 3.185 4.886 2 8a6.8 6.8 0 0 1-1.5-3c-4.546 9.087-8.546 8.754-12-1-.537 2.687-.037 5.187 1.5 7.5-.937.692-1.603.525-2-.5l-1.5-6c-.122 3.594-1.956 5.261-5.5 5a60.93 60.93 0 0 1 .5-11 7.06 7.06 0 0 0 2.5 2z"/><path fill="#82442d" d="M225.5 93.5c.334 2.688-.332 5.021-2 7-1.152 1.125-2.152 1.125-3 0l-2-3c-.131-.739.036-1.406.5-2 .671.752 1.504 1.086 2.5 1-.111.617-.444 1.117-1 1.5 1.932 1.506 3.266.84 4-2-1.427-1.7-2.26-3.534-2.5-5.5 1.039 1.21 2.206 2.21 3.5 3z"/><path fill="#8b4147" d="M243.5 81.5c-2 2.171-3.834 4.504-5.5 7-.54 1.635-.04 2.968 1.5 4l-5 5c-2.25.319-4.25-.181-6-1.5l5-5.5c1.258.516 2.258-.15 3-2 1.421-2.509 3.088-4.843 5-7 .896-1.006 1.562-1.006 2 0z"/><path fill="#c5a24f" d="M217.5 92.5c1.764.826 3.098 2.159 4 4-.996.086-1.829-.248-2.5-1-.464.594-.631 1.261-.5 2-2.347-1.107-2.68-2.774-1-5z"/><path fill="#8f4e5a" d="M244.5 93.5h1l-2 10c.175 7.796-1.825 14.963-6 21.5a8.43 8.43 0 0 1-4 .5c-1.125-1.152-1.125-2.152 0-3 2.207 1.37 3.874.703 5-2a67.87 67.87 0 0 0 3.5-15 103.38 103.38 0 0 1-4.5 8.5c-3.275.982-5.941.149-8-2.5v-2c1.127.622 2.127 1.455 3 2.5 1.333.667 2.667.667 4 0 3.033-3.168 4.366-6.668 4-10.5l2-4 2-4z"/><path fill="#d47a81" d="M173.5 74.5c3.74 4.467 6.74 9.467 9 15 .863 1.921 1.529 3.921 2 6-1.222 1.437-1.222 2.937 0 4.5-.405.945-1.072 1.612-2 2 2.222 2.618 3.722 5.451 4.5 8.5-6.869-5.432-12.035-12.099-15.5-20 .718-1.746 1.718-2.412 3-2-.923-2.424-2.423-4.424-4.5-6-.667-1-.667-2 0-3a148.68 148.68 0 0 1 10 13c.889 1.388 1.389 1.222 1.5-.5a139.14 139.14 0 0 0-8-17.5z"/><path fill="#fbc3be" d="M117.5 99.5v4h-4c.163 2.357-.003 4.69-.5 7l-2-10a144.3 144.3 0 0 1-3.5 10c-1.193-7.544-.359-14.877 2.5-22 .885 2.5 2.052 4.833 3.5 7l2-1c.67 1.791 1.337 3.458 2 5z"/><path fill="#6b2937" d="M214.5 98.5c-1.238-.912-2.572-1.079-4-.5-1.274.977-1.274 1.811 0 2.5.448 6.708 1.114 13.374 2 20a3 3 0 0 1-2-2l-2-18.5c-.852-1.898-1.519-1.731-2 .5.728 1.655.895 3.321.5 5a32.5 32.5 0 0 1-3-7 7.06 7.06 0 0 0-2.5-2c-.61-.891-.943-1.891-1-3a.91.91 0 0 1 .5-1c3.41 5.946 7.743 6.613 13 2a8.43 8.43 0 0 1 .5 4z"/><path fill="#5c2a2f" d="M233.5 88.5v2l-5 5.5c1.75 1.319 3.75 1.819 6 1.5l4-1c-2.889 4.111-6.889 6.111-12 6-.149-1.052.017-2.052.5-3 1.726 1.076 3.559 1.243 5.5.5-2.234-.969-4.234-2.302-6-4 .749-1.734 1.249-3.567 1.5-5.5l1 3c1.049-2.118 2.549-3.784 4.5-5z"/><path fill="#8c4b35" d="M247.5 90.5a9.86 9.86 0 0 0 1 6c.978-.477 1.811-1.143 2.5-2l.5 1.5c-1.72 3.975-2.387 8.141-2 12.5 0 .667-.333 1-1 1v-5c-1.792.134-3.458-.199-5-1l2-10 2-3z"/><path fill="#8e5643" d="M161.5 95.5l2 1c1.92 2.839 3.587 5.839 5 9-1.105-1.1-2.438-1.767-4-2-1.903.296-3.57.963-5 2a25.14 25.14 0 0 0-4.5 4c.372-2.42 1.705-4.42 4-6a8.43 8.43 0 0 0 .5-4 12.93 12.93 0 0 1 .5-5c.383.556.883.889 1.5 1z"/><path fill="#172025" d="M78.5 31.5h3v50c-.913 6.495-.579 12.828 1 19a80.87 80.87 0 0 0-2 21l-2 10v-100z"/><path fill="#28363b" d="M76.5 31.5h2v100 1c-2.551 10.394-2.218 20.728 1 31 .095 2.858 1.262 5.191 3.5 7-.31 6.136-2.476 11.636-6.5 16.5-3.456 1.123-6.29.29-8.5-2.5 1.293 6.549 4.793 7.715 10.5 3.5a36.57 36.57 0 0 0 10-12.5c.824 3.812 1.324 7.812 1.5 12 .39 2.604 1.224 4.938 2.5 7v4c-2.179-.34-4.012-1.34-5.5-3-1.781-2.774-3.115-5.774-4-9-.586 7.857 2.914 12.524 10.5 14v2c-1.533 1.855-3.2 3.688-5 5.5 2.377-.827 4.711-1.994 7-3.5.936 1.474 2.27 2.474 4 3 1.595 1.661 3.262 2.328 5 2a168.37 168.37 0 0 0-4 14h-34v-124c.991-6.813 1.325-13.813 1-21 1.373.157 2.707-.01 4-.5a4.45 4.45 0 0 1-2-1.5c.891-1.09 1.891-1.09 3 0 .808-1.923 1.308-3.923 1.5-6l1 16c1.119-18.317 1.619-36.65 1.5-55z"/><path fill="#eb9c9d" d="M118.5 89.5c1.582 3.376 2.249 7.042 2 11-1.248.834-1.915 2.167-2 4-1.532 7.559-1.198 14.892 1 22-.306 2.885.027 5.552 1 8v3a7.11 7.11 0 0 0-5 1c.209.586.543 1.086 1 1.5-1.537 1.11-2.203 2.61-2 4.5-1.06-3.872-.893-7.872.5-12 .419 1.172 1.085 2.172 2 3a84.85 84.85 0 0 0-4.5-12c-.798.457-1.131 1.124-1 2-1.058 1.1-1.892 2.434-2.5 4-1.323-3.627-2.489-7.293-3.5-11 .617.111 1.117.444 1.5 1 .498-2.982.665-5.982.5-9a144.3 144.3 0 0 0 3.5-10l2 10c.497-2.31.663-4.643.5-7h4v-4c.824-3.264 1.158-6.598 1-10z"/><path fill="#e89696" d="M169.5 90.5c4.179 7.72 6.013 16.053 5.5 25-1.432-3.877-3.598-7.211-6.5-10-1.413-3.161-3.08-6.161-5-9 .011-1.517.677-2.684 2-3.5 1.566-.608 2.9-1.442 4-2.5z"/><path fill="#e08f93" d="M185.5 68.5c2.133 1.591 3.799 3.591 5 6 1.982 6.258 3.816 12.591 5.5 19a160.41 160.41 0 0 1-.5 24c-5.32.074-7.32-2.593-6-8 .652-.949.986-2.115 1-3.5a349.17 349.17 0 0 1-3-11.5c.989-.968 1.656-2.135 2-3.5-1.845-6.713-3.845-13.379-6-20l.5-2.5c.69 1.238 1.19 1.238 1.5 0z"/><path fill="#622630" d="M202.5 99.5c2.176 6.357 4.509 12.69 7 19-2.014-.108-3.68.558-5 2 .317-4.202-.017-8.202-1-12v-1l-1-8z"/><path fill="#181a21" d="M240.5 101.5c.366 3.832-.967 7.332-4 10.5-1.333.667-2.667.667-4 0-.873-1.045-1.873-1.878-3-2.5l-1-2c2.357.163 4.69-.003 7-.5.881-.708 1.547-1.542 2-2.5 1.333-.667 2.333-1.667 3-3z"/><path fill="#904053" d="M201.5 96.5a7.06 7.06 0 0 1 2.5 2 32.5 32.5 0 0 0 3 7c.395-1.679.228-3.345-.5-5 .481-2.231 1.148-2.398 2-.5l2 18.5h-1c-2.491-6.31-4.824-12.643-7-19-.904-.709-1.237-1.709-1-3z"/><path fill="#fae5d5" d="M130.5 42.5c1.238.31 1.238.81 0 1.5-3.46 2.871-7.126 5.538-11 8 2.619-.083 5.286-.25 8-.5v3a8.8 8.8 0 0 0-5 1.5c-7.296 6.769-11.796 14.936-13.5 24.5l1.5-3c.661 4.317 2.661 7.984 6 11 1.505-2.631 2.171-2.297 2 1 .158 3.402-.176 6.736-1 10-.663-1.542-1.33-3.209-2-5l-2 1c-1.448-2.167-2.615-4.5-3.5-7-2.859 7.123-3.693 14.456-2.5 22 .165 3.018-.002 6.018-.5 9-.383-.556-.883-.889-1.5-1v-2c-.025-9.703.141-19.37.5-29-1.631 4.188-2.464 8.521-2.5 13-.902 3.483-1.568 7.15-2 11 .915 3.644 1.081 7.31.5 11a6.8 6.8 0 0 0-1.5-3c-.927 1.613-1.761 3.279-2.5 5-2.163-10.904-1.663-21.737 1.5-32.5-.444-1.762-.944-1.595-1.5.5-2.365 9.189-3.532 18.522-3.5 28a288.43 288.43 0 0 1-.5 24 134.54 134.54 0 0 1-4-33v41c-.24 2.352-1.073 4.352-2.5 6 .317-4.202-.017-8.202-1-12 .382-4.78.049-8.114-1-10a187.2 187.2 0 0 0-5 20c1.113-12.015 2.447-24.015 4-36l-.5-2c-1.815 5.263-3.315 10.597-4.5 16-.838-.342-1.172-1.008-1-2v-1l2-10c2.615-9.125 4.948-18.459 7-28 1.911-3.733 3.244-7.733 4-12 7.106-15.437 17.772-27.77 32-37l7-2z"/><path fill="#545454" d="M87.5 81.5c1.109.057 2.109.39 3 1-2.38 3.262-3.38 6.929-3 11-2.052 9.541-4.385 18.875-7 28a80.87 80.87 0 0 1 2-21c2.101-3.297 3.435-6.963 4-11h-3c-.139-3.534 1.194-6.201 4-8z"/><path fill="#b86e56" d="M164.5 103.5a49.87 49.87 0 0 0 1 14c.951-.826 1.951-.992 3-.5-2.54 2.205-4.707 4.705-6.5 7.5-.342-2.119-1.175-2.453-2.5-1v-18c1.43-1.037 3.097-1.704 5-2z"/><path fill="#c87174" d="M217.5 150.5a84.9 84.9 0 0 0-.5-13c-.186 2.536-.686 4.869-1.5 7 .323-6.19-.01-12.19-1-18l-2-6c-.886-6.626-1.552-13.292-2-20 3.614-.249 5.781 1.751 6.5 6 1.644 14.81 1.811 29.477.5 44z"/><path fill="#52232c" d="M214.5 98.5l6 2c.848 1.125 1.848 1.125 3 0-.077 1.25-.744 2.083-2 2.5 2.051 2.02 4.384 3.52 7 4.5l1 2v2c-.064 4.199 1.269 7.866 4 11-1.125.848-1.125 1.848 0 3h-1c-2.844-5.302-5.01-10.969-6.5-17-.654-1.196-1.154-1.196-1.5 0 .985 1.598 1.151 3.265.5 5-2.199-6.013-5.699-11.013-10.5-15z"/><path fill="#eba2a1" d="M105.5 116.5c-.944 3.168-.944 6.501 0 10-.722-.418-1.222-1.084-1.5-2-.5-7.993-.666-15.993-.5-24 .036-4.479.869-8.812 2.5-13-.359 9.63-.525 19.297-.5 29z"/><path fill="#9b5346" d="M120.5 100.5c-.067 1.459.266 2.792 1 4a52.51 52.51 0 0 0 2 12c.607-.124.94-.457 1-1 1.644-.214 3.144.12 4.5 1l4.5 11c-1.912-2.157-3.579-4.491-5-7v-3c-1.915-.284-3.581.049-5 1-1.322-.17-2.489.163-3.5 1-.497 2.31-.663 4.643-.5 7-2.198-7.108-2.532-14.441-1-22 .085-1.833.752-3.166 2-4z"/><path fill="#965648" d="M171.5 90.5c3.465 7.901 8.631 14.568 15.5 20-.778-3.049-2.278-5.882-4.5-8.5.928-.388 1.595-1.055 2-2-1.222-1.563-1.222-3.063 0-4.5 2.265 4.354 3.931 9.021 5 14-1.32 5.407.68 8.074 6 8v3c-.996-.086-1.829.248-2.5 1-.6 5.181-1.434 10.181-2.5 15 .31-3.213-.023-6.213-1-9 .162-2.027-.005-4.027-.5-6-1.302-.585-2.469-1.251-3.5-2 3.531-.725 4.198-2.058 2-4a.91.91 0 0 0 1-.5c-3.426-4.595-7.426-8.762-12-12.5l-1 1.5c1.843 5.33 5.177 9.163 10 11.5-3.409-.251-6.742.083-10 1l-11 10c-.958.453-1.792 1.119-2.5 2-.667-.667-.667-1.333 0-2a54.51 54.51 0 0 1 11.5-10c-1.421-3.838-3.088-7.505-5-11 2.902 2.789 5.068 6.123 6.5 10 .513-8.947-1.321-17.28-5.5-25 .286-2.433.952-2.433 2 0z"/><path fill="#da957b" d="M187.5 115.5h-2c-4.823-2.337-8.157-6.17-10-11.5l1-1.5c4.574 3.738 8.574 7.905 12 12.5a.91.91 0 0 1-1 .5z"/><path fill="#e69695" d="M157.5 95.5l2 4a8.43 8.43 0 0 1-.5 4c-2.295 1.58-3.628 3.58-4 6a25.14 25.14 0 0 1 4.5-4v18 3l-3-6a32.24 32.24 0 0 0-3-7c-.989 3.607-1.323 7.274-1 11a7.11 7.11 0 0 1-1 5 7.25 7.25 0 0 1-2.5-2c-.018 2.297.149 4.631.5 7h-1c-5.257-2.088-9.09-5.755-11.5-11 .809 3.322 1.976 6.655 3.5 10-.667 0-1 .333-1 1l-6-7-4.5-11c-1.356-.88-2.856-1.214-4.5-1l2-7c2.292.256 4.459-.077 6.5-1l2 2-2-8 9 10a74.12 74.12 0 0 0 4-9 8.43 8.43 0 0 1 .5 4h3c-.263-8.889-1.43-17.556-3.5-26 1.261 2.711 3.094 4.878 5.5 6.5-.928.388-1.595 1.055-2 2 .48 5.987 1.647 11.82 3.5 17.5.339-2.536.839-5.036 1.5-7.5.924-1.811 1.757-1.645 2.5.5a8.43 8.43 0 0 0 .5-4z"/><path fill="#171d29" d="M233.5 122.5c-2.731-3.134-4.064-6.801-4-11 2.059 2.649 4.725 3.482 8 2.5a103.38 103.38 0 0 0 4.5-8.5 67.87 67.87 0 0 1-3.5 15c-1.126 2.703-2.793 3.37-5 2z"/><path fill="#8e4450" d="M214.5 98.5c4.801 3.987 8.301 8.987 10.5 15 .651-1.735.485-3.402-.5-5 .346-1.196.846-1.196 1.5 0 1.49 6.031 3.656 11.698 6.5 17 .797 3.723 1.797 7.39 3 11v9c-.542 3.412-1.875 6.412-4 9-.206-2.049-1.039-2.383-2.5-1-.908 3.693-2.408 7.027-4.5 10 3.178-9.064 4.345-18.398 3.5-28a245.6 245.6 0 0 1-2 17c-.419 1.172-1.085 2.172-2 3l-.5-1c1.521-4.345 2.187-8.845 2-13.5-.002-3.352-.335-6.518-1-9.5-.322-6.936-1.822-13.603-4.5-20-.333 7.005-.167 14.005.5 21 .166 6.009-.001 12.009-.5 18-2.489 7.981-3.323 7.981-2.5 0 1.311-14.523 1.144-29.19-.5-44-.719-4.249-2.886-6.249-6.5-6-1.274-.689-1.274-1.523 0-2.5 1.428-.579 2.762-.412 4 .5z"/><path fill="#eea6a0" d="M128.5 120.5c.215 3.766 1.549 7.1 4 10-1.333 1.333-2.667 1.333-4 0l-5-12c1.419-.951 3.085-1.284 5-1v3z"/><path fill="#8f473f" d="M156.5 120.5c.131.739-.036 1.406-.5 2l-1-3c-.099 2.153-.933 3.819-2.5 5-.323-3.726.011-7.393 1-11a32.24 32.24 0 0 1 3 7z"/><path fill="#331e19" d="M185.5 115.5h2c2.198 1.942 1.531 3.275-2 4-4.521-.174-4.855.493-1 2 1.268 1.804 1.935 3.804 2 6 .268 1.599-.066 2.932-1 4h-1v-4c-.726-2.788-2.393-4.788-5-6h-1-2c-2.273.457-3.606 1.79-4 4 .237 1.291-.096 2.291-1 3-.838-.342-1.172-1.008-1-2 .149-1.052-.017-2.052-.5-3a21.53 21.53 0 0 0-5 6c-.483-.948-.649-1.948-.5-3l11-10c3.258-.917 6.591-1.251 10-1z"/><path fill="#151e2a" d="M243.5 103.5c1.542.801 3.208 1.134 5 1v5a118.17 118.17 0 0 1-10 31l-3-4c-1.203-3.61-2.203-7.277-3-11h1a8.43 8.43 0 0 0 4-.5c4.175-6.537 6.175-13.704 6-21.5z"/><path fill="#f9d1c8" d="M103.5 100.5c-.166 8.007 0 16.007.5 24 .278.916.778 1.582 1.5 2a51.57 51.57 0 0 0 1 7 .91.91 0 0 1-.5 1 87.45 87.45 0 0 1-6-11c-.174 5.184-.674 10.184-1.5 15v-2l-4-16c-.032-9.478 1.135-18.811 3.5-28 .556-2.095 1.056-2.262 1.5-.5-3.163 10.763-3.663 21.596-1.5 32.5.739-1.721 1.573-3.387 2.5-5a6.8 6.8 0 0 1 1.5 3c.581-3.69.415-7.356-.5-11 .432-3.85 1.098-7.517 2-11z"/><path fill="#d8843b" d="M178.5 121.5h1c.264 3.257 1.93 5.257 5 6v4c0 .667-.333 1-1 1-.333-2.333-1.667-3.667-4-4 .117-1.984-.55-3.65-2-5l1-2z"/><path fill="#975528" d="M179.5 121.5c2.607 1.212 4.274 3.212 5 6-3.07-.743-4.736-2.743-5-6z"/><path fill="#b6a19a" d="M185.5 119.5c1.031.749 2.198 1.415 3.5 2 .495 1.973.662 3.973.5 6 .172.992-.162 1.658-1 2a8.43 8.43 0 0 0-.5-4c-.278.916-.778 1.582-1.5 2-.065-2.196-.732-4.196-2-6-3.855-1.507-3.521-2.174 1-2z"/><path fill="#c37077" d="M224.5 131.5c.135 5.453-.532 10.786-2 16l-2-15c-.667-6.995-.833-13.995-.5-21 2.678 6.397 4.178 13.064 4.5 20z"/><path fill="#734226" d="M176.5 121.5h2l-1 2c1.45 1.35 2.117 3.016 2 5 .131.876-.202 1.543-1 2-.886-.825-1.219-1.825-1-3l-3-2c1.13-1.122 1.797-2.456 2-4z"/><path fill="#7b382e" d="M207.5 140.5c-1.125 1.152-1.125 2.152 0 3v2l-2 1c-.023-7.683-.357-15.35-1-23l4-3c.808.308 1.475.808 2 1.5-3.825 1.768-3.825 3.768 0 6-1.496.507-2.663.007-3.5-1.5l-.5 1.5c1.157 1.986 2.491 3.82 4 5.5-.961 3.957-1.961 3.957-3 0-1.297 2.473-1.297 4.807 0 7z"/><path fill="#c97a45" d="M176.5 121.5c-.203 1.544-.87 2.878-2 4l3 2h-3v4l-2-6c.394-2.21 1.727-3.543 4-4z"/><path fill="#b46d51" d="M123.5 118.5l5 12c1.333 1.333 2.667 1.333 4 0-2.451-2.9-3.785-6.234-4-10 1.421 2.509 3.088 4.843 5 7l6 7c.905 1.464.905 2.798 0 4-2.98-.823-5.647-2.157-8-4 1.238-.31 1.238-.81 0-1.5-2.425-.293-4.258-1.459-5.5-3.5a32.5 32.5 0 0 0-3-7c-.499 3.986-.666 7.986-.5 12h-2c-.973-2.448-1.306-5.115-1-8-.163-2.357.003-4.69.5-7 1.011-.837 2.178-1.17 3.5-1z"/><path fill="#903e27" d="M172.5 125.5l2 6c.934 1.068 1.268 2.401 1 4h3c-1.068.934-2.401 1.268-4 1l-3-8c.904-.709 1.237-1.709 1-3z"/><path fill="#e5dbcd" d="M188.5 129.5a5.81 5.81 0 0 1-2 4c-.798-.457-1.131-1.124-1-2 .934-1.068 1.268-2.401 1-4 .722-.418 1.222-1.084 1.5-2a8.43 8.43 0 0 1 .5 4z"/><path fill="#c26c5c" d="M156.5 120.5l3 6c.131.876-.202 1.543-1 2a6.8 6.8 0 0 1-1.5-3 20.43 20.43 0 0 1-1.5 5.5l3 2.5-1 1c-2.457.927-5.123.927-8 0-.351-2.369-.518-4.703-.5-7a7.25 7.25 0 0 0 2.5 2 7.11 7.11 0 0 0 1-5c1.567-1.181 2.401-2.847 2.5-5l1 3c.464-.594.631-1.261.5-2z"/><path fill="#e6a09f" d="M192.5 139.5c-1.273 2.213-2.273 4.546-3 7l-2 1c1.876-3.421 2.876-7.088 3-11 1.066-4.819 1.9-9.819 2.5-15 .671-.752 1.504-1.086 2.5-1 1.624-2.817 2.457-7.15 2.5-13 1.495 11.367-.338 22.034-5.5 32z"/><path fill="#eaa894" d="M131.5 134.5h-9c-.166-4.014.001-8.014.5-12a32.5 32.5 0 0 1 3 7c1.242 2.041 3.075 3.207 5.5 3.5 1.238.69 1.238 1.19 0 1.5z"/><path fill="#f1b24f" d="M177.5 127.5c-.219 1.175.114 2.175 1 3 .798-.457 1.131-1.124 1-2 2.333.333 3.667 1.667 4 4 0 .667-.333 1-1 1-1.602-1.574-3.602-2.241-6-2v3h6c-1.068.934-2.401 1.268-4 1h-3c.268-1.599-.066-2.932-1-4v-4h3z"/><path fill="#c17650" d="M209.5 118.5h1a3 3 0 0 0 2 2l2 6c.095 3.197-.572 6.197-2 9-1.306 1.973-2.973 3.639-5 5-1.297-2.193-1.297-4.527 0-7 1.039 3.957 2.039 3.957 3 0-1.509-1.68-2.843-3.514-4-5.5l.5-1.5c.837 1.507 2.004 2.007 3.5 1.5-3.825-2.232-3.825-4.232 0-6-.525-.692-1.192-1.192-2-1.5l-4 3v-3c1.32-1.442 2.986-2.108 5-2z"/><path fill="#fde785" d="M182.5 133.5v1h-6v-3c2.398-.241 4.398.426 6 2z"/><path fill="#b05f45" d="M148.5 134.5c.806 1.664.473 3.331-1 5l-7-6c-1.524-3.345-2.691-6.678-3.5-10 2.41 5.245 6.243 8.912 11.5 11z"/><path fill="#8c4342" d="M214.5 126.5c.99 5.81 1.323 11.81 1 18-.425 4.577-1.425 8.91-3 13 1.103-7.491 1.103-14.824 0-22 1.428-2.803 2.095-5.803 2-9z"/><path fill="#d37a7e" d="M105.5 116.5v2c1.011 3.707 2.177 7.373 3.5 11 .608-1.566 1.442-2.9 2.5-4 1.153 5.819 1.319 11.819.5 18-1.342-4.057-2.842-7.39-4.5-10h-1a51.57 51.57 0 0 1-1-7c-.944-3.499-.944-6.832 0-10z"/><path fill="#ecd8c7" d="M170.5 126.5c-.172.992.162 1.658 1 2l3 8h-1c-4.788-.623-6.621-3.29-5.5-8 .417-1.256 1.25-1.923 2.5-2z"/><path fill="#f5adaa" d="M106.5 133.5h1c.426 4.402 1.76 8.402 4 12v5c-.996.086-1.829-.248-2.5-1a34.1 34.1 0 0 0-3-6c.218 2.087.051 4.087-.5 6-1.067-3.034-2.234-6.034-3.5-9-.87 4.139-.037 7.806 2.5 11-.237 1.291.096 2.291 1 3 1.102 5.112 3.102 9.779 6 14l-5-4c-4.204-8.139-6.871-16.806-8-26 .826-4.816 1.326-9.816 1.5-15a87.45 87.45 0 0 0 6 11 .91.91 0 0 0 .5-1z"/><path fill="#391e16" d="M120.5 134.5h2 9c2.353 1.843 5.02 3.177 8 4 .61.891.943 1.891 1 3-1.031-.855-2.197-1.522-3.5-2-1.03.336-1.53 1.003-1.5 2 .981 4.995-.019 5.328-3 1 1.534-1.842 1.2-3.175-1-4-1.333.667-2.333 1.667-3 3-.621 2.498.045 4.832 2 7-.124.607-.457.94-1 1a17.54 17.54 0 0 1-3-6c.143-4.617-1.524-5.284-5-2-2.159 2.454-2.492 5.121-1 8-2.282-.89-4.615-1.056-7-.5.556.383.889.883 1 1.5 1.277 4.781 3.944 8.614 8 11.5a.91.91 0 0 1-1 .5c-2.254-.624-3.921-1.957-5-4l-5-8v-5a.91.91 0 0 1 .5-1c.705 2.486 1.538 2.486 2.5 0-.203-1.89.463-3.39 2-4.5-.457-.414-.791-.914-1-1.5a7.11 7.11 0 0 1 5-1v-3z"/><path fill="#de9b7c" d="M189.5 127.5c.977 2.787 1.31 5.787 1 9-.124 3.912-1.124 7.579-3 11a3 3 0 0 1-2 2c-.813-1.153-1.813-1.153-3 0-2.315-.734-4.148-2.068-5.5-4l-1 1c-2.771-2.837-2.605-5.67.5-8.5-1.237-.232-2.237-.732-3-1.5h1c1.599.268 2.932-.066 4-1 1.599.268 2.932-.066 4-1v-1c.667 0 1-.333 1-1 .667 0 1-.333 1-1h1c-.131.876.202 1.543 1 2a5.81 5.81 0 0 0 2-4c.838-.342 1.172-1.008 1-2z"/><path fill="#44282b" d="M235.5 136.5l3 4a12.18 12.18 0 0 1-3 5v-9z"/><path fill="#868785" d="M78.5 132.5c-.172.992.162 1.658 1 2-1.544 9.417-1.21 18.75 1 28-.667 0-1 .333-1 1-3.218-10.272-3.551-20.606-1-31z"/><path fill="#99534c" d="M114.5 144.5c-.962 2.486-1.795 2.486-2.5 0a.91.91 0 0 0-.5 1c-2.24-3.598-3.574-7.598-4-12 1.658 2.61 3.158 5.943 4.5 10 .819-6.181.653-12.181-.5-18-.131-.876.202-1.543 1-2a84.85 84.85 0 0 1 4.5 12c-.915-.828-1.581-1.828-2-3-1.393 4.128-1.56 8.128-.5 12z"/><path fill="#caac9b" d="M126.5 143.5c-2.544 1.208-3.878 3.208-4 6h-2c-1.492-2.879-1.159-5.546 1-8 3.476-3.284 5.143-2.617 5 2z"/><path fill="#773c23" d="M140.5 141.5c.968 2.107 1.302 4.441 1 7-.565-1.92-1.565-3.587-3-5-.473-1.406-1.473-2.073-3-2-.03-.997.47-1.664 1.5-2 1.303.478 2.469 1.145 3.5 2z"/><path fill="#e09039" d="M135.5 141.5c1.527-.073 2.527.594 3 2-.98 2.635-2.647 4.635-5 6-.968-2.107-1.302-4.441-1-7 2.981 4.328 3.981 3.995 3-1z"/><path fill="#dfa785" d="M164.5 103.5c1.562.233 2.895.9 4 2 1.912 3.495 3.579 7.162 5 11a54.51 54.51 0 0 0-11.5 10c-.667.667-.667 1.333 0 2 .708-.881 1.542-1.547 2.5-2-.149 1.052.017 2.052.5 3a21.53 21.53 0 0 1 5-6c.483.948.649 1.948.5 3-1.25.077-2.083.744-2.5 2-1.121 4.71.712 7.377 5.5 8 .763.768 1.763 1.268 3 1.5-3.105 2.83-3.271 5.663-.5 8.5l1-1c1.352 1.932 3.185 3.266 5.5 4 1.187-1.153 2.187-1.153 3 0-1.401.471-2.734 1.138-4 2l1 1a66.68 66.68 0 0 0 5.5-2c.464.594.631 1.261.5 2-1.504 2.336-3.504 4.169-6 5.5 4.21-.844 7.376-3.344 9.5-7.5a8.43 8.43 0 0 1 .5 4c-1.584 4.175-3.918 7.841-7 11a45.41 45.41 0 0 0-8 8 103.16 103.16 0 0 1-12 6.5c-6.339.348-12.673.182-19-.5-8.073-.863-14.406-4.53-19-11-.057-1.109-.39-2.109-1-3v-1c4.129-2.11 8.629-3.443 13.5-4 1.328-4.011 1.828-8.011 1.5-12 .302-2.559-.032-4.893-1-7-.057-1.109-.39-2.109-1-3 .905-1.202.905-2.536 0-4 0-.667.333-1 1-1l7 6c1.473-1.669 1.806-3.336 1-5h1c2.877.927 5.543.927 8 0l1-1-3-2.5a20.43 20.43 0 0 0 1.5-5.5 6.8 6.8 0 0 0 1.5 3c.798-.457 1.131-1.124 1-2v-3c1.325-1.453 2.158-1.119 2.5 1 1.793-2.795 3.96-5.295 6.5-7.5-1.049-.492-2.049-.326-3 .5a49.87 49.87 0 0 1-1-14z"/><path fill="#302d2e" d="M80.5 156.5c0 .667.333 1 1 1-.157 1.373.01 2.707.5 4 2.301 1.377 2.801 3.044 1.5 5-1.762-.762-2.762-2.096-3-4-2.21-9.25-2.544-18.583-1-28 1.185-5.403 2.685-10.737 4.5-16l.5 2c-1.553 11.985-2.887 23.985-4 36z"/><path fill="#f4ebe1" d="M126.5 143.5a17.54 17.54 0 0 0 3 6l2 2c.131.739-.036 1.406-.5 2l-4.5-1c-1.73-.526-3.064-1.526-4-3 .122-2.792 1.456-4.792 4-6z"/><path fill="#b15e33" d="M132.5 142.5c-.302 2.559.032 4.893 1 7 .172.992-.162 1.658-1 2h-1l-2-2c.543-.06.876-.393 1-1-1.955-2.168-2.621-4.502-2-7 .667-1.333 1.667-2.333 3-3 2.2.825 2.534 2.158 1 4z"/><path fill="#f9d76a" d="M138.5 143.5c1.513 4.539-.154 7.539-5 9-.607-.124-.94-.457-1-1 .838-.342 1.172-1.008 1-2 2.353-1.365 4.02-3.365 5-6z"/><path fill="#ac7055" d="M249.5 108.5c3.468 2.956 6.468 6.289 9 10v38c-3.558 4.762-6.891 9.762-10 15l-4 3c.209.586.543 1.086 1 1.5l-8 6c-3.44.441-6.773 1.274-10 2.5-4.805-3.255-6.471-7.588-5-13 .61-.891.943-1.891 1-3 .61-.891.943-1.891 1-3a61.75 61.75 0 0 0 7-11c2.125-2.588 3.458-5.588 4-9a12.18 12.18 0 0 0 3-5 118.17 118.17 0 0 0 10-31c.667 0 1-.333 1-1z"/><path fill="#2c2a2c" d="M86.5 146.5a50.44 50.44 0 0 1-.5 10c-.717-.544-1.217-1.211-1.5-2 .201-6.009.534-12.009 1-18 1.049 1.886 1.382 5.22 1 10z"/><path fill="#e9918e" d="M111.5 150.5l5 8c-.617.111-1.117.444-1.5 1a25.9 25.9 0 0 1-8.5-8.5c-.937-.692-1.603-.525-2 .5-2.537-3.194-3.37-6.861-2.5-11 1.266 2.966 2.433 5.966 3.5 9 .551-1.913.718-3.913.5-6a34.1 34.1 0 0 1 3 6c.671.752 1.504 1.086 2.5 1z"/><path fill="#bb6d5b" d="M189.5 146.5c.997-.03 1.664.47 2 1.5-.848 1.666-1.848 3.166-3 4.5.131-.739-.036-1.406-.5-2l-5.5 2-1-1c1.266-.862 2.599-1.529 4-2a3 3 0 0 0 2-2l2-1z"/><path fill="#c77460" d="M120.5 149.5h2c.936 1.474 2.27 2.474 4 3-.06.543-.393.876-1 1-2.473-2.449-4.806-2.449-7 0l-4-3c-.111-.617-.444-1.117-1-1.5 2.385-.556 4.718-.39 7 .5z"/><path fill="#663336" d="M212.5 135.5c1.103 7.176 1.103 14.509 0 22v2c-.828-6.487-1.328-13.154-1.5-20-1.376 1.205-2.542 2.538-3.5 4-1.125-.848-1.125-1.848 0-3 2.027-1.361 3.694-3.027 5-5z"/><path fill="#e19f7a" d="M138.5 143.5c1.435 1.413 2.435 3.08 3 5 .328 3.989-.172 7.989-1.5 12-4.871.557-9.371 1.89-13.5 4l-8-11c2.194-2.449 4.527-2.449 7 0 .607-.124.94-.457 1-1a56.43 56.43 0 0 1 4.5 1c.464-.594.631-1.261.5-2h1c.06.543.393.876 1 1 4.846-1.461 6.513-4.461 5-9z"/><path fill="#927265" d="M85.5 136.5c-.466 5.991-.799 11.991-1 18-1.228.806-2.228 1.806-3 3-.667 0-1-.333-1-1a187.2 187.2 0 0 1 5-20z"/><path fill="#ed9e9b" d="M94.5 120.5l4 16c-1.209 7.518-1.209 15.185 0 23-.838.342-1.172 1.008-1 2-1.342-3.825-2.509-7.825-3.5-12-.562 2.366-.396 4.699.5 7-1.342 3.89-2.175 7.89-2.5 12-.941 2.227-2.108 4.227-3.5 6-.304-.65-.637-1.317-1-2a21.11 21.11 0 0 0 1.5-12c-.383.556-.883.889-1.5 1v-3c1.427-1.648 2.26-3.648 2.5-6v-41a134.54 134.54 0 0 0 4 33 288.43 288.43 0 0 0 .5-24z"/><path fill="#ca6b60" d="M116.5 158.5c1.079 2.043 2.746 3.376 5 4 1.194.772 2.194 1.772 3 3-3.847-.71-7.514-1.876-11-3.5-2.885-3.079-5.552-5.579-8-7.5-.904-.709-1.237-1.709-1-3 .397-1.025 1.063-1.192 2-.5a25.9 25.9 0 0 0 8.5 8.5c.383-.556.883-.889 1.5-1z"/><path fill="#8c4a3c" d="M192.5 139.5c.987 4.805 1.321 9.805 1 15h-1a8.43 8.43 0 0 0-.5-4c-2.124 4.156-5.29 6.656-9.5 7.5 2.496-1.331 4.496-3.164 6-5.5 1.152-1.334 2.152-2.834 3-4.5-.336-1.03-1.003-1.53-2-1.5.727-2.454 1.727-4.787 3-7z"/><path fill="#391a1a" d="M231.5 154.5a61.75 61.75 0 0 1-7 11v-2c2.092-2.973 3.592-6.307 4.5-10 1.461-1.383 2.294-1.049 2.5 1z"/><path fill="#883a29" d="M114.5 150.5l4 3 8 11v1h-2c-.806-1.228-1.806-2.228-3-3a.91.91 0 0 0 1-.5c-4.056-2.886-6.723-6.719-8-11.5z"/><path fill="#7a424c" d="M224.5 131.5c.665 2.982.998 6.148 1 9.5.187 4.655-.479 9.155-2 13.5l.5 1c.915-.828 1.581-1.828 2-3a245.6 245.6 0 0 0 2-17c.845 9.602-.322 18.936-3.5 28v2c-.958.453-1.792 1.119-2.5 2-.183-2.865-.683-5.531-1.5-8 .738-3.962 1.405-7.962 2-12 1.468-5.214 2.135-10.547 2-16z"/><path fill="#4e2922" d="M167.5 159.5c1.068-.934 2.401-1.268 4-1 .268 1.599-.066 2.932-1 4 .934-1.068 1.268-2.401 1-4-1.599-.268-2.932.066-4 1z"/><path fill="#6c6e70" d="M429.5 160.5h3v4h-3v-4z" opacity=".66"/><path fill="#cbbeb8" d="M166.5 160.5c-3.215.405-6.215 1.405-9 3-.667 0-1-.333-1-1 3.064-2.56 6.397-3.226 10-2z"/><path fill="#c45c50" d="M167.5 159.5c2 0 3 1 3 3v2c-4.199-2.448-8.532-2.448-13 0v-1c2.785-1.595 5.785-2.595 9-3 .667 0 1-.333 1-1z"/><path fill="#6b6c6f" d="M299.5 161.5c5.517.515 8.184 3.515 8 9h-3c-1.543-6.125-4.71-7.125-9.5-3a64.22 64.22 0 0 0 0 16c2.264 3.02 5.097 3.687 8.5 2 .974-2.243 1.308-4.576 1-7h-5v-3h8a60.93 60.93 0 0 1-.5 11c-4.634 3.899-9.3 3.899-14 0-3.442-7.609-3.275-15.109.5-22.5l6-2.5z" opacity=".749"/><path fill="#e38976" d="M170.5 164.5c-3.402 6.19-8.068 7.523-14 4 .001-1.255.334-2.588 1-4 4.468-2.448 8.801-2.448 13 0z"/><path fill="#55221c" d="M156.5 162.5c0 .667.333 1 1 1v1c-.666 1.412-.999 2.745-1 4-5.307-2.043-5.307-4.043 0-6z"/><path fill="#7b3f51" d="M212.5 159.5c-.518 4.034-2.351 7.368-5.5 10l.5-24v-2c.958-1.462 2.124-2.795 3.5-4 .172 6.846.672 13.513 1.5 20z"/><path fill="#c67570" d="M86.5 146.5c.983 3.798 1.317 7.798 1 12v3c.099 3.173-.568 6.173-2 9a5.81 5.81 0 0 1-2-4c1.301-1.956.801-3.623-1.5-5-.49-1.293-.657-2.627-.5-4 .772-1.194 1.772-2.194 3-3 .283.789.783 1.456 1.5 2a50.44 50.44 0 0 0 .5-10z"/><path fill="#803d47" d="M124.5 165.5h2c.61.891.943 1.891 1 3-1.979-1.668-4.312-2.334-7-2 .005 3.533 1.005 6.7 3 9.5-.916.278-1.582.778-2 1.5-1.137-1.289-2.47-2.289-4-3v-1c1.238-.31 1.238-.81 0-1.5-1.905-1.421-3.905-2.588-6-3.5-2.898-4.221-4.898-8.888-6-14 2.448 1.921 5.115 4.421 8 7.5 3.486 1.624 7.153 2.79 11 3.5z"/><path fill="#d87e8b" d="M203.5 108.5c.983 3.798 1.317 7.798 1 12v3c.643 7.65.977 15.317 1 23l-2 24c-.79-1.109-1.29-2.442-1.5-4a271.47 271.47 0 0 1-8.5 20 3 3 0 0 0-2 2c-2.87 6.761-7.37 12.094-13.5 16-.667-.667-.667-1.333 0-2 1.955-.953 3.622-2.287 5-4 1.027-3.254 2.527-6.254 4.5-9-.124-.607-.457-.94-1-1 5.374-10.214 10.541-20.547 15.5-31 1.259-16.308 1.759-32.642 1.5-49z"/><path fill="#1b1b22" d="M220.5 159.5c.817 2.469 1.317 5.135 1.5 8 .708-.881 1.542-1.547 2.5-2-.057 1.109-.39 2.109-1 3l-9 4c3.145-3.75 5.145-8.083 6-13z"/><path fill="#a55361" d="M193.5 157.5c.31 3.213-.023 6.213-1 9-1.073 1.184-1.907 3.184-2.5 6-.388-3.349-.221-6.683.5-10 .25-2.174 1.25-3.841 3-5z"/><path fill="#472f3b" d="M214.5 172.5l-5 4c-.377-1.758-1.044-3.425-2-5a86.4 86.4 0 0 0 7.5-10c-.678 3.675-1.844 7.342-3.5 11 .733.587 1.733.587 3 0z"/><g fill="#6c6d70"><path d="M315.5 168.5c3.47-.625 6.304.375 8.5 3a148.73 148.73 0 0 0 1.5 16c-1.506 1.247-3.006 1.247-4.5 0-3.294 2.811-6.294 2.478-9-1-.994-7.171 2.173-10.171 9.5-9 1.092-4.623-.575-6.456-5-5.5-.837 1.011-1.17 2.178-1 3.5h-3c-.35-2.953.65-5.287 3-7zm2 11h4c.82 3.645-.513 5.978-4 7-3.729-2.248-3.729-4.581 0-7z" opacity=".776"/><path d="M328.5 168.5c1.624-.14 2.79.527 3.5 2 3.294-2.811 6.294-2.478 9 1 3.843-4.229 7.177-3.895 10 1 .499 5.323.666 10.656.5 16h-3a112.97 112.97 0 0 0-.5-15c-2.899-2.767-4.899-2.1-6 2a84.9 84.9 0 0 0-.5 13h-3a112.97 112.97 0 0 0-.5-15c-2.522-2.826-4.522-2.493-6 1a98.43 98.43 0 0 0-.5 14h-3v-20z" opacity=".815"/><path d="M359.5 168.5c7.438-.169 10.438 3.498 9 11h-11c.54 6.582 3.54 8.248 9 5 .808.308 1.475.808 2 1.5-4.022 4.407-8.188 4.574-12.5.5a22.29 22.29 0 0 1-1-12c.599-2.754 2.099-4.754 4.5-6zm1 3c2.821-.184 4.488 1.149 5 4-2.606 1.152-5.273 1.318-8 .5.886-1.615 1.886-3.115 3-4.5z" opacity=".723"/></g><path fill="#6a6b6e" d="M382.5 168.5c7.46-.204 10.793 3.463 10 11h-11c-.023 7.079 2.977 8.746 9 5 1.231 1.151 1.231 2.317 0 3.5-4.499 2.367-8.332 1.533-11.5-2.5a42.48 42.48 0 0 1 0-13c1.376-1.205 2.542-2.538 3.5-4zm1 3c3.333 0 5 1.667 5 5-2.424.308-4.757-.026-7-1l2-4z" opacity=".738"/><path fill="#6e6e71" d="M394.5 168.5c1.624-.14 2.79.527 3.5 2 5.112-3.369 8.445-2.036 10 4a98.43 98.43 0 0 1 .5 14h-4c.166-5.344-.001-10.677-.5-16-2.994-1.39-4.994-.39-6 3a84.9 84.9 0 0 0-.5 13h-3v-20z" opacity=".777"/><g fill="#6c6d70"><path d="M415.5 168.5c2.544-.396 4.711.271 6.5 2 .71-1.473 1.876-2.14 3.5-2a242.43 242.43 0 0 1-.5 22c-2.272 6.115-6.439 7.615-12.5 4.5a11.38 11.38 0 0 1 2-2.5c4.806 2.26 6.973.926 6.5-4-3.921 1.75-6.921.75-9-3a42.48 42.48 0 0 1 0-13c.69-1.85 1.856-3.184 3.5-4zm1 3c4.37.541 6.37 3.041 6 7.5.651 3.875-.849 6.375-4.5 7.5-1.261-.259-2.261-.926-3-2-.945-4.561-.445-8.894 1.5-13z" opacity=".806"/><path d="M436.5 168.5c2.509 1.175 5.009 1.175 7.5 0 1.711-.061 3.044.606 4 2 1.41 5.879 1.91 11.879 1.5 18h-3a112.97 112.97 0 0 0-.5-15c-2-2.667-4-2.667-6 0a112.97 112.97 0 0 0-.5 15h-3v-20z" opacity=".737"/></g><path fill="#6d6d70" d="M457.5 168.5c6.953.176 9.953 3.843 9 11h-11c.54 6.582 3.54 8.248 9 5 1.231 1.151 1.231 2.317 0 3.5-5.002 2.601-8.835 1.434-11.5-3.5-.667-3.667-.667-7.333 0-11 1.025-2.187 2.525-3.854 4.5-5zm1 3c2.821-.184 4.488 1.149 5 4-2.606 1.152-5.273 1.318-8 .5.886-1.615 1.886-3.115 3-4.5z" opacity=".712"/><path fill="#5e3a47" d="M190.5 162.5c-.721 3.317-.888 6.651-.5 10 .593-2.816 1.427-4.816 2.5-6-.894 5.677-2.561 11.01-5 16a151.47 151.47 0 0 0 1-6.5c-1.476-3.398-1.976-6.898-1.5-10.5 1.039-1.21 2.206-2.21 3.5-3z"/><path fill="#6d6d70" d="M429.5 168.5h3v20h-3v-20z" opacity=".72"/><path fill="#d79975" d="M111.5 168.5c2.095.912 4.095 2.079 6 3.5 1.238.69 1.238 1.19 0 1.5-.891-.61-1.891-.943-3-1l-3-4z"/><path fill="#f1dac8" d="M88.5 174.5v1a36.57 36.57 0 0 1-10 12.5c-5.707 4.215-9.207 3.049-10.5-3.5 2.21 2.79 5.044 3.623 8.5 2.5 4.024-4.864 6.19-10.364 6.5-16.5-2.238-1.809-3.405-4.142-3.5-7 0-.667.333-1 1-1 .238 1.904 1.238 3.238 3 4a5.81 5.81 0 0 0 2 4c1.432-2.827 2.099-5.827 2-9 .617-.111 1.117-.444 1.5-1a21.11 21.11 0 0 1-1.5 12c.363.683.696 1.35 1 2z"/><path fill="#ecacab" d="M203.5 107.5v1c.259 16.358-.241 32.692-1.5 49-4.959 10.453-10.126 20.786-15.5 31-2.773 4.263-6.606 7.263-11.5 9a3.43 3.43 0 0 1-2.5-1.5c7.67-1.502 12.67-6.002 15-13.5 2.439-4.99 4.106-10.323 5-16 .977-2.787 1.31-5.787 1-9v-2a134.38 134.38 0 0 0 10-48z"/><path fill="#a6576c" d="M220.5 132.5l2 15c-.595 4.038-1.262 8.038-2 12-.855 4.917-2.855 9.25-6 13-1.267.587-2.267.587-3 0 1.656-3.658 2.822-7.325 3.5-11a86.4 86.4 0 0 1-7.5 10c.956 1.575 1.623 3.242 2 5h-1c-1.663-1.993-2.83-4.326-3.5-7-.383.556-.883.889-1.5 1l2-24 2-1-.5 24c3.149-2.632 4.982-5.966 5.5-10v-2c1.575-4.09 2.575-8.423 3-13 .814-2.131 1.314-4.464 1.5-7a84.9 84.9 0 0 1 .5 13c-.823 7.981.011 7.981 2.5 0 .499-5.991.666-11.991.5-18z"/><path fill="#9f5d6b" d="M127.5 168.5c4.594 6.47 10.927 10.137 19 11 2.131.814 4.464 1.314 7 1.5.457.414.791.914 1 1.5-.743.682-1.409 1.349-2 2 .475 2.582-.192 4.582-2 6a11.22 11.22 0 0 0-2-7c-1.928 2.99-3.261 6.324-4 10-2.715-2.402-5.215-5.068-7.5-8a106.96 106.96 0 0 1-2.5 11h-2a98.43 98.43 0 0 0-.5-14c-.216-1.884-.883-3.551-2-5 .083 6.927-2.084 12.927-6.5 18l1-6c.597-.235.93-.735 1-1.5-1.763-3.356-3.096-6.856-4-10.5.418-.722 1.084-1.222 2-1.5-1.995-2.8-2.995-5.967-3-9.5 2.688-.334 5.021.332 7 2z"/><path fill="#a56048" d="M184.5 176.5l-14 8a.91.91 0 0 1-1-.5c.626-.75 1.126-1.584 1.5-2.5a60.12 60.12 0 0 0 13-13 32.46 32.46 0 0 1 .5 8z"/><path fill="#8b4350" d="M106.5 164.5l5 4 3 4c-.996.086-1.829-.248-2.5-1l.5 8a20.69 20.69 0 0 1-5-1 111.56 111.56 0 0 0-1-14z"/><path fill="#804664" d="M258.5 164.5v26c-1.421 2.509-3.088 4.843-5 7v-3c1.256-2.226 1.256-4.559 0-7a75.82 75.82 0 0 1 1-15c.826-2.985 2.159-5.651 4-8z" opacity=".979"/><path fill="#b05c62" d="M98.5 136.5v2c1.129 9.194 3.796 17.861 8 26a111.56 111.56 0 0 1 1 14c1.074 1.385 2.407 2.551 4 3.5-.837 1.011-1.17 2.178-1 3.5.172.992-.162 1.658-1 2-1.304-1.487-2.47-3.154-3.5-5-.69-1.238-1.19-1.238-1.5 0-.79-1.109-1.29-2.442-1.5-4-.364 5-1.53 9.666-3.5 14l-2-1c-.628-2.59-1.795-4.923-3.5-7-.339 3.38-.839 6.713-1.5 10-1.276-2.062-2.11-4.396-2.5-7-.176-4.188-.676-8.188-1.5-12v-1c1.392-1.773 2.559-3.773 3.5-6 .325-4.11 1.158-8.11 2.5-12-.896-2.301-1.062-4.634-.5-7 .991 4.175 2.158 8.175 3.5 12 .815 5.297 2.982 9.963 6.5 14-2.087-5.09-3.92-10.423-5.5-16-1.209-7.815-1.209-15.482 0-23z"/><path fill="#f0c6b0" d="M98.5 159.5c1.58 5.577 3.413 10.91 5.5 16-3.518-4.037-5.685-8.703-6.5-14-.172-.992.162-1.658 1-2z"/><path fill="#522821" d="M177.5 173.5c-5.135 7.044-12.135 10.044-21 9l4 4a19.22 19.22 0 0 0-6-1c-.342-.838-1.008-1.172-2-1 .591-.651 1.257-1.318 2-2-.209-.586-.543-1.086-1-1.5-2.536-.186-4.869-.686-7-1.5 6.327.682 12.661.848 19 .5a103.16 103.16 0 0 0 12-6.5z"/><path fill="#231c2a" d="M208.5 176.5v1c-3.708 1.432-6.041 4.098-7 8-.454-1.759-.454-3.759 0-6 1.157-2.773 1.824-5.773 2-9 .617-.111 1.117-.444 1.5-1 .67 2.674 1.837 5.007 3.5 7z"/><path fill="#a65760" d="M203.5 170.5c-.176 3.227-.843 6.227-2 9 .149-1.052-.017-2.052-.5-3l-4.5 7c.124.607.457.94 1 1-1.171.845-2.505 1.511-4 2a271.47 271.47 0 0 0 8.5-20c.21 1.558.71 2.891 1.5 4z"/><path fill="#242330" d="M201.5 179.5l-4 5c-.543-.06-.876-.393-1-1l4.5-7c.483.948.649 1.948.5 3z"/><path fill="#50404d" d="M117.5 174.5c1.53.711 2.863 1.711 4 3 .904 3.644 2.237 7.144 4 10.5-.07.765-.403 1.265-1 1.5-1.629-2.836-3.129-5.836-4.5-9-.483.948-.649 1.948-.5 3-.844-2.845-1.51-5.845-2-9z"/><path fill="#81402f" d="M185.5 165.5c.315 3.871-.018 7.538-1 11a32.46 32.46 0 0 0-.5-8 60.12 60.12 0 0 1-13 13c-.374.916-.874 1.75-1.5 2.5a.91.91 0 0 0 1 .5 57.09 57.09 0 0 0-5.5 7c-.612-2.615-2.112-4.281-4.5-5l-4-4c8.865 1.044 15.865-1.956 21-9a45.41 45.41 0 0 1 8-8z"/><path fill="#252a30" d="M124.5 189.5l-1 6h-1c-1.814-3.779-2.814-7.779-3-12-.149-1.052.017-2.052.5-3 1.371 3.164 2.871 6.164 4.5 9z"/><path fill="#ae6c51" d="M208.5 177.5c2.848 1.272 5.848 2.105 9 2.5-1.385 3.679-2.218 7.512-2.5 11.5-.7 1.532-1.866 2.532-3.5 3-3.872 7.487-5.038 15.487-3.5 24a7.25 7.25 0 0 0 2.5 2c1.243-4.268 2.243-8.602 3-13 1.299.59 2.132 1.59 2.5 3-.351-2.386-.185-4.719.5-7 1.92 2.839 3.587 5.839 5 9 2.829-2.659 5.829-5.159 9-7.5.667-.667 1.333-.667 2 0-.812 4.029-.812 8.195 0 12.5l-2 6h-26v-2c.597-.235.93-.735 1-1.5a109.25 109.25 0 0 1-1.5-12.5c-1.41-2.636-3.243-3.303-5.5-2-2.44-4.317-4.107-8.983-5-14 1.322.17 2.489-.163 3.5-1-.195 1.626-.195 3.293 0 5 2.326-2.984 3.826-6.317 4.5-10 .959-3.902 3.292-6.568 7-8z"/><path fill="#1e253e" d="M150.5 190.5v1c-1.797 1.23-3.797 1.896-6 2 .739-3.676 2.072-7.01 4-10a11.22 11.22 0 0 1 2 7z"/><path fill="#5a3f4f" d="M253.5 187.5c1.256 2.441 1.256 4.774 0 7a7.11 7.11 0 0 0-1-5c-5.332-2.846-4.999-3.513 1-2z"/><path fill="#2c3243" d="M132.5 196.5c-3.213.31-6.213-.023-9-1 4.416-5.073 6.583-11.073 6.5-18 1.117 1.449 1.784 3.116 2 5a98.43 98.43 0 0 1 .5 14z"/><path fill="#1c2a32" d="M254.5 172.5a75.82 75.82 0 0 0-1 15c-5.999-1.513-6.332-.846-1 2a7.11 7.11 0 0 1 1 5v3c-1.205 3.372-3.539 5.538-7 6.5 1.43 1.44 3.097 1.774 5 1 3.385-2.529 5.718-5.696 7-9.5v28h-28l2-6c2.968-5.589 5.135-11.589 6.5-18a309.76 309.76 0 0 0 10.5-19l5-8z" opacity=".998"/><path fill="#a0624a" d="M258.5 156.5v8c-1.841 2.349-3.174 5.015-4 8l-5 8c-2.465-.944-4.132.056-5 3 1.421 2.928.421 4.262-3 4 .219 1.175-.114 2.175-1 3a92.61 92.61 0 0 1-9 7.5 12.49 12.49 0 0 1-7 0l-5.5-5.5c-.632-5.714-.299-11.381 1-17 .608-1.566 1.442-2.9 2.5-4-1.471 5.412.195 9.745 5 13 3.227-1.226 6.56-2.059 10-2.5l8-6c-.457-.414-.791-.914-1-1.5l4-3c3.109-5.238 6.442-10.238 10-15z"/><path fill="#f5d2be" d="M97.5 191.5c-.295 2.235.039 4.235 1 6-.301 4.548 1.699 7.715 6 9.5a12.93 12.93 0 0 1-5 .5c-1.73-.526-3.064-1.526-4-3a3 3 0 0 0-2-2v-2c.172-.992-.162-1.658-1-2v-4c.661-3.287 1.161-6.62 1.5-10 1.705 2.077 2.872 4.41 3.5 7z"/><path fill="#b3696d" d="M114.5 172.5c1.109.057 2.109.39 3 1v1c.49 3.155 1.156 6.155 2 9 .186 4.221 1.186 8.221 3 12v2h-9c-4.77-3.863-7.77-8.863-9-15 .31-1.238.81-1.238 1.5 0 1.03 1.846 2.196 3.513 3.5 5 .805 3.317 2.639 5.983 5.5 8 .667-1 .667-2 0-3-1.049-2.687-2.549-5.02-4.5-7-.17-1.322.163-2.489 1-3.5-1.593-.949-2.926-2.115-4-3.5a20.69 20.69 0 0 0 5 1c-.25-2.714-.417-5.381-.5-8 .671.752 1.504 1.086 2.5 1z"/><path fill="#544756" d="M110.5 185.5c1.951 1.98 3.451 4.313 4.5 7 .667 1 .667 2 0 3-2.861-2.017-4.695-4.683-5.5-8 .838-.342 1.172-1.008 1-2z"/><path fill="#212637" d="M144.5 193.5l-3 2a51.57 51.57 0 0 1-7 1 106.96 106.96 0 0 0 2.5-11c2.285 2.932 4.785 5.598 7.5 8z"/><path fill="#45321f" d="M184.5 176.5c1.206 1.38.873 2.547-1 3.5-7.301 3.472-12.634 8.638-16 15.5-1.031-.749-2.198-1.415-3.5-2-.653-2.639-1.82-4.973-3.5-7 2.388.719 3.888 2.385 4.5 5a57.09 57.09 0 0 1 5.5-7l14-8z"/><path fill="#8a4d3a" d="M201.5 179.5c-.454 2.241-.454 4.241 0 6-.674 3.683-2.174 7.016-4.5 10-.195-1.707-.195-3.374 0-5-1.011.837-2.178 1.17-3.5 1l-2-3a3 3 0 0 1 2-2c1.495-.489 2.829-1.155 4-2l4-5z"/><path fill="#cf897b" d="M92.5 198.5c.838.342 1.172 1.008 1 2-7.586-1.476-11.086-6.143-10.5-14 .885 3.226 2.219 6.226 4 9 1.488 1.66 3.321 2.66 5.5 3z"/><path fill="#6e3d2e" d="M150.5 191.5c.086.996-.248 1.829-1 2.5-3.229 2.741-6.562 5.241-10 7.5l4-5c-.457-.798-1.124-1.131-2-1l3-2c2.203-.104 4.203-.77 6-2z"/><path fill="#796b64" d="M97.5 191.5l2 1c.703 2.216 2.036 4.049 4 5.5-1.887.163-3.387-.671-4.5-2.5-.464.594-.631 1.261-.5 2-.961-1.765-1.295-3.765-1-6z"/><path fill="#997084" d="M258.5 190.5v5c-1.282 3.804-3.615 6.971-7 9.5-1.903.774-3.57.44-5-1 3.461-.962 5.795-3.128 7-6.5 1.912-2.157 3.579-4.491 5-7z"/><path fill="#995846" d="M122.5 195.5h1c2.787.977 5.787 1.31 9 1h2a51.57 51.57 0 0 0 7-1c.876-.131 1.543.202 2 1l-4 5h-1c-4.027.219-4.694-.948-2-3.5a36.23 36.23 0 0 0-12 0c1.46.811 1.793 1.645 1 2.5-1.355-.688-2.355-1.688-3-3v-2z"/><path fill="#95523b" d="M223.5 168.5c-.057 1.109-.39 2.109-1 3-1.058 1.1-1.892 2.434-2.5 4-1.299 5.619-1.632 11.286-1 17l5.5 5.5a12.49 12.49 0 0 0 7 0 92.61 92.61 0 0 0 9-7.5c.886-.825 1.219-1.825 1-3 3.421.262 4.421-1.072 3-4 .868-2.944 2.535-3.944 5-3a309.76 309.76 0 0 1-10.5 19c-1.365 6.411-3.532 12.411-6.5 18-.812-4.305-.812-8.471 0-12.5-.667-.667-1.333-.667-2 0-3.171 2.341-6.171 4.841-9 7.5-1.413-3.161-3.08-6.161-5-9-.685 2.281-.851 4.614-.5 7-.368-1.41-1.201-2.41-2.5-3-.757 4.398-1.757 8.732-3 13a7.25 7.25 0 0 1-2.5-2c-1.538-8.513-.372-16.513 3.5-24 1.634-.468 2.8-1.468 3.5-3 .282-3.988 1.115-7.821 2.5-11.5-3.152-.395-6.152-1.228-9-2.5v-1h1l5-4 9-4z"/><path fill="#393e42" d="M104.5 182.5c1.23 6.137 4.23 11.137 9 15v1c-4.873 2.2-7.873 5.867-9 11-1.738.328-3.405-.339-5-2a12.93 12.93 0 0 0 5-.5c-4.301-1.785-6.301-4.952-6-9.5-.131-.739.036-1.406.5-2 1.113 1.829 2.613 2.663 4.5 2.5-1.964-1.451-3.297-3.284-4-5.5 1.97-4.334 3.136-9 3.5-14 .21 1.558.71 2.891 1.5 4z"/><path fill="#6d7b6d" d="M104.5 188.5c1.609 3.03 3.609 5.863 6 8.5-1.496.507-2.663.007-3.5-1.5-1.411-2.15-2.245-4.484-2.5-7z"/><path fill="#1d1818" d="M152.5 184.5c.992-.172 1.658.162 2 1 .292 2.15.959 4.483 2 7 1.609.406 2.943.406 4 0-1.148-1.649-2.481-3.149-4-4.5 3.194.525 5.194 2.525 6 6-.45 1.285-1.117 2.452-2 3.5 1.333 1.12 1.833 2.453 1.5 4-2.167.988-4 2.321-5.5 4a59.56 59.56 0 0 0-9 5c-3.25-2.196-6.75-2.529-10.5-1 .573-2.304 1.74-4.471 3.5-6.5-.556-.383-.889-.883-1-1.5 3.438-2.259 6.771-4.759 10-7.5.752-.671 1.086-1.504 1-2.5v-1c1.808-1.418 2.475-3.418 2-6z"/><path fill="#201a19" d="M192.5 154.5h1v1 2c-1.75 1.159-2.75 2.826-3 5-1.294.79-2.461 1.79-3.5 3-.476 3.602.024 7.102 1.5 10.5a151.47 151.47 0 0 1-1 6.5c-2.33 7.498-7.33 11.998-15 13.5a3.43 3.43 0 0 0 2.5 1.5c4.894-1.737 8.727-4.737 11.5-9 .543.06.876.393 1 1-1.973 2.746-3.473 5.746-4.5 9-1.378 1.713-3.045 3.047-5 4-.667.667-.667 1.333 0 2 6.13-3.906 10.63-9.239 13.5-16l2 3c.893 5.017 2.56 9.683 5 14v2c-.88 1.889-.88 3.889 0 6-3.523-.758-6.856-2.091-10-4-.607.124-.94.457-1 1l-3-2-2 2a46.42 46.42 0 0 0-10-6c-2.147-1.97-4.48-3.803-7-5.5l6-2c-1.248-.861-2.581-1.361-4-1.5 3.366-6.862 8.699-12.028 16-15.5 1.873-.953 2.206-2.12 1-3.5.982-3.462 1.315-7.129 1-11 3.082-3.159 5.416-6.825 7-11z"/><path fill="#e6ad89" d="M113.5 198.5c2.155-.128 4.155.372 6 1.5 2.012 4.017 5.178 6.517 9.5 7.5 4.378-.697 4.545-2.197.5-4.5a32.46 32.46 0 0 1 8-.5c-1.92 2.839-3.587 5.839-5 9-2.837 3.669-5.17 7.669-7 12h-25a168.37 168.37 0 0 1 4-14c1.127-5.133 4.127-8.8 9-11z"/><path fill="#63412b" d="M154.5 185.5a19.22 19.22 0 0 1 6 1c1.68 2.027 2.847 4.361 3.5 7 1.302.585 2.469 1.251 3.5 2 1.419.139 2.752.639 4 1.5l-6 2c2.52 1.697 4.853 3.53 7 5.5-.667 0-1 .333-1 1-2.046-1.779-4.213-3.446-6.5-5l-2.5 2.5c.949.617 1.782.451 2.5-.5 1.926 2.039 4.093 3.706 6.5 5-.311.978-.978 1.645-2 2-1.12-1.333-2.453-1.833-4-1.5.971 1.481 2.304 2.315 4 2.5l2 2c-1.006.438-1.006 1.104 0 2-2.349-.624-4.682-.957-7-1a15.69 15.69 0 0 1-2-4l2-1c-.505-1.419-1.505-2.085-3-2 0-.667-.333-1-1-1-.06-.543-.393-.876-1-1l-3 2v-1c1.5-1.679 3.333-3.012 5.5-4 .333-1.547-.167-2.88-1.5-4 .883-1.048 1.55-2.215 2-3.5-.806-3.475-2.806-5.475-6-6 1.519 1.351 2.852 2.851 4 4.5-1.057.406-2.391.406-4 0-1.041-2.517-1.708-4.85-2-7z"/><path fill="#ba7057" d="M113.5 198.5v-1h9c.645 1.312 1.645 2.312 3 3 .793-.855.46-1.689-1-2.5a36.23 36.23 0 0 1 12 0c-2.694 2.552-2.027 3.719 2 3.5 0 .667-.333 1-1 1a32.46 32.46 0 0 0-8 .5c4.045 2.303 3.878 3.803-.5 4.5-4.322-.983-7.488-3.483-9.5-7.5-1.845-1.128-3.845-1.628-6-1.5z"/><path fill="#e19c88" d="M93.5 202.5a3 3 0 0 1 2 2c-2.289 1.506-4.623 2.673-7 3.5l5-5.5z"/><path fill="#b17545" d="M160.5 205.5c.667 0 1 .333 1 1-1.337.815-2.337 1.982-3 3.5-.948.483-1.948.649-3 .5 1.285-1.952 2.951-3.618 5-5z"/><path fill="#a97948" d="M171.5 207.5c1.218 1.832.551 2.832-2 3-1.696-.185-3.029-1.019-4-2.5 1.547-.333 2.88.167 4 1.5 1.022-.355 1.689-1.022 2-2z"/><path fill="#c09b75" d="M156.5 205.5v1a60.95 60.95 0 0 0-12 9c-3.646 2.317-6.98 4.984-10 8h-2c1.262-3.257 3.262-5.923 6-8 3.549-.117 6.549-1.784 9-5a59.56 59.56 0 0 1 9-5z"/><path fill="#bc9172" d="M171.5 205.5c0-.667.333-1 1-1a46.42 46.42 0 0 1 10 6l2-2 3 2 10 11a.91.91 0 0 1-.5 1L186.5 212c-.667-.667-1.333-.667-2 0 1.21 1.039 2.21 2.206 3 3.5h-2c-4.365-3.689-9.031-7.022-14-10z"/><path fill="#312726" d="M171.5 205.5c4.969 2.978 9.635 6.311 14 10h-2c-3.791-1.484-7.791-2.484-12-3l-2-2c2.551-.168 3.218-1.168 2-3-2.407-1.294-4.574-2.961-6.5-5-.718.951-1.551 1.117-2.5.5l2.5-2.5c2.287 1.554 4.454 3.221 6.5 5z"/><path fill="#261e1a" d="M160.5 205.5c-2.049 1.382-3.715 3.048-5 5l-1 2a43.28 43.28 0 0 0-10 3 60.95 60.95 0 0 1 12-9l3-2c.607.124.94.457 1 1z"/><path fill="#695248" d="M138.5 201.5h1c.111.617.444 1.117 1 1.5-1.76 2.029-2.927 4.196-3.5 6.5 3.75-1.529 7.25-1.196 10.5 1-2.451 3.216-5.451 4.883-9 5-1.29-.558-2.123-1.558-2.5-3l-2 2 1-5c-.708.881-1.542 1.547-2.5 2 1.413-3.161 3.08-6.161 5-9 .667 0 1-.333 1-1z"/><path fill="#7f5d4d" d="M198.5 207.5c2.512 4.366 4.512 9.033 6 14v2h-2c-.372-3.797-1.706-7.13-4-10-.88-2.111-.88-4.111 0-6z"/><path fill="#947669" d="M138.5 215.5c-2.738 2.077-4.738 4.743-6 8h-7c1.83-4.331 4.163-8.331 7-12 .958-.453 1.792-1.119 2.5-2l-1 5 2-2c.377 1.442 1.21 2.442 2.5 3z"/><path fill="#b9986e" d="M171.5 212.5c4.209.516 8.209 1.516 12 3l-7 2c-1.44-1.452-3.106-2.452-5-3-1.006-.896-1.006-1.562 0-2z"/><path fill="#c2a68e" d="M154.5 212.5c-2.119 1.9-4.453 3.566-7 5-1.21-.432-2.21-1.099-3-2a43.28 43.28 0 0 1 10-3z"/><path fill="#7f6356" d="M197.5 221.5a3 3 0 0 1 2 2h-5l-7-8c-.79-1.294-1.79-2.461-3-3.5.667-.667 1.333-.667 2 0l10.5 10.5a.91.91 0 0 0 .5-1z"/><path fill="#d59875" d="M204.5 221.5c-1.488-4.967-3.488-9.634-6-14v-2c2.257-1.303 4.09-.636 5.5 2a109.25 109.25 0 0 0 1.5 12.5c-.07.765-.403 1.265-1 1.5z"/><path fill="#56311f" d="M161.5 206.5c-.209 1.422-.709 2.755-1.5 4a174.33 174.33 0 0 1-12.5 10v-3c2.547-1.434 4.881-3.1 7-5l1-2c1.052.149 2.052-.017 3-.5.663-1.518 1.663-2.685 3-3.5z"/><path fill="#52423f" d="M171.5 214.5c1.894.548 3.56 1.548 5 3l7-2h2 2l7 8h-14c-3.194-2.772-6.194-5.772-9-9z" opacity=".987"/><path fill="#544441" d="M198.5 213.5c2.294 2.87 3.628 6.203 4 10h-3a3 3 0 0 0-2-2l-10-11c.06-.543.393-.876 1-1 3.144 1.909 6.477 3.242 10 4z"/><path fill="#5d4744" d="M144.5 215.5c.79.901 1.79 1.568 3 2v3l-2 3h-11c3.02-3.016 6.354-5.683 10-8z"/><path fill="#d89e79" d="M161.5 206.5c1.495-.085 2.495.581 3 2l-2 1a15.69 15.69 0 0 0 2 4c2.318.043 4.651.376 7 1 2.806 3.228 5.806 6.228 9 9h-35l2-3a174.33 174.33 0 0 0 12.5-10c.791-1.245 1.291-2.578 1.5-4z" opacity=".988"/></svg>